<?xml version="1.0" standalone="no"?>
<!DOCTYPE svg PUBLIC "-//W3C//DTD SVG 1.1//EN" "http://www.w3.org/Graphics/SVG/1.1/DTD/svg11.dtd" >
<svg xmlns="http://www.w3.org/2000/svg" xmlns:xlink="http://www.w3.org/1999/xlink" version="1.1">
<metadata>
Created by FontForge 20170731 at Mon Aug  5 21:26:49 2019
 By Aleksey,,,
Copyright (c) 2019 by MadeType. All rights reserved.
</metadata>
<defs>
<font id="MADESunflower" horiz-adv-x="501" >
  <font-face 
    font-family="MADE Sunflower"
    font-weight="400"
    font-stretch="normal"
    units-per-em="1000"
    panose-1="2 0 5 3 0 0 0 2 0 4"
    ascent="800"
    descent="-200"
    x-height="453"
    cap-height="700"
    bbox="-89.5614 -359 1135 905.136"
    underline-thickness="50"
    underline-position="-200"
    unicode-range="U+0020-F6C3"
  />
<missing-glyph horiz-adv-x="198" 
 />
    <glyph glyph-name=".notdef" horiz-adv-x="198" 
 />
    <glyph glyph-name=".null" horiz-adv-x="0" 
 />
    <glyph glyph-name="nonmarkingreturn" horiz-adv-x="333" 
 />
    <glyph glyph-name="space" unicode=" " horiz-adv-x="198" 
 />
    <glyph glyph-name="exclam" unicode="!" horiz-adv-x="247" 
d="M124 173q45 0 74 -26t29 -65t-29 -65t-74 -26t-74 26t-29 65t29 65t74 26zM98 221q-60 247 -76 367q-8 60 24.5 90.5t76.5 30.5t76.5 -30.5t24.5 -90.5q-7 -53 -26 -145t-34 -157l-16 -65h-50z" />
    <glyph glyph-name="quotedbl" unicode="&#x22;" horiz-adv-x="359" 
d="M82 482q-53 115 -60 171q-5 36 12.5 65.5t58.5 29.5t58.5 -29.5t13.5 -65.5q-4 -25 -19 -67.5t-28 -73.5l-13 -30h-23zM255 482q-53 115 -60 171q-5 36 12.5 65.5t58.5 29.5t58.5 -29.5t12.5 -65.5q-3 -25 -18 -67.5t-28 -73.5l-13 -30h-23z" />
    <glyph glyph-name="numbersign" unicode="#" horiz-adv-x="609" 
d="M589 367h-161l-26 -131h147v-39h-155l-38 -197h-40l39 197h-150l-39 -197h-39l39 197h-146v39h153l26 131h-139v39h147l38 197h40l-39 -197h150l38 197h40l-39 -197h154v-39zM363 236l25 131h-150l-25 -131h150z" />
    <glyph glyph-name="dollar" unicode="$" horiz-adv-x="582" 
d="M392 417q92 -50 122 -74q82 -68 65 -170q-9 -58 -51 -99.5t-98 -61t-119 -21.5v-108h-39v109q-100 6 -177 47.5t-91 108.5q-13 64 23 105t93 36q47 -5 76.5 -35.5t29.5 -62.5q-37 3 -61.5 -19.5t-15.5 -68.5q13 -66 123 -74v262h-2q-102 54 -136 80q-87 68 -82 162
q3 49 23.5 84.5t53.5 54.5t68 28t75 10v109h39v-109h6q28 -2 56.5 -8.5t43.5 -11.5t28 -7t20 4t11 23h21l16 -225h-32q-20 93 -57.5 136.5t-106.5 50.5q-1 0 -3 0.5t-3 0.5v-214q79 -41 81 -42zM191 588q-4 -55 81 -106v188q-35 -7 -57.5 -28.5t-23.5 -53.5zM432 120
q9 51 -20 82t-101 68v-241q51 4 83 29.5t38 61.5z" />
    <glyph glyph-name="percent" unicode="%" horiz-adv-x="651" 
d="M521 700h40l-433 -700h-40zM328 542q0 -73 -46 -120t-108 -47t-108 47t-46 120t46 120t108 47t108 -47t46 -120zM118 530q9 -62 28.5 -94t44.5 -29q25 4 34 43.5t1 103.5q-8 63 -28 96.5t-44 27.5q-24 -5 -34 -45t-2 -103zM477 325q62 0 108 -47t46 -120
q0 -72 -46 -119.5t-108 -47.5t-108 47.5t-46 119.5q0 73 46 120t108 47zM493 24q25 3 34.5 42.5t1.5 103.5q-8 63 -28 96.5t-44 28.5q-24 -6 -34 -46t-2 -103q8 -62 27.5 -94t44.5 -28z" />
    <glyph glyph-name="ampersand" unicode="&#x26;" horiz-adv-x="687" 
d="M687 338q-51 0 -77.5 -32.5t-43.5 -87.5q-13 -39 -31 -75q82 -72 130 -30l20 -16q-10 -38 -41 -68t-91 -30q-62 0 -116 39q-71 -39 -166 -39q-119 0 -195 46t-76 124q0 62 43 110t121 70q-103 103 -103 203q-1 73 52 115t150 42q95 0 151 -43.5t49 -127.5
q-4 -54 -46.5 -97.5t-95.5 -55.5q21 -25 63.5 -76.5t72 -85t54.5 -58.5q14 31 21 54q19 56 -0.5 87.5t-75.5 31.5v27h231v-27zM258 681q-42 0 -59 -31.5t-1 -78.5q21 -65 100 -158q32 53 32 155q-1 49 -19 81t-53 32zM190 318q-26 -22 -31 -60t12.5 -76.5t48.5 -70.5t81 -47
t106 -2q-12 12 -16 17q-171 200 -201 239z" />
    <glyph glyph-name="quotesingle" unicode="'" horiz-adv-x="186" 
d="M81 482q-52 115 -59 171q-5 36 12.5 65.5t58.5 29.5t58.5 -29.5t12.5 -65.5q-3 -25 -18 -67.5t-28 -73.5l-14 -30h-23z" />
    <glyph glyph-name="parenleft" unicode="(" horiz-adv-x="335" 
d="M157 362q0 -125 40 -228.5t118 -162.5l-12 -24q-283 136 -283 415q0 281 283 414l12 -24q-78 -59 -118 -162.5t-40 -227.5z" />
    <glyph glyph-name="parenright" unicode=")" horiz-adv-x="336" 
d="M32 776q284 -133 284 -414q0 -280 -284 -415l-12 24q79 59 119 162.5t40 228.5t-40 228t-119 162z" />
    <glyph glyph-name="asterisk" unicode="*" horiz-adv-x="373" 
d="M350 667q5 -16 -2 -31.5t-30 -18.5q-24 -4 -102 -11q41 -33 76 -66q16 -20 13 -34.5t-16 -25.5q-10 -10 -28 -8.5t-30 21.5q-20 36 -45 91q-29 -65 -45 -91q-11 -20 -29.5 -21.5t-28.5 8.5q-13 11 -15.5 25.5t13.5 34.5q21 21 75 66q-76 7 -102 11q-22 3 -29.5 18.5
t-2.5 31.5t18 23.5t37 -0.5q27 -12 92 -49q-16 72 -21 105q-3 23 9 34.5t29 11.5t29.5 -11.5t9.5 -34.5q-5 -33 -21 -105q54 32 91 49q24 8 37.5 0.5t17.5 -23.5z" />
    <glyph glyph-name="plus" unicode="+" horiz-adv-x="409" 
d="M389 369v-39h-165v-165h-39v165h-165v39h165v165h39v-165h165z" />
    <glyph glyph-name="comma" unicode="," horiz-adv-x="245" 
d="M122 173q46 0 74.5 -26t28.5 -65q0 -72 -42.5 -130t-105.5 -81l-15 23q47 40 59 97q-44 0 -72.5 26t-28.5 65t28.5 65t73.5 26z" />
    <glyph glyph-name="hyphen" unicode="-" horiz-adv-x="409" 
d="M20 370h369v-40h-369v40z" />
    <glyph glyph-name="period" unicode="." horiz-adv-x="245" 
d="M122 173q46 0 74.5 -26t28.5 -65t-28.5 -65t-74.5 -26q-45 0 -73.5 26t-28.5 65t28.5 65t73.5 26z" />
    <glyph glyph-name="slash" unicode="/" horiz-adv-x="316" 
d="M257 700h39l-236 -700h-40z" />
    <glyph glyph-name="zero" unicode="0" horiz-adv-x="567" 
d="M283 709q128 0 206 -99t78 -260t-78 -260t-206 -99t-205.5 99t-77.5 260t77.5 260t205.5 99zM318 35q52 7 70.5 105.5t-1.5 234.5q-19 142 -58 224t-89 70q-51 -12 -69.5 -110.5t0.5 -234.5q18 -140 57 -218t90 -71z" />
    <glyph glyph-name="one" unicode="1" horiz-adv-x="377" 
d="M271 142q0 -56 17 -85.5t69 -29.5v-27h-337v27q52 0 69 29.5t17 85.5v322q0 55 -17 83t-69 28v27l228 98h23v-558z" />
    <glyph glyph-name="two" unicode="2" horiz-adv-x="530" 
d="M510 244l-15 -244h-475q0 88 30.5 160t110.5 131t114.5 107.5t47.5 96.5q22 69 3.5 121.5t-73.5 55.5q-38 2 -65 -19t-32 -56q-8 -46 12.5 -68t56.5 -20q0 -33 -25 -59.5t-73 -26.5q-53 0 -79.5 40t-12.5 102q14 64 76.5 104t144.5 40q106 0 180.5 -47.5t72.5 -135.5
q-1 -38 -16 -71t-33.5 -54.5t-53 -45t-55.5 -34.5t-60 -30q-47 -23 -66.5 -33.5t-53.5 -32t-53 -43.5t-30 -48h225q69 0 108.5 23t61.5 87h27z" />
    <glyph glyph-name="three" unicode="3" horiz-adv-x="525" 
d="M281 425q115 2 181.5 -59.5t61.5 -159.5q-6 -103 -86.5 -159t-186.5 -56q-85 0 -156.5 38t-88.5 101q-16 61 12 101t80 40q48 0 73 -26.5t25 -59.5q-35 4 -55.5 -19t-13.5 -69q5 -34 38 -52.5t71 -16.5q62 4 90 50.5t26 138.5q0 29 -7 54.5t-23 51.5t-49 40.5t-81 13.5
v24l158 165h-187q-40 -2 -62.5 -10.5t-30.5 -32.5h-28l16 177h436v-57z" />
    <glyph glyph-name="four" unicode="4" horiz-adv-x="570" 
d="M560 177h-116v-35q0 -56 17 -85.5t69 -29.5v-27h-338v27q53 0 70 29.5t17 85.5v35h-299v23l336 500h128v-476h116v-47zM53 224h226v335z" />
    <glyph glyph-name="five" unicode="5" horiz-adv-x="526" 
d="M103 434q201 66 319.5 -5t100.5 -219q-12 -104 -90.5 -161.5t-181.5 -57.5q-85 0 -156.5 38t-88.5 101q-17 61 11 101t81 40q48 0 73 -26.5t25 -59.5q-35 4 -56 -19t-14 -69q6 -34 38.5 -52.5t70.5 -16.5q120 7 117 189q0 16 -2.5 33t-9.5 39t-18 40.5t-31 35t-46 25.5
t-65.5 9t-86.5 -12h-31l20 313h283q78 2 94 42h27l-15 -176h-358z" />
    <glyph glyph-name="six" unicode="6" horiz-adv-x="530" 
d="M280 444q120 9 186.5 -50.5t62.5 -169.5q-3 -102 -76 -167.5t-183 -65.5q-101 0 -179 65t-88 176q-9 110 23.5 200.5t94 148t141 88.5t166.5 31v-28q-99 -18 -161.5 -85.5t-81.5 -182.5q16 17 44 27.5t51 12.5zM308 27q83 17 53 198q-15 87 -49 129.5t-75 36.5
q-40 -6 -56 -59t-1 -140q14 -86 51.5 -129.5t76.5 -35.5z" />
    <glyph glyph-name="seven" unicode="7" horiz-adv-x="527" 
d="M507 700v-57q-17 -25 -34.5 -53t-44.5 -83.5t-46 -112t-32.5 -134.5t-11.5 -155q3 -114 -85 -114q-42 0 -68.5 28t-26.5 78q0 58 20 119.5t45.5 108t67 98.5t67 79.5t62.5 63.5h-274q-41 -1 -65 -10t-33 -33h-28l16 177h471z" />
    <glyph glyph-name="eight" unicode="8" horiz-adv-x="549" 
d="M395 378q159 -66 153 -191q-3 -88 -68 -142t-201 -54q-120 0 -199.5 45.5t-79.5 123.5q0 62 42.5 110.5t120.5 70.5q-65 34 -99.5 80.5t-33.5 100.5q1 91 71 139t178 48t173.5 -46t62.5 -133q-2 -52 -34 -92.5t-86 -59.5zM276 27q44 0 74 33t21 93q-2 13 -7.5 26
t-12.5 23.5t-17.5 22t-19.5 19.5t-22.5 17.5t-21.5 15t-22 13.5t-19.5 11t-17.5 9l-12 6q-40 -35 -51.5 -86t2.5 -95.5t48.5 -76t77.5 -31.5zM352 401q18 30 24.5 76.5t-0.5 90.5t-35 75t-73 29q-36 -1 -57.5 -29t-19.5 -68q6 -107 161 -174z" />
    <glyph glyph-name="nine" unicode="9" horiz-adv-x="530" 
d="M527 468q9 -110 -23 -201t-94 -148t-141.5 -88t-166.5 -31v28q98 18 161 85t82 182q-33 -34 -95 -39q-120 -10 -186.5 50t-62.5 169q3 103 76 168.5t183 65.5q101 0 179 -65t88 -176zM293 309q39 5 55.5 58t1.5 141q-14 86 -51.5 129.5t-76.5 35.5q-83 -17 -53 -199
q15 -86 49 -128.5t75 -36.5z" />
    <glyph glyph-name="colon" unicode=":" horiz-adv-x="245" 
d="M122 173q45 0 74 -26t29 -65t-29 -65t-74 -26t-73.5 26t-28.5 65t28.5 65t73.5 26zM122 280q-45 0 -73.5 26.5t-28.5 65.5t28.5 65t73.5 26t74 -26t29 -65t-29 -65.5t-74 -26.5z" />
    <glyph glyph-name="semicolon" unicode=";" horiz-adv-x="245" 
d="M122 280q-45 0 -73.5 26.5t-28.5 65.5t28.5 65t73.5 26t74 -26t29 -65t-29 -65.5t-74 -26.5zM122 173q45 0 74 -26t29 -65q0 -71 -42.5 -129.5t-105.5 -81.5l-16 23q48 40 60 97q-44 0 -72.5 26t-28.5 65t28.5 65t73.5 26z" />
    <glyph glyph-name="less" unicode="&#x3c;" horiz-adv-x="409" 
d="M389 479v-39l-324 -132l324 -131v-40l-369 150v42z" />
    <glyph glyph-name="equal" unicode="=" horiz-adv-x="410" 
d="M20 428h370v-40h-370v40zM20 271v40h370v-40h-370z" />
    <glyph glyph-name="greater" unicode="&#x3e;" horiz-adv-x="410" 
d="M20 479l370 -150v-42l-370 -150v40l324 131l-324 132v39z" />
    <glyph glyph-name="question" unicode="?" horiz-adv-x="469" 
d="M227 709q66 0 120.5 -18t89.5 -61t31 -104q-3 -47 -29.5 -84t-62 -60t-70.5 -44.5t-59 -50.5t-24 -66h-56q-6 54 9.5 98t38.5 68.5t47.5 60.5t30.5 73q24 145 -78 151q-37 2 -60 -18.5t-29 -56.5q-7 -46 13.5 -68t55.5 -20q0 -34 -25.5 -61.5t-72.5 -24.5q-54 4 -80 43.5
t-12 101.5q15 64 77 102.5t145 38.5zM206 173q45 0 74 -26t29 -65t-29 -65t-74 -26t-73.5 26t-28.5 65t28.5 65t73.5 26z" />
    <glyph glyph-name="at" unicode="@" horiz-adv-x="853" 
d="M696 466q-31 -257 -39 -323q-7 -49 -4 -68.5t21 -20.5q26 -1 64.5 36t58.5 92q35 99 12 196q-9 36 -32 71t-61.5 67.5t-100.5 53t-138 20.5q-165 0 -283 -82.5t-148 -216.5q-18 -81 -3 -161.5t58 -134.5q46 -58 134 -94t188 -36q223 0 345 122l22 -28q-3 -5 -14.5 -16
t-42.5 -32t-70.5 -38.5t-103.5 -30.5t-136 -13q-108 0 -203 39.5t-147 103.5q-49 61 -65 149.5t4 176.5q14 66 56.5 131t96.5 106q119 90 312 90q88 0 158.5 -25t112 -64.5t64.5 -77t31 -72.5q26 -106 -12 -215q-33 -93 -101 -139.5t-137 -40.5q-69 7 -88 75
q-48 -75 -132 -75q-112 0 -171.5 65t-48.5 171q13 116 81.5 183.5t178.5 52.5q69 -8 115 -61l141 64h27zM508 207q16 89 0 147t-61 66t-79 -40.5t-50 -139.5q-16 -90 -0.5 -148t60.5 -65q45 -8 79.5 40.5t50.5 139.5z" />
    <glyph glyph-name="A" unicode="A" horiz-adv-x="772" 
d="M762 0h-345v28q55 0 66 28t-14 87l-25 56h-243q-10 -25 -22 -56q-41 -115 77 -115v-28h-246v28q51 0 77.5 29t48.5 86l219 557h47l242 -557q2 -5 13.5 -29.5t14 -29.5t13.5 -21t19.5 -20.5t24 -9.5t33.5 -5v-28zM217 239h210l-111 252z" />
    <glyph glyph-name="B" unicode="B" horiz-adv-x="698" 
d="M511 377q187 -41 187 -180q0 -99 -91.5 -148t-256.5 -49h-330v27q53 0 73.5 30.5t20.5 84.5v415q0 54 -20.5 84.5t-73.5 30.5v28h294q164 0 246.5 -41.5t82.5 -131.5q0 -108 -132 -150zM338 660h-54v-267h42q148 0 148 134q0 59 -31.5 96t-104.5 37zM346 39q85 0 128 43
t43 115q0 71 -43 114t-128 43h-62v-315h62z" />
    <glyph glyph-name="C" unicode="C" horiz-adv-x="667" 
d="M619 220h28l-16 -229h-21q-7 26 -35 26t-86.5 -13t-100.5 -13q-171 0 -279.5 102t-108.5 257q0 156 103.5 257.5t276.5 101.5q42 0 100.5 -13t86.5 -13t35 26h21l16 -225h-28q-42 199 -231 187q-92 -5 -144.5 -87.5t-52.5 -233.5q0 -150 56.5 -234t148.5 -88
q189 -8 231 192z" />
    <glyph glyph-name="D" unicode="D" horiz-adv-x="761" 
d="M329 700q209 0 320.5 -95t111.5 -255t-111.5 -255t-320.5 -95h-309v27q94 0 94 115v415q0 115 -94 115v28h309zM325 39q259 0 259 311q0 310 -259 310h-42v-621h42z" />
    <glyph glyph-name="E" unicode="E" horiz-adv-x="662" 
d="M620 216h32l-16 -216h-616v27q94 0 94 115v415q0 115 -94 115v28h580l16 -216h-31q-56 176 -167 176h-135v-290h13q33 0 48.5 1t38 7t33 19t19.5 37t12 61h27v-290h-27q-3 37 -12 61t-19.5 37t-33 19t-38 7t-48.5 1h-13v-291h171q110 0 166 177z" />
    <glyph glyph-name="F" unicode="F" horiz-adv-x="630" 
d="M604 700l16 -216h-32q-55 176 -166 176h-139v-290h17q33 0 48.5 1t38 7t33 19t19.5 37t11 61h28v-290h-28q-2 37 -11 61t-19.5 37t-33 19t-38 7t-48.5 1h-17v-188q0 -115 114 -115v-27h-377v27q94 0 94 115v415q0 115 -94 115v28h584z" />
    <glyph glyph-name="G" unicode="G" horiz-adv-x="745" 
d="M412 349h353v-27q-94 0 -94 -115v-216h-21q-7 26 -44.5 26t-107 -13t-110.5 -13q-170 0 -279 102t-109 257q0 156 103.5 257.5t276.5 101.5q43 0 101.5 -13t86.5 -13t35 26h21l15 -225h-27q-42 199 -232 187q-91 -5 -143.5 -87.5t-52.5 -233.5q0 -150 56 -234t148 -88h24
t29 6.5t31.5 18t22.5 37.5t10 62v55q0 54 -20 84.5t-73 30.5v27z" />
    <glyph glyph-name="H" unicode="H" horiz-adv-x="848" 
d="M828 672q-94 0 -94 -115v-415q0 -115 94 -115v-27h-357v27q94 0 94 115v188h-282v-188q0 -115 94 -115v-27h-357v27q94 0 94 115v415q0 115 -94 115v28h357v-28q-94 0 -94 -115v-187h282v187q0 115 -94 115v28h357v-28z" />
    <glyph glyph-name="I" unicode="I" horiz-adv-x="398" 
d="M378 672q-94 0 -94 -115v-415q0 -115 94 -115v-27h-358v27q53 0 73.5 30.5t20.5 84.5v415q0 54 -20.5 84.5t-73.5 30.5v28h358v-28z" />
    <glyph glyph-name="J" unicode="J" horiz-adv-x="665" 
d="M268 700h377v-28q-94 0 -94 -115v-364q0 -143 -74 -212t-204 -69q-58 0 -109.5 13t-94 51t-48.5 96q-6 60 32 98t91 36q47 -2 72.5 -31t25.5 -62q-31 -3 -48.5 -24.5t-16.5 -56.5q1 -37 27 -60t63 -23q35 0 58.5 19.5t35 58.5t16 84t4.5 110v336q0 115 -113 115v28z" />
    <glyph glyph-name="K" unicode="K" horiz-adv-x="864" 
d="M709 132q31 -50 64 -77.5t81 -27.5v-27h-377v27q53 0 60.5 31t-19.5 69l-144 234l-91 -85v-134q0 -115 94 -115v-27h-357v27q53 0 73 30.5t20 84.5v415q0 54 -20 84.5t-73 30.5v28h357v-28q-94 0 -94 -115v-222l249 227q29 26 38.5 51.5t-5 42t-51.5 16.5v28h267v-28
q-14 0 -29 -4t-27.5 -9t-29 -15t-26 -16.5t-26 -20l-22 -18t-20.5 -18t-16 -14.5l-88 -81z" />
    <glyph glyph-name="L" unicode="L" horiz-adv-x="672" 
d="M620 216h32l-16 -216h-616v27q94 0 94 115v415q0 115 -94 115v28h357v-28q-94 0 -94 -115v-518h171q112 0 166 177z" />
    <glyph glyph-name="M" unicode="M" horiz-adv-x="968" 
d="M948 672q-53 0 -73.5 -30.5t-20.5 -84.5v-415q0 -54 20.5 -84.5t73.5 -30.5v-27h-358v27q53 0 73.5 30.5t20.5 84.5v466l-252 -490h-40l-244 463v-439q0 -64 21.5 -89.5t78.5 -25.5v-27h-228v27q55 0 71.5 24t16.5 91v415q0 55 -18 85t-70 30v28h258l202 -399l204 399
h264v-28z" />
    <glyph glyph-name="N" unicode="N" horiz-adv-x="778" 
d="M530 700h228v-28q-56 0 -72.5 -24t-16.5 -91v-557h-61l-460 581v-439q0 -64 21.5 -89.5t78.5 -25.5v-27h-228v27q55 0 71.5 24t16.5 91v415q0 55 -18 85t-70 30v28h266l344 -428v285q0 65 -21.5 90t-78.5 25v28z" />
    <glyph glyph-name="O" unicode="O" horiz-adv-x="737" 
d="M369 709q161 0 264.5 -102.5t103.5 -256.5q0 -155 -103.5 -257t-264.5 -102t-265 102t-104 257q0 154 104 256.5t265 102.5zM369 28q85 0 136.5 88t51.5 234t-51.5 233.5t-136.5 87.5q-86 0 -137.5 -88t-51.5 -233q0 -146 51.5 -234t137.5 -88z" />
    <glyph glyph-name="P" unicode="P" horiz-adv-x="639" 
d="M302 267h-19v-125q0 -115 114 -115v-27h-377v27q94 0 94 115v415q0 115 -94 115v28h282q167 0 252 -55.5t85 -161.5t-85 -161t-252 -55zM298 660h-15v-353h15q164 0 164 176q0 177 -164 177z" />
    <glyph glyph-name="Q" unicode="Q" horiz-adv-x="737" 
d="M565 -74q39 -5 69 5t40.5 20t23.5 27l31 -18q-50 -143 -184 -138q-46 2 -89.5 20t-72 39t-69.5 40.5t-81 23.5q-79 7 -151 -55l-30 28q35 44 66 72t71 42q-88 45 -138.5 129t-50.5 189q0 154 104 256.5t265 102.5t264.5 -102.5t103.5 -256.5q0 -143 -90 -242.5
t-233 -114.5q6 -4 25 -16.5t27.5 -17.5t25.5 -13.5t34.5 -13t38.5 -6.5zM369 671q-86 0 -137.5 -88t-51.5 -233q0 -146 51.5 -234t137.5 -88q85 0 136.5 88t51.5 234t-51.5 233.5t-136.5 87.5z" />
    <glyph glyph-name="R" unicode="R" horiz-adv-x="799" 
d="M638 142q23 -37 39 -57.5t46 -39t66 -18.5v-27h-194q-76 0 -108 62q-11 21 -61 117.5t-58 112.5q-19 -1 -62 -1h-22v-149q0 -54 20.5 -84.5t73.5 -30.5v-27h-358v27q53 0 73.5 30.5t20.5 84.5v415q0 54 -20.5 84.5t-73.5 30.5v28h286q349 0 349 -205q0 -123 -127 -172z
M302 330q172 0 172 165t-172 165h-18v-330h18z" />
    <glyph glyph-name="S" unicode="S" horiz-adv-x="582" 
d="M392 417q92 -50 122 -74q82 -68 65 -170q-10 -64 -59.5 -107.5t-114 -60.5t-132.5 -13q-101 6 -178 47.5t-91 108.5q-13 64 23 105t93 36q47 -5 76.5 -35.5t29.5 -62.5q-37 3 -61.5 -19.5t-15.5 -68.5q13 -68 128 -75q65 -4 106.5 23t49.5 69q5 29 -0.5 51t-33.5 44
t-44.5 31.5t-69.5 36.5q-10 5 -15 8q-102 54 -136 80q-87 68 -82 162q3 56 30 94t68.5 55t82.5 23t84 3q29 -2 57 -8.5t43 -11t28.5 -6t20.5 4.5t11 23h20l16 -225h-31q-21 93 -58 136.5t-107 50.5q-49 5 -86.5 -18t-39.5 -66q-1 -23 10.5 -44t37 -39.5t47 -31t57 -30.5
t49.5 -26z" />
    <glyph glyph-name="T" unicode="T" horiz-adv-x="710" 
d="M674 700l16 -216h-32q-56 176 -166 176h-52v-518q0 -54 20 -84.5t73 -30.5v-27h-357v27q94 0 94 115v518h-52q-111 0 -166 -176h-32l16 216h638z" />
    <glyph glyph-name="U" unicode="U" horiz-adv-x="792" 
d="M555 700h217v-28q-56 0 -72.5 -24t-16.5 -91v-255q0 -66 -13 -120t-41.5 -98t-79.5 -68.5t-122 -24.5q-140 0 -227 81.5t-87 227.5v257q0 54 -20 84.5t-73 30.5v28h357v-28q-94 0 -94 -115v-257q0 -121 45 -186.5t136 -65.5q82 0 131 61t49 195v253q0 67 -16.5 91
t-72.5 24v28z" />
    <glyph glyph-name="V" unicode="V" horiz-adv-x="773" 
d="M516 700h247v-28q-52 0 -78.5 -29t-48.5 -86l-218 -557h-48l-241 557q-3 6 -14 29.5t-14.5 29.5t-14 21.5t-19.5 20t-24 9.5t-33 5v28h345v-28q-55 0 -66 -28t14 -87l153 -348l137 348q18 62 -0.5 88.5t-76.5 26.5v28z" />
    <glyph glyph-name="W" unicode="W" horiz-adv-x="1140" 
d="M883 700h247v-28q-27 0 -47 -8.5t-34.5 -27.5t-22.5 -34.5t-19 -44.5l-206 -557h-48l-183 446l-160 -446h-48l-235 557q-33 70 -51 88q-25 27 -66 27v28h346v-28q-56 0 -68 -28t13 -87l144 -338l102 283l-23 55q-3 6 -10.5 23t-10.5 22.5t-10 18.5t-11.5 18t-13 13
t-16.5 11.5t-19 6t-24 2.5v28h345v-28q-56 0 -68.5 -28t11.5 -87l141 -340l125 340q18 62 -2 88.5t-78 26.5v28z" />
    <glyph glyph-name="X" unicode="X" horiz-adv-x="762" 
d="M643 96q47 -69 109 -69v-27h-357v27q53 0 61 37t-21 78l-98 150l-104 -150q-37 -55 -27.5 -85t65.5 -30v-27h-247v27q51 0 89.5 31t73.5 83l128 186l-178 272q-51 73 -117 73v28h358v-28q-54 0 -61 -34t24 -81l86 -132l92 133q37 55 28 84.5t-66 29.5v28h247v-28
q-51 0 -89.5 -31t-73.5 -83l-115 -167z" />
    <glyph glyph-name="Y" unicode="Y" horiz-adv-x="750" 
d="M513 700h227v-28q-37 0 -64.5 -29.5t-59.5 -85.5l-141 -258v-157q0 -115 94 -115v-27h-354v27q53 0 73.5 30.5t20.5 84.5v123l-177 292q-37 57 -64.5 86t-57.5 29v28h345v-28q-53 0 -66.5 -28t18.5 -87l135 -235l130 235q29 53 14 84t-73 31v28z" />
    <glyph glyph-name="Z" unicode="Z" horiz-adv-x="627" 
d="M607 700v-28l-389 -633h188q110 0 166 177h31l-16 -216h-567v27l390 633h-169q-111 0 -166 -176h-32l16 216h548z" />
    <glyph glyph-name="bracketleft" unicode="[" horiz-adv-x="319" 
d="M299 739h-125v-754h125v-40h-279v833h279v-39z" />
    <glyph glyph-name="backslash" unicode="\" horiz-adv-x="316" 
d="M60 700l236 -700h-39l-237 700h40z" />
    <glyph glyph-name="bracketright" unicode="]" horiz-adv-x="319" 
d="M20 778h279v-833h-279v40h125v754h-125v39z" />
    <glyph glyph-name="asciicircum" unicode="^" horiz-adv-x="272" 
d="M252 555h-40l-76 122l-76 -122h-40l95 145h42z" />
    <glyph glyph-name="underscore" unicode="_" horiz-adv-x="409" 
d="M20 0h369v-40h-369v40z" />
    <glyph glyph-name="grave" unicode="`" horiz-adv-x="183" 
d="M163 557l-10 -10q-78 29 -107 51q-19 15 -24 34.5t13 42.5q23 18 42.5 13t34.5 -24q10 -13 22.5 -39.5t20.5 -46.5z" />
    <glyph glyph-name="a" unicode="a" horiz-adv-x="576" 
d="M558 52q1 -3 2.5 -6.5t2 -5l1.5 -4.5l2 -6q-33 -39 -105 -39q-46 0 -84 16.5t-48 49.5q-43 -66 -141 -66q-68 0 -116.5 24.5t-58.5 75.5q-11 59 23 103.5t118 61.5q23 5 51.5 8t43 4.5t28 7t17.5 17t1 31.5q-18 104 -77 104q-46 4 -64.5 -30.5t11.5 -58.5
q-17 -30 -45 -37.5t-48 4.5q-44 22 -23 76q16 44 65 62.5t103 18.5q119 0 174.5 -41.5t69.5 -137.5l19 -141q13 -76 22 -88q18 -21 56 -3zM259 53q63 15 58 102q-5 61 -11 98q-6 -12 -18.5 -18t-51.5 -17q-34 -10 -52.5 -37t-13.5 -64q5 -34 32.5 -53t56.5 -11z" />
    <glyph glyph-name="b" unicode="b" horiz-adv-x="634" 
d="M364 463q111 15 185.5 -56t74.5 -180q0 -110 -70.5 -181t-180.5 -55q-78 11 -127 75l-125 -66h-25v479q0 56 -16.5 85.5t-69.5 29.5v28q51 0 115 20.5t106 57.5h27v-289q43 43 106 52zM399 26q45 8 60.5 66t-0.5 148q-16 91 -50 139t-79 41q-45 -8 -61 -66t0 -148
t50.5 -138.5t79.5 -41.5z" />
    <glyph glyph-name="c" unicode="c" 
d="M475 157q16 -13 16 -14q-28 -65 -85.5 -108.5t-142.5 -43.5q-110 0 -181.5 60.5t-79.5 152.5q-10 117 65 188t192 71q101 0 149 -33.5t55 -83.5q5 -31 -6 -58.5t-37 -39.5q-27 -15 -63 -3.5t-63 48.5q26 21 29.5 54.5t-18.5 58t-63 21.5q-40 -4 -64 -45.5t-21 -108.5
q8 -161 153 -176q99 -10 165 60z" />
    <glyph glyph-name="d" unicode="d" horiz-adv-x="620" 
d="M593 75l17 -10q-35 -74 -115 -74q-81 0 -111 47q-54 -47 -124 -47q-114 0 -187 65.5t-73 170.5q0 109 74.5 180t185.5 56q63 -9 106 -52v68q0 56 -17 85.5t-69 29.5v28q50 0 114.5 20.5t106.5 57.5h27v-557q0 -44 4.5 -64.5t20.5 -24.5q24 -6 40 21zM295 30q45 8 60.5 66
t-0.5 148t-50.5 138.5t-79.5 41.5q-45 -8 -60.5 -66t0.5 -148t50.5 -138.5t79.5 -41.5z" />
    <glyph glyph-name="e" unicode="e" 
d="M474 157q17 -13 17 -14q-28 -65 -85.5 -108.5t-142.5 -43.5q-110 0 -181.5 62t-79.5 155q-10 117 65 186t192 69q103 0 163 -53.5t56 -150.5l-309 -52q11 -62 68.5 -91t125.5 -17.5t111 58.5zM241 427q-46 -4 -66.5 -55.5t-11.5 -125.5l164 28q4 76 -16.5 116.5
t-69.5 36.5z" />
    <glyph glyph-name="f" unicode="f" horiz-adv-x="399" 
d="M329 558q6 12 8.5 30t1 38t-15 33.5t-37.5 13.5q-37 0 -49.5 -32.5t3.5 -73.5q24 -70 27 -113h141v-40h-140v-271q0 -115 102 -115v-28h-350v28q52 0 69 29.5t17 85.5v271h-83v40h83v5q0 119 41.5 184.5t144.5 65.5q71 0 118 -27.5t41 -77.5q-4 -29 -27 -42.5t-48 -12.5
t-47 9z" />
    <glyph glyph-name="g" unicode="g" horiz-adv-x="539" 
d="M280 39q8 0 40 1t48.5 0t46.5 -3.5t47 -10.5t35 -20.5t25.5 -34.5t5.5 -52q-3 -46 -30.5 -81.5t-69.5 -54.5t-85 -28.5t-85 -9.5q-60 0 -109 7.5t-89 32.5t-40 66q0 51 70 75q-33 15 -51 42t-12 64q12 66 99 96q-81 53 -81 149q0 83 61.5 134.5t158.5 51.5q41 0 80 -11
q9 113 93 123q41 4 66 -19.5t23 -59.5q-2 -33 -25 -51.5t-47 -17.5q-4 59 -44 59q-21 1 -31 -11t-8 -32q53 -23 83 -66t30 -100q0 -83 -61.5 -135t-158.5 -52q-58 0 -104 20q-23 -18 -21 -37q2 -34 133 -34h7zM236 420q-74 -11 -48 -156q13 -70 41 -103.5t65 -27.5
q74 12 48 157q-13 69 -41.5 102t-64.5 28zM280 -222q116 4 116 89q0 33 -43 33q-70 0 -196 10q-19 -18 -22 -47q-2 -39 35 -62.5t110 -22.5z" />
    <glyph glyph-name="h" unicode="h" horiz-adv-x="718" 
d="M618 142q3 -25 5 -35.5t8 -29.5t14.5 -27.5t24.5 -15.5t38 -7v-27h-321v27q36 0 53.5 16t18.5 41.5t-2 57.5q-14 91 -20 128q-4 24 -6 35t-8 29t-14 26t-22.5 15t-34.5 7q-43 0 -64 -33t-21 -86v-121q0 -57 15 -86t67 -29v-27h-329v27q52 0 69 29.5t17 85.5v337
q0 56 -17 85.5t-69 29.5v28q50 0 114.5 20.5t105.5 57.5h27v-315q56 78 159 78q76 0 118 -43t55 -137z" />
    <glyph glyph-name="i" unicode="i" horiz-adv-x="360" 
d="M267 142q0 -28 2.5 -45.5t10 -35t25 -26t45.5 -8.5v-27h-330v27q52 0 69 29.5t17 85.5v101q0 56 -17 85.5t-69 29.5v27q50 0 114.5 20.5t105.5 57.5h27v-321zM170 510q-41 0 -70.5 28t-29.5 67t29.5 67t70.5 28t70.5 -28t29.5 -67t-29.5 -67t-70.5 -28z" />
    <glyph glyph-name="j" unicode="j" horiz-adv-x="326" 
d="M237 463h27v-469q0 -119 -40 -184t-143 -65q-59 0 -112 31t-58 89q-4 46 20.5 72.5t64.5 24.5q36 -1 55 -24.5t19 -49.5q-48 -5 -45 -57q1 -25 16.5 -37.5t39.5 -12.5q37 0 51 32.5t-2 73.5q-28 82 -28 135v221q0 56 -17 85.5t-69 29.5v27q50 0 114.5 20.5t106.5 57.5z
M166 510q-41 0 -70.5 28t-29.5 67t29.5 67t70.5 28q42 0 71 -28t29 -67t-29 -67t-71 -28z" />
    <glyph glyph-name="k" unicode="k" horiz-adv-x="684" 
d="M577 92q36 -65 97 -65v-27h-289v27q51 0 22 54l-78 147l-61 -55v-31q0 -56 17 -85.5t69 -29.5v-27h-334v27q53 0 69.5 29.5t16.5 85.5v337q0 56 -16.5 85.5t-69.5 29.5v28q51 0 115 20.5t106 57.5h27v-475l157 139q19 17 24.5 31.5t-4.5 22.5t-33 8v27h204v-27
q-70 0 -159 -81l-13 -12z" />
    <glyph glyph-name="l" unicode="l" horiz-adv-x="364" 
d="M268 142q0 -56 16.5 -85.5t69.5 -29.5v-27h-334v27q52 0 69 29.5t17 85.5v337q0 56 -17 85.5t-69 29.5v28q50 0 114.5 20.5t106.5 57.5h27v-558z" />
    <glyph glyph-name="m" unicode="m" horiz-adv-x="1038" 
d="M938 142q3 -29 6.5 -44t12.5 -34.5t26.5 -28t44.5 -8.5v-27h-322v27q52 0 64.5 29.5t5.5 85.5q-14 91 -19 128q-4 26 -5.5 35.5t-7.5 28.5t-13.5 26.5t-21.5 14.5t-33 7q-77 0 -77 -119v-121q0 -56 16.5 -85.5t69.5 -29.5v-27h-322v27q22 0 37 7t22 14.5t10.5 26.5
t4 29.5t0.5 37.5v128q0 112 -85 112q-43 0 -64 -33t-21 -86v-121q0 -27 0.5 -37.5t4 -29.5t10.5 -26.5t22 -14.5t37 -7v-27h-321v27q52 0 69 29.5t17 85.5v101q0 56 -17 85.5t-69 29.5v27q50 0 114.5 20.5t105.5 57.5h27v-78q56 78 159 78q122 0 158 -94q53 94 161 94
q75 0 117.5 -43.5t55.5 -136.5z" />
    <glyph glyph-name="n" unicode="n" horiz-adv-x="718" 
d="M618 142q3 -25 5 -35.5t8 -29.5t14.5 -27.5t24.5 -15.5t38 -7v-27h-321v27q36 0 53.5 16.5t18.5 42t-2 56.5q-14 91 -20 128q-4 25 -6 35.5t-8 29t-14 26.5t-22.5 15t-34.5 7q-43 0 -64 -33t-21 -87v-121q0 -57 15 -86t67 -29v-27h-329v27q52 0 69 29.5t17 85.5v101
q0 56 -17 85.5t-69 29.5v27q49 0 113.5 20.5t106.5 57.5h27v-78q56 78 159 78q76 0 118 -43t55 -137z" />
    <glyph glyph-name="o" unicode="o" horiz-adv-x="529" 
d="M260 463q113 0 186 -65.5t73 -170.5t-73 -170.5t-186 -65.5q-114 0 -187 65.5t-73 170.5t73 170.5t187 65.5zM294 30q45 8 61 66t0 148q-16 91 -50.5 139.5t-79.5 40.5t-60.5 -66t0.5 -148t50 -138.5t79 -41.5z" />
    <glyph glyph-name="p" unicode="p" horiz-adv-x="623" 
d="M353 463q111 15 185.5 -56t74.5 -180q0 -110 -70.5 -181t-180.5 -55q-67 9 -115 61v-146q0 -115 102 -115v-28h-349v28q52 0 69 29.5t17 85.5v337q0 56 -17 85.5t-69 29.5v27q49 0 113.5 20.5t106.5 57.5h27v-52q43 43 106 52zM388 26q45 8 60.5 66t-0.5 148
q-16 91 -50 139.5t-79 40.5t-61 -66t0 -148q17 -91 51 -139t79 -41z" />
    <glyph glyph-name="q" unicode="q" horiz-adv-x="603" 
d="M527 -94q0 -56 17 -85.5t69 -29.5v-28h-349v28q102 0 102 115v125q-43 -40 -106 -40q-114 0 -187 65.5t-73 170.5q0 109 74.5 180t185.5 56q77 -10 124 -72l119 63h24v-548zM294 30q45 8 61 66t0 148q-16 91 -50.5 139.5t-79.5 40.5t-60.5 -66t0.5 -148q16 -91 50 -139
t79 -41z" />
    <glyph glyph-name="r" unicode="r" horiz-adv-x="528" 
d="M422 463q52 -9 73.5 -49.5t4.5 -85.5q-16 -40 -52.5 -53t-65.5 -2q21 74 -29 91q-34 10 -58 -6t-27 -50v-166q0 -57 15 -86t67 -29v-27h-330v27q53 0 69.5 29.5t16.5 85.5v101q0 56 -16.5 85.5t-69.5 29.5v27q50 0 114.5 20.5t106.5 57.5h27v-90q56 106 154 90z" />
    <glyph glyph-name="s" unicode="s" horiz-adv-x="487" 
d="M319 296q8 -5 22 -12t23 -12t23 -13t23 -14t21 -16t18 -18.5t14.5 -21t9.5 -24t3.5 -27t-3.5 -31.5q-14 -67 -86.5 -94t-162.5 -22q-72 3 -136 30t-75 73t17.5 80.5t74.5 27.5q36 -5 54 -28t19 -56q-22 2 -34.5 -12.5t-8.5 -36.5q8 -36 92 -42q41 -2 69.5 11.5t31.5 37.5
q2 17 -2.5 30t-17.5 23.5t-27 19t-39 20.5q-15 7 -22 11q-36 19 -54 29.5t-45.5 33t-38.5 50t-7 61.5q6 46 38 73t72.5 34t88.5 2q17 -2 33 -6.5t24 -8t15 -4.5t10.5 3.5t6.5 15.5h17l10 -155h-24q-13 61 -33 87.5t-59 30.5q-58 8 -63 -35q-1 -6 0 -12t4 -11.5t6 -10
t10.5 -10t12.5 -9t15.5 -9.5l17.5 -10t20.5 -11t21.5 -12z" />
    <glyph glyph-name="t" unicode="t" horiz-adv-x="372" 
d="M343 111l19 -10q-46 -110 -139 -110q-63 0 -104 41.5t-41 118.5v263h-78v39q78 4 136 47.5t73 121.5h31v-169h106v-39h-106v-271q0 -33 10.5 -47t30.5 -18q39 -6 62 33z" />
    <glyph glyph-name="u" unicode="u" horiz-adv-x="625" 
d="M598 75l17 -10q-35 -74 -115 -74q-106 0 -125 80q-54 -80 -158 -80q-79 0 -125.5 43.5t-47.5 133.5v75q0 27 -0.5 37.5t-4 29.5t-10.5 26.5t-22 14.5t-37 7v27q48 0 107 20.5t101 57.5h27v-279q0 -112 85 -112q81 0 81 119v52q0 27 -0.5 37.5t-4 29.5t-10.5 26.5
t-22 14.5t-37 7v27q48 0 107 20.5t102 57.5h27v-320q0 -43 4.5 -63.5t20.5 -25.5q24 -7 40 21z" />
    <glyph glyph-name="v" unicode="v" horiz-adv-x="525" 
d="M359 453h176v-27q-35 0 -54.5 -16t-32.5 -49l-145 -361h-67l-163 361q-12 25 -19.5 36t-23.5 20t-40 9v27h293v-27q-34 0 -43.5 -14t3.5 -51l87 -204l82 204q14 41 2 53t-55 12v27z" />
    <glyph glyph-name="w" unicode="w" horiz-adv-x="821" 
d="M655 453h176v-27q-35 0 -54 -15t-33 -50l-148 -361h-68l-112 287l-117 -287h-68l-160 361q-16 36 -31.5 50.5t-49.5 14.5v27h292v-27q-35 0 -45 -14t4 -51l85 -205l73 176l-12 29q-9 20 -13 28.5t-13 19t-21 14t-30 3.5v27h293v-27q-36 0 -48 -14.5t0 -50.5l69 -203
l84 203q14 41 2 53t-55 12v27z" />
    <glyph glyph-name="x" unicode="x" horiz-adv-x="549" 
d="M471 63q31 -36 68 -36v-27h-251v27q47 0 3 62l-57 80l-62 -77q-51 -65 16 -65v-27h-164v27q59 0 111 65l80 103l-144 202q-24 29 -61 29v27h247v-27q-36 0 -20 -33l73 -103l55 71q28 35 25.5 50t-38.5 15v27h160v-27q-60 0 -109 -65l-75 -97z" />
    <glyph glyph-name="y" unicode="y" horiz-adv-x="525" 
d="M359 453h176v-27q-35 0 -54.5 -16t-32.5 -49l-145 -361q-14 -35 -19 -48.5t-20 -47t-25 -50t-27.5 -41.5t-33 -37t-37 -21.5t-43.5 -9.5q-29 0 -53.5 13t-34.5 38q-15 40 4 74t48 48q27 -49 89 -44q70 8 115 117l-196 386q-27 49 -80 49v27h292v-27q-34 0 -42 -14t6 -51
l89 -192l77 192q13 27 7.5 41.5t-19 19t-41.5 4.5v27z" />
    <glyph glyph-name="z" unicode="z" horiz-adv-x="464" 
d="M420 152h24l-10 -152h-414v27l237 387h-93q-39 0 -63 -29t-41 -83h-25l11 151h391v-27l-237 -387h116q39 0 62.5 29t41.5 84z" />
    <glyph glyph-name="braceleft" unicode="{" horiz-adv-x="322" 
d="M228 625q0 -121 -22 -181t-91 -82q69 -22 91 -82.5t22 -181.5q0 -69 18 -107.5t56 -34.5v-39q-119 -11 -173 48t-54 168v112q0 55 -16 77.5t-59 22.5v33q43 0 59 22.5t16 77.5v113q0 109 54 168t173 48v-40q-37 4 -55.5 -34.5t-18.5 -107.5z" />
    <glyph glyph-name="bar" unicode="|" horiz-adv-x="80" 
d="M20 700h40v-700h-40v700z" />
    <glyph glyph-name="braceright" unicode="}" horiz-adv-x="322" 
d="M248 478q0 -54 16 -77t58 -23v-33q-42 0 -58 -23t-16 -77v-112q0 -109 -54 -168t-174 -48v39q38 -4 56 34t18 108q0 121 22 181.5t91 82.5q-69 22 -91 82t-22 181q0 70 -18 108t-56 34v40q120 11 174 -48t54 -168v-113z" />
    <glyph glyph-name="asciitilde" unicode="~" horiz-adv-x="407" 
d="M370 394l17 -10q-27 -77 -100 -74q-38 1 -87.5 32t-81.5 34q-41 5 -82 -30l-16 16q20 24 33.5 37t39.5 23t56 6q37 -6 76.5 -32.5t72.5 -29.5q47 -6 72 28z" />
    <glyph glyph-name="exclamdown" unicode="&#xa1;" horiz-adv-x="247" 
d="M123 176q-45 0 -74 26.5t-29 65.5q0 38 29 64.5t74 26.5t73.5 -26.5t28.5 -64.5q0 -39 -28.5 -65.5t-73.5 -26.5zM225 -238q8 -60 -24.5 -90.5t-76.5 -30.5t-76.5 30.5t-24.5 90.5q7 53 26 145t35 157l15 65h49q60 -247 77 -367z" />
    <glyph glyph-name="cent" unicode="&#xa2;" horiz-adv-x="500" 
d="M490 261q-28 -65 -85 -108.5t-142 -44.5v-108h-39v110q-95 11 -155.5 69.5t-67.5 142.5q-9 108 55 177t168 80v121h39v-120q98 -1 145 -34t54 -83q5 -31 -6 -58t-37 -39q-27 -15 -63 -3.5t-63 48.5q24 19 29 48.5t-11 54.5t-48 30v-320q21 -8 46 -9q101 -11 165 60z
M157 390q4 -104 67 -146v296q-33 -11 -51.5 -50.5t-15.5 -99.5z" />
    <glyph glyph-name="sterling" unicode="&#xa3;" horiz-adv-x="594" 
d="M584 244l-16 -243l-548 -1v27q67 0 91 68.5t26 219.5h-117v40h117v128q0 111 63.5 168.5t165.5 57.5q84 0 143.5 -34.5t70.5 -97.5q10 -62 -17 -105.5t-79 -43.5q-48 0 -73 26t-25 60q35 -2 54 19.5t15 67.5q-4 34 -26 53.5t-56 17.5q-27 -1 -45 -17.5t-26.5 -47
t-11.5 -61t-3 -71.5q0 -84 -3 -120h184v-40h-188q-17 -117 -105 -181h211q69 0 108.5 23t61.5 87h28z" />
    <glyph glyph-name="currency" unicode="&#xa4;" horiz-adv-x="542" 
d="M530 344q0 -98 -64 -162l66 -65l-28 -28l-68 68q-70 -49 -165 -49t-165 49l-68 -68l-28 28l65 65q-64 66 -64 162q0 103 70 168l-71 71l28 28l74 -74q68 44 159 44t159 -44l74 74l28 -28l-71 -71q69 -64 69 -168zM271 145q46 1 72 54.5t24 144.5q-2 94 -26.5 147.5
t-69.5 52.5q-46 -1 -72.5 -54.5t-24.5 -145.5q2 -93 27 -146.5t70 -52.5z" />
    <glyph glyph-name="yen" unicode="&#xa5;" horiz-adv-x="751" 
d="M513 700h228v-28q-37 0 -65 -29.5t-60 -85.5l-137 -251h142v-39h-146v-65h146v-40h-146v-20q0 -115 94 -115v-27h-353v27q94 0 94 115v20h-146v40h146v63l-1 2h-145v39h121l-152 251q-37 57 -64.5 86t-58.5 29v28h345v-28q-53 0 -66.5 -28t18.5 -87l135 -235l130 235
q29 53 14 84t-73 31v28z" />
    <glyph glyph-name="brokenbar" unicode="&#xa6;" horiz-adv-x="79" 
d="M20 0v267h39v-267h-39zM20 700h39v-267h-39v267z" />
    <glyph glyph-name="section" unicode="&#xa7;" horiz-adv-x="614" 
d="M384 605q103 -54 138 -82q85 -67 80 -160q-7 -118 -119 -159q74 -71 56 -169q-16 -87 -99 -132t-187 -37q-96 6 -165.5 47t-83.5 108q-13 64 23 105.5t92 36.5q48 -5 77 -35.5t29 -62.5q-37 2 -61.5 -20.5t-15.5 -67.5q7 -31 37 -50.5t76 -24.5q52 -5 88 20.5t44 66.5
q11 65 -49 111q-27 20 -113 65q-106 54 -144 86q-79 66 -74 156q7 118 118 159q-74 72 -56 168q11 59 55.5 100t104.5 58t127 12q97 -7 166 -47.5t83 -108.5q12 -64 -23.5 -105t-92.5 -36q-47 5 -76.5 35.5t-29.5 62.5q37 -3 61.5 19.5t15.5 68.5q-6 31 -36.5 50.5
t-76.5 24.5q-51 5 -87.5 -21t-43.5 -67q-4 -25 2 -46t16 -35.5t37 -33t46 -29t61 -31.5zM353 291q56 -31 76 -45q33 23 34 62q1 23 -10.5 44t-37 39.5t-46.5 31t-57.5 30.5t-49.5 26q-46 24 -77 45q-31 -25 -34 -62q-1 -23 10.5 -44t38 -40t46.5 -31t57.5 -31t49.5 -25z" />
    <glyph glyph-name="dieresis" unicode="&#xa8;" horiz-adv-x="347" 
d="M88 678q29 0 48 -17.5t19 -42.5t-19 -42.5t-48 -17.5q-30 0 -49 17.5t-19 42.5t19 42.5t49 17.5zM259 678q30 0 49 -17.5t19 -42.5t-19 -42.5t-49 -17.5q-29 0 -48 17.5t-19 42.5t19 42.5t48 17.5z" />
    <glyph glyph-name="copyright" unicode="&#xa9;" horiz-adv-x="976" 
d="M515 130q145 -7 178 147h21l-12 -176h-16q-5 20 -27 20t-66.5 -10t-77.5 -10q-131 0 -215 78.5t-84 197.5q0 121 79.5 198.5t213.5 77.5q33 0 77.5 -10t66.5 -10t27 20h16l12 -173h-21q-32 153 -178 145q-71 -5 -111 -68t-40 -180q0 -115 43 -179.5t114 -67.5zM488 853
q202 0 345 -143t143 -345t-143 -345t-345 -143q-132 0 -244.5 65.5t-178 178t-65.5 244.5t65.5 244.5t178 178t244.5 65.5zM488 -91q189 0 323 133.5t134 322.5t-134 323t-323 134q-188 0 -322 -134t-134 -323t134 -322.5t322 -133.5z" />
    <glyph glyph-name="guillemotleft" unicode="&#xab;" horiz-adv-x="409" 
d="M389 499v-20l-136 -131l136 -132v-20l-212 146v11zM232 479l-137 -131l137 -132v-20l-212 146v11l212 146v-20z" />
    <glyph glyph-name="registered" unicode="&#xae;" horiz-adv-x="976" 
d="M692 217q17 -28 30 -44t36 -30t51 -14v-21h-150q-58 0 -83 47q-47 87 -91 178q-15 -1 -48 -1h-17v-115q0 -88 72 -88v-21h-275v21q72 0 72 88v320q0 88 -72 88v22h220q268 0 268 -158q0 -96 -97 -132zM434 362q132 0 132 127t-132 127h-14v-254h14zM488 853
q132 0 244.5 -65.5t178 -178t65.5 -244.5t-65.5 -244.5t-178 -178t-244.5 -65.5t-244.5 65.5t-178 178t-65.5 244.5t65.5 244.5t178 178t244.5 65.5zM488 -91q189 0 323 133.5t134 322.5t-134 323t-323 134q-188 0 -322 -134t-134 -323t134 -322.5t322 -133.5z" />
    <glyph glyph-name="macron" unicode="&#xaf;" horiz-adv-x="315" 
d="M20 638h275v-40h-275v40z" />
    <glyph glyph-name="degree" unicode="&#xb0;" horiz-adv-x="358" 
d="M179 546q-66 0 -112.5 47t-46.5 113t46.5 112.5t112.5 46.5t112.5 -46.5t46.5 -112.5t-46.5 -113t-112.5 -47zM179 822q-48 0 -82 -34t-34 -82t34 -82t82 -34t82 34t34 82t-34 82t-82 34z" />
    <glyph glyph-name="plusminus" unicode="&#xb1;" horiz-adv-x="410" 
d="M225 448h165v-39h-165v-165h-40v165h-165v39h165v165h40v-165zM20 153v40h370v-40h-370z" />
    <glyph glyph-name="acute" unicode="&#xb4;" horiz-adv-x="183" 
d="M20 557q30 78 52 107q14 19 34 24t43 -13q17 -23 12.5 -42.5t-23.5 -34.5q-13 -10 -40 -22.5t-47 -20.5l-20 -8z" />
    <glyph glyph-name="paragraph" unicode="&#xb6;" horiz-adv-x="484" 
d="M474 700v-39h-79v-660q0 -120 -35.5 -184t-121.5 -68q-71 -3 -136.5 33t-70.5 104q-4 49 26 79.5t73 28.5q38 -1 58.5 -24.5t20.5 -50.5q-51 -11 -52 -65q-1 -31 20 -53t56 -23q123 -3 123 226v657h-89v-620h-39v203q-94 0 -161 67t-67 161q0 95 66.5 161.5t160.5 66.5
h247z" />
    <glyph glyph-name="cedilla" unicode="&#xb8;" horiz-adv-x="281" 
d="M80 -49q91 20 141 -10t37 -84q-22 -82 -131 -72q-34 3 -65.5 19.5t-41.5 30.5l5 13q14 -5 30 -7.5t37 -3t37.5 9t22.5 29.5q4 9 2.5 19t-6 18.5t-24 12.5t-51.5 0h-19l13 88l23 -2z" />
    <glyph glyph-name="guillemotright" unicode="&#xbb;" horiz-adv-x="410" 
d="M232 353v-11l-212 -146v20l137 132l-137 131v20zM178 499l212 -146v-11l-212 -146v20l137 132l-137 131v20z" />
    <glyph glyph-name="questiondown" unicode="&#xbf;" horiz-adv-x="468" 
d="M371 -73q53 -4 79.5 -44t12.5 -102q-14 -63 -76 -101.5t-145 -38.5q-66 0 -120.5 18t-89.5 61t-31 104q3 47 29.5 83.5t62 59.5t70.5 44.5t59 51t24 66.5h56q6 -54 -9.5 -98t-38.5 -68.5t-47.5 -60.5t-30.5 -73q-25 -145 77 -151q37 -2 60.5 18.5t28.5 56.5
q8 46 -12.5 68t-56.5 20q0 33 25.5 61t72.5 25zM262 176q-45 0 -73.5 26.5t-28.5 65.5q0 38 28.5 64.5t73.5 26.5q46 0 74.5 -26.5t28.5 -64.5q0 -39 -28.5 -65.5t-74.5 -26.5z" />
    <glyph glyph-name="Agrave" unicode="&#xc0;" horiz-adv-x="772" 
d="M762 0h-345v28q55 0 66 28t-14 87l-25 56h-243q-10 -25 -22 -56q-41 -115 77 -115v-28h-246v28q51 0 77.5 29t48.5 86l219 557h47l242 -557q2 -5 13.5 -29.5t14 -29.5t13.5 -21t19.5 -20.5t24 -9.5t33.5 -5v-28zM217 239h210l-111 252zM433 757l-10 -10q-78 29 -107 51
q-19 15 -24 34.5t13 42.5q23 18 42.5 13t34.5 -24q10 -13 22.5 -39.5t20.5 -46.5z" />
    <glyph glyph-name="Aacute" unicode="&#xc1;" horiz-adv-x="772" 
d="M762 0h-345v28q55 0 66 28t-14 87l-25 56h-243q-10 -25 -22 -56q-41 -115 77 -115v-28h-246v28q51 0 77.5 29t48.5 86l219 557h47l242 -557q2 -5 13.5 -29.5t14 -29.5t13.5 -21t19.5 -20.5t24 -9.5t33.5 -5v-28zM217 239h210l-111 252zM328 757q30 78 52 107q14 19 34 24
t43 -13q17 -23 12.5 -42.5t-23.5 -34.5q-13 -10 -40 -22.5t-47 -20.5l-20 -8z" />
    <glyph glyph-name="Acircumflex" unicode="&#xc2;" horiz-adv-x="772" 
d="M762 0h-345v28q55 0 66 28t-14 87l-25 56h-243q-10 -25 -22 -56q-41 -115 77 -115v-28h-246v28q51 0 77.5 29t48.5 86l219 557h47l242 -557q2 -5 13.5 -29.5t14 -29.5t13.5 -21t19.5 -20.5t24 -9.5t33.5 -5v-28zM217 239h210l-111 252zM416 879l103 -108l-9 -14l-131 58
l-131 -58l-9 14l103 108h74z" />
    <glyph glyph-name="Atilde" unicode="&#xc3;" horiz-adv-x="772" 
d="M762 0h-345v28q55 0 66 28t-14 87l-25 56h-243q-10 -25 -22 -56q-41 -115 77 -115v-28h-246v28q51 0 77.5 29t48.5 86l219 557h47l242 -557q2 -5 13.5 -29.5t14 -29.5t13.5 -21t19.5 -20.5t24 -9.5t33.5 -5v-28zM217 239h210l-111 252zM311 808q-26 0 -51 -27l-16 12
q10 22 15.5 31.5t17.5 25.5t26.5 22.5t32.5 6.5q30 -1 62 -22.5t43 -23.5q37 -7 57 27l15 -9q-26 -92 -81 -94q-28 -1 -64 25t-57 26z" />
    <glyph glyph-name="Adieresis" unicode="&#xc4;" horiz-adv-x="772" 
d="M762 0h-345v28q55 0 66 28t-14 87l-25 56h-243q-10 -25 -22 -56q-41 -115 77 -115v-28h-246v28q51 0 77.5 29t48.5 86l219 557h47l242 -557q2 -5 13.5 -29.5t14 -29.5t13.5 -21t19.5 -20.5t24 -9.5t33.5 -5v-28zM217 239h210l-111 252zM293 878q29 0 48 -17.5t19 -42.5
t-19 -42.5t-48 -17.5q-30 0 -49 17.5t-19 42.5t19 42.5t49 17.5zM464 878q30 0 49 -17.5t19 -42.5t-19 -42.5t-49 -17.5q-29 0 -48 17.5t-19 42.5t19 42.5t48 17.5z" />
    <glyph glyph-name="Aring" unicode="&#xc5;" horiz-adv-x="772" 
d="M762 0h-345v28q55 0 66 28t-14 87l-25 56h-243q-10 -25 -22 -56q-41 -115 77 -115v-28h-246v28q51 0 77.5 29t48.5 86l219 557h47l242 -557q2 -5 13.5 -29.5t14 -29.5t13.5 -21t19.5 -20.5t24 -9.5t33.5 -5v-28zM217 239h210l-111 252zM378 743q-32 0 -55 23.5t-23 55.5
t23 55.5t55 23.5q33 0 56 -23.5t23 -55.5t-23 -55.5t-56 -23.5zM378 865q-17 0 -30 -12.5t-13 -30.5t13 -30.5t30 -12.5q18 0 31 12.5t13 30.5t-13 30.5t-31 12.5z" />
    <glyph glyph-name="AE" unicode="&#xc6;" horiz-adv-x="1056" 
d="M1014 216h32l-16 -216h-616v27q94 0 94 115v57h-259l-36 -57q-72 -115 44 -115v-27h-247v27q52 0 89 30.5t70 84.5l267 426q16 26 23.5 43t8.5 32t-12.5 22t-41.5 7v28h581l15 -216h-31q-56 176 -166 176h-136v-290h14q33 0 48.5 1t38 7t32.5 19t19 37t12 61h27v-290h-27
q-3 37 -12 61t-19 37t-32.5 19t-38 7t-48.5 1h-14v-291h171q112 0 166 177zM274 238h234v371z" />
    <glyph glyph-name="Ccedilla" unicode="&#xc7;" horiz-adv-x="667" 
d="M620 220h27l-16 -229h-20q-7 26 -35.5 26t-87 -13t-100.5 -13h-6l-6 -40q91 20 141 -10t36 -84q-20 -82 -131 -73q-33 3 -64.5 20t-41.5 30l4 14q14 -5 30 -7.5t37.5 -3.5t37.5 8.5t22 29.5q4 9 2.5 19.5t-6 18.5t-24 12t-51.5 1h-19l10 66q-159 9 -259 109.5t-100 248.5
q0 156 103.5 257.5t276.5 101.5q42 0 100.5 -13t87 -13t35.5 26h20l16 -225h-27q-20 97 -75.5 145t-156.5 42q-91 -5 -143.5 -87.5t-52.5 -233.5q0 -150 56 -234t148 -88q190 -8 232 192z" />
    <glyph glyph-name="Egrave" unicode="&#xc8;" horiz-adv-x="662" 
d="M620 216h32l-16 -216h-616v27q94 0 94 115v415q0 115 -94 115v28h580l16 -216h-31q-56 176 -167 176h-135v-290h13q33 0 48.5 1t38 7t33 19t19.5 37t12 61h27v-290h-27q-3 37 -12 61t-19.5 37t-33 19t-38 7t-48.5 1h-13v-291h171q110 0 166 177zM393 757l-10 -10
q-78 29 -107 51q-19 15 -24 34.5t13 42.5q23 18 42.5 13t34.5 -24q10 -13 22.5 -39.5t20.5 -46.5z" />
    <glyph glyph-name="Eacute" unicode="&#xc9;" horiz-adv-x="662" 
d="M620 216h32l-16 -216h-616v27q94 0 94 115v415q0 115 -94 115v28h580l16 -216h-31q-56 176 -167 176h-135v-290h13q33 0 48.5 1t38 7t33 19t19.5 37t12 61h27v-290h-27q-3 37 -12 61t-19.5 37t-33 19t-38 7t-48.5 1h-13v-291h171q110 0 166 177zM258 757q30 78 52 107
q14 19 34 24t43 -13q17 -23 12.5 -42.5t-23.5 -34.5q-13 -10 -40 -22.5t-47 -20.5l-20 -8z" />
    <glyph glyph-name="Ecircumflex" unicode="&#xca;" horiz-adv-x="662" 
d="M620 216h32l-16 -216h-616v27q94 0 94 115v415q0 115 -94 115v28h580l16 -216h-31q-56 176 -167 176h-135v-290h13q33 0 48.5 1t38 7t33 19t19.5 37t12 61h27v-290h-27q-3 37 -12 61t-19.5 37t-33 19t-38 7t-48.5 1h-13v-291h171q110 0 166 177zM373 879l103 -108l-9 -14
l-131 58l-131 -58l-9 14l103 108h74z" />
    <glyph glyph-name="Edieresis" unicode="&#xcb;" horiz-adv-x="662" 
d="M620 216h32l-16 -216h-616v27q94 0 94 115v415q0 115 -94 115v28h580l16 -216h-31q-56 176 -167 176h-135v-290h13q33 0 48.5 1t38 7t33 19t19.5 37t12 61h27v-290h-27q-3 37 -12 61t-19.5 37t-33 19t-38 7t-48.5 1h-13v-291h171q110 0 166 177zM250 878q29 0 48 -17.5
t19 -42.5t-19 -42.5t-48 -17.5q-30 0 -49 17.5t-19 42.5t19 42.5t49 17.5zM421 878q30 0 49 -17.5t19 -42.5t-19 -42.5t-49 -17.5q-29 0 -48 17.5t-19 42.5t19 42.5t48 17.5z" />
    <glyph glyph-name="Igrave" unicode="&#xcc;" horiz-adv-x="398" 
d="M378 672q-94 0 -94 -115v-415q0 -115 94 -115v-27h-358v27q53 0 73.5 30.5t20.5 84.5v415q0 54 -20.5 84.5t-73.5 30.5v28h358v-28zM286 757l-10 -10q-78 29 -107 51q-19 15 -24 34.5t13 42.5q23 18 42.5 13t34.5 -24q10 -13 22.5 -39.5t20.5 -46.5z" />
    <glyph glyph-name="Iacute" unicode="&#xcd;" horiz-adv-x="398" 
d="M378 672q-94 0 -94 -115v-415q0 -115 94 -115v-27h-358v27q53 0 73.5 30.5t20.5 84.5v415q0 54 -20.5 84.5t-73.5 30.5v28h358v-28zM121 757q30 78 52 107q14 19 34 24t43 -13q17 -23 12.5 -42.5t-23.5 -34.5q-13 -10 -40 -22.5t-47 -20.5l-20 -8z" />
    <glyph glyph-name="Icircumflex" unicode="&#xce;" horiz-adv-x="398" 
d="M378 672q-94 0 -94 -115v-415q0 -115 94 -115v-27h-358v27q53 0 73.5 30.5t20.5 84.5v415q0 54 -20.5 84.5t-73.5 30.5v28h358v-28zM236 879l103 -108l-9 -14l-131 58l-131 -58l-9 14l103 108h74z" />
    <glyph glyph-name="Idieresis" unicode="&#xcf;" horiz-adv-x="398" 
d="M378 672q-94 0 -94 -115v-415q0 -115 94 -115v-27h-358v27q53 0 73.5 30.5t20.5 84.5v415q0 54 -20.5 84.5t-73.5 30.5v28h358v-28zM113 878q29 0 48 -17.5t19 -42.5t-19 -42.5t-48 -17.5q-30 0 -49 17.5t-19 42.5t19 42.5t49 17.5zM284 878q30 0 49 -17.5t19 -42.5
t-19 -42.5t-49 -17.5q-29 0 -48 17.5t-19 42.5t19 42.5t48 17.5z" />
    <glyph glyph-name="Eth" unicode="&#xd0;" horiz-adv-x="760" 
d="M329 700q209 0 320 -95t111 -255q0 -161 -111 -255.5t-320 -94.5h-309v27q53 0 73 30.5t20 84.5v188h-93v40h93v187q0 54 -20 84.5t-73 30.5v28h309zM325 39q258 0 258 311q0 160 -65.5 235t-192.5 75h-42v-290h178v-40h-178v-291h42z" />
    <glyph glyph-name="Ntilde" unicode="&#xd1;" horiz-adv-x="778" 
d="M530 700h228v-28q-56 0 -72.5 -24t-16.5 -91v-557h-61l-460 581v-439q0 -64 21.5 -89.5t78.5 -25.5v-27h-228v27q55 0 71.5 24t16.5 91v415q0 55 -18 85t-70 30v28h266l344 -428v285q0 65 -21.5 90t-78.5 25v28zM331 808q-26 0 -51 -27l-16 12q10 22 15.5 31.5t17.5 25.5
t26.5 22.5t32.5 6.5q30 -1 62 -22.5t43 -23.5q37 -7 57 27l15 -9q-26 -92 -81 -94q-28 -1 -64 25t-57 26z" />
    <glyph glyph-name="Ograve" unicode="&#xd2;" horiz-adv-x="737" 
d="M369 709q161 0 264.5 -102.5t103.5 -256.5q0 -155 -103.5 -257t-264.5 -102t-265 102t-104 257q0 154 104 256.5t265 102.5zM369 28q85 0 136.5 88t51.5 234t-51.5 233.5t-136.5 87.5q-86 0 -137.5 -88t-51.5 -233q0 -146 51.5 -234t137.5 -88zM456 757l-10 -10
q-78 29 -107 51q-19 15 -24 34.5t13 42.5q23 18 42.5 13t34.5 -24q10 -13 22.5 -39.5t20.5 -46.5z" />
    <glyph glyph-name="Oacute" unicode="&#xd3;" horiz-adv-x="737" 
d="M369 709q161 0 264.5 -102.5t103.5 -256.5q0 -155 -103.5 -257t-264.5 -102t-265 102t-104 257q0 154 104 256.5t265 102.5zM369 28q85 0 136.5 88t51.5 234t-51.5 233.5t-136.5 87.5q-86 0 -137.5 -88t-51.5 -233q0 -146 51.5 -234t137.5 -88zM280 757q30 78 52 107
q14 19 34 24t43 -13q17 -23 12.5 -42.5t-23.5 -34.5q-13 -10 -40 -22.5t-47 -20.5l-20 -8z" />
    <glyph glyph-name="Ocircumflex" unicode="&#xd4;" horiz-adv-x="737" 
d="M369 709q161 0 264.5 -102.5t103.5 -256.5q0 -155 -103.5 -257t-264.5 -102t-265 102t-104 257q0 154 104 256.5t265 102.5zM369 28q85 0 136.5 88t51.5 234t-51.5 233.5t-136.5 87.5q-86 0 -137.5 -88t-51.5 -233q0 -146 51.5 -234t137.5 -88zM405 879l103 -108l-9 -14
l-131 58l-131 -58l-9 14l103 108h74z" />
    <glyph glyph-name="Otilde" unicode="&#xd5;" horiz-adv-x="737" 
d="M369 709q161 0 264.5 -102.5t103.5 -256.5q0 -155 -103.5 -257t-264.5 -102t-265 102t-104 257q0 154 104 256.5t265 102.5zM369 28q85 0 136.5 88t51.5 234t-51.5 233.5t-136.5 87.5q-86 0 -137.5 -88t-51.5 -233q0 -146 51.5 -234t137.5 -88zM301 808q-26 0 -51 -27
l-16 12q10 22 15.5 31.5t17.5 25.5t26.5 22.5t32.5 6.5q30 -1 62 -22.5t43 -23.5q37 -7 57 27l15 -9q-26 -92 -81 -94q-28 -1 -64 25t-57 26z" />
    <glyph glyph-name="Odieresis" unicode="&#xd6;" horiz-adv-x="737" 
d="M369 709q161 0 264.5 -102.5t103.5 -256.5q0 -155 -103.5 -257t-264.5 -102t-265 102t-104 257q0 154 104 256.5t265 102.5zM369 28q85 0 136.5 88t51.5 234t-51.5 233.5t-136.5 87.5q-86 0 -137.5 -88t-51.5 -233q0 -146 51.5 -234t137.5 -88zM283 878q29 0 48 -17.5
t19 -42.5t-19 -42.5t-48 -17.5q-30 0 -49 17.5t-19 42.5t19 42.5t49 17.5zM454 878q30 0 49 -17.5t19 -42.5t-19 -42.5t-49 -17.5q-29 0 -48 17.5t-19 42.5t19 42.5t48 17.5z" />
    <glyph glyph-name="multiply" unicode="&#xd7;" horiz-adv-x="329" 
d="M309 466l-116 -116l116 -117l-27 -28l-117 117l-117 -117l-28 28l117 117l-117 116l28 28l117 -116l117 116z" />
    <glyph glyph-name="Oslash" unicode="&#xd8;" horiz-adv-x="737" 
d="M609 628q61 -49 94.5 -121t33.5 -157q0 -155 -103.5 -257t-264.5 -102q-119 0 -210 58l-38 -49h-48l56 71q-129 104 -129 279q0 154 104 256.5t265 102.5q118 0 210 -59l38 49h47zM180 350q0 -100 27 -178l307 395q-52 104 -145 104q-86 0 -137.5 -88t-51.5 -233zM369 28
q85 0 136.5 88t51.5 234q0 103 -26 178l-308 -396q52 -104 146 -104z" />
    <glyph glyph-name="Ugrave" unicode="&#xd9;" horiz-adv-x="792" 
d="M555 700h217v-28q-56 0 -72.5 -24t-16.5 -91v-255q0 -66 -13 -120t-41.5 -98t-79.5 -68.5t-122 -24.5q-140 0 -227 81.5t-87 227.5v257q0 54 -20 84.5t-73 30.5v28h357v-28q-94 0 -94 -115v-257q0 -121 45 -186.5t136 -65.5q82 0 131 61t49 195v253q0 67 -16.5 91
t-72.5 24v28zM533 757l-10 -10q-78 29 -107 51q-19 15 -24 34.5t13 42.5q23 18 42.5 13t34.5 -24q10 -13 22.5 -39.5t20.5 -46.5z" />
    <glyph glyph-name="Uacute" unicode="&#xda;" horiz-adv-x="792" 
d="M555 700h217v-28q-56 0 -72.5 -24t-16.5 -91v-255q0 -66 -13 -120t-41.5 -98t-79.5 -68.5t-122 -24.5q-140 0 -227 81.5t-87 227.5v257q0 54 -20 84.5t-73 30.5v28h357v-28q-94 0 -94 -115v-257q0 -121 45 -186.5t136 -65.5q82 0 131 61t49 195v253q0 67 -16.5 91
t-72.5 24v28zM378 757q30 78 52 107q14 19 34 24t43 -13q17 -23 12.5 -42.5t-23.5 -34.5q-13 -10 -40 -22.5t-47 -20.5l-20 -8z" />
    <glyph glyph-name="Ucircumflex" unicode="&#xdb;" horiz-adv-x="792" 
d="M555 700h217v-28q-56 0 -72.5 -24t-16.5 -91v-255q0 -66 -13 -120t-41.5 -98t-79.5 -68.5t-122 -24.5q-140 0 -227 81.5t-87 227.5v257q0 54 -20 84.5t-73 30.5v28h357v-28q-94 0 -94 -115v-257q0 -121 45 -186.5t136 -65.5q82 0 131 61t49 195v253q0 67 -16.5 91
t-72.5 24v28zM473 879l103 -108l-9 -14l-131 58l-131 -58l-9 14l103 108h74z" />
    <glyph glyph-name="Udieresis" unicode="&#xdc;" horiz-adv-x="792" 
d="M555 700h217v-28q-56 0 -72.5 -24t-16.5 -91v-255q0 -66 -13 -120t-41.5 -98t-79.5 -68.5t-122 -24.5q-140 0 -227 81.5t-87 227.5v257q0 54 -20 84.5t-73 30.5v28h357v-28q-94 0 -94 -115v-257q0 -121 45 -186.5t136 -65.5q82 0 131 61t49 195v253q0 67 -16.5 91
t-72.5 24v28zM350 878q29 0 48 -17.5t19 -42.5t-19 -42.5t-48 -17.5q-30 0 -49 17.5t-19 42.5t19 42.5t49 17.5zM521 878q30 0 49 -17.5t19 -42.5t-19 -42.5t-49 -17.5q-29 0 -48 17.5t-19 42.5t19 42.5t48 17.5z" />
    <glyph glyph-name="Yacute" unicode="&#xdd;" horiz-adv-x="750" 
d="M513 700h227v-28q-37 0 -64.5 -29.5t-59.5 -85.5l-141 -258v-157q0 -115 94 -115v-27h-354v27q53 0 73.5 30.5t20.5 84.5v123l-177 292q-37 57 -64.5 86t-57.5 29v28h345v-28q-53 0 -66.5 -28t18.5 -87l135 -235l130 235q29 53 14 84t-73 31v28zM357 757q30 78 52 107
q14 19 34 24t43 -13q17 -23 12.5 -42.5t-23.5 -34.5q-13 -10 -40 -22.5t-47 -20.5l-20 -8z" />
    <glyph glyph-name="Thorn" unicode="&#xde;" horiz-adv-x="639" 
d="M639 350q0 -106 -84.5 -161.5t-252.5 -55.5h-18q2 -106 93 -106v-27h-357v27q94 0 94 115v415q0 115 -94 115v28h357v-28q-91 0 -93 -106h18q168 0 252.5 -55t84.5 -161zM284 173h14q164 0 164 177t-164 177h-14v-354z" />
    <glyph glyph-name="germandbls" unicode="&#xdf;" horiz-adv-x="748" 
d="M418 447q1 -18 34.5 -38.5t80.5 -43.5t94 -51t79 -69.5t31 -89.5q-2 -91 -70.5 -132t-172.5 -31q-81 7 -138 47.5t-64 104.5q-7 61 25 93.5t83 27.5q44 -3 69 -34t25 -64q-34 3 -54.5 -13.5t-14.5 -58.5q6 -57 73 -67q39 -5 61 15t27 57q6 40 -17 75t-61 60.5t-76.5 49
t-68 52t-31.5 58.5q-2 24 7 43t23 32.5t28.5 27t26.5 33.5t15 45q5 42 -21.5 69t-74.5 27q-52 0 -80.5 -30t-16.5 -75q3 -12 9 -32t9.5 -32.5t6.5 -32t3 -38.5v-432h-247v27q52 0 69 29.5t17 85.5v272h-84v40h84v5q0 112 59 181t171 69q104 0 164 -40.5t51 -95.5
q-6 -32 -28 -52.5t-45.5 -28t-41.5 -19t-18 -26.5z" />
    <glyph glyph-name="agrave" unicode="&#xe0;" horiz-adv-x="576" 
d="M558 52q1 -3 2.5 -6.5t2 -5l1.5 -4.5l2 -6q-33 -39 -105 -39q-46 0 -84 16.5t-48 49.5q-43 -66 -141 -66q-68 0 -116.5 24.5t-58.5 75.5q-11 59 23 103.5t118 61.5q23 5 51.5 8t43 4.5t28 7t17.5 17t1 31.5q-18 104 -77 104q-46 4 -64.5 -30.5t11.5 -58.5
q-17 -30 -45 -37.5t-48 4.5q-44 22 -23 76q16 44 65 62.5t103 18.5q119 0 174.5 -41.5t69.5 -137.5l19 -141q13 -76 22 -88q18 -21 56 -3zM259 53q63 15 58 102q-5 61 -11 98q-6 -12 -18.5 -18t-51.5 -17q-34 -10 -52.5 -37t-13.5 -64q5 -34 32.5 -53t56.5 -11zM330 507
l-10 -10q-78 29 -107 51q-19 15 -24 34.5t13 42.5q23 18 42.5 13t34.5 -24q10 -13 22.5 -39.5t20.5 -46.5z" />
    <glyph glyph-name="aacute" unicode="&#xe1;" horiz-adv-x="576" 
d="M558 52q1 -3 2.5 -6.5t2 -5l1.5 -4.5l2 -6q-33 -39 -105 -39q-46 0 -84 16.5t-48 49.5q-43 -66 -141 -66q-68 0 -116.5 24.5t-58.5 75.5q-11 59 23 103.5t118 61.5q23 5 51.5 8t43 4.5t28 7t17.5 17t1 31.5q-18 104 -77 104q-46 4 -64.5 -30.5t11.5 -58.5
q-17 -30 -45 -37.5t-48 4.5q-44 22 -23 76q16 44 65 62.5t103 18.5q119 0 174.5 -41.5t69.5 -137.5l19 -141q13 -76 22 -88q18 -21 56 -3zM259 53q63 15 58 102q-5 61 -11 98q-6 -12 -18.5 -18t-51.5 -17q-34 -10 -52.5 -37t-13.5 -64q5 -34 32.5 -53t56.5 -11zM114 507
q30 78 52 107q14 19 34 24t43 -13q17 -23 12.5 -42.5t-23.5 -34.5q-13 -10 -40 -22.5t-47 -20.5l-20 -8z" />
    <glyph glyph-name="acircumflex" unicode="&#xe2;" horiz-adv-x="576" 
d="M558 52q1 -3 2.5 -6.5t2 -5l1.5 -4.5l2 -6q-33 -39 -105 -39q-46 0 -84 16.5t-48 49.5q-43 -66 -141 -66q-68 0 -116.5 24.5t-58.5 75.5q-11 59 23 103.5t118 61.5q23 5 51.5 8t43 4.5t28 7t17.5 17t1 31.5q-18 104 -77 104q-46 4 -64.5 -30.5t11.5 -58.5
q-17 -30 -45 -37.5t-48 4.5q-44 22 -23 76q16 44 65 62.5t103 18.5q119 0 174.5 -41.5t69.5 -137.5l19 -141q13 -76 22 -88q18 -21 56 -3zM259 53q63 15 58 102q-5 61 -11 98q-6 -12 -18.5 -18t-51.5 -17q-34 -10 -52.5 -37t-13.5 -64q5 -34 32.5 -53t56.5 -11zM259 629
l103 -108l-9 -14l-131 58l-131 -58l-9 14l103 108h74z" />
    <glyph glyph-name="atilde" unicode="&#xe3;" horiz-adv-x="576" 
d="M558 52q1 -3 2.5 -6.5t2 -5l1.5 -4.5l2 -6q-33 -39 -105 -39q-46 0 -84 16.5t-48 49.5q-43 -66 -141 -66q-68 0 -116.5 24.5t-58.5 75.5q-11 59 23 103.5t118 61.5q23 5 51.5 8t43 4.5t28 7t17.5 17t1 31.5q-18 104 -77 104q-46 4 -64.5 -30.5t11.5 -58.5
q-17 -30 -45 -37.5t-48 4.5q-44 22 -23 76q16 44 65 62.5t103 18.5q119 0 174.5 -41.5t69.5 -137.5l19 -141q13 -76 22 -88q18 -21 56 -3zM259 53q63 15 58 102q-5 61 -11 98q-6 -12 -18.5 -18t-51.5 -17q-34 -10 -52.5 -37t-13.5 -64q5 -34 32.5 -53t56.5 -11zM155 558
q-26 0 -51 -27l-16 12q10 22 15.5 31.5t17.5 25.5t26.5 22.5t32.5 6.5q30 -1 62 -22.5t43 -23.5q37 -7 57 27l15 -9q-26 -92 -81 -94q-28 -1 -64 25t-57 26z" />
    <glyph glyph-name="adieresis" unicode="&#xe4;" horiz-adv-x="576" 
d="M558 52q1 -3 2.5 -6.5t2 -5l1.5 -4.5l2 -6q-33 -39 -105 -39q-46 0 -84 16.5t-48 49.5q-43 -66 -141 -66q-68 0 -116.5 24.5t-58.5 75.5q-11 59 23 103.5t118 61.5q23 5 51.5 8t43 4.5t28 7t17.5 17t1 31.5q-18 104 -77 104q-46 4 -64.5 -30.5t11.5 -58.5
q-17 -30 -45 -37.5t-48 4.5q-44 22 -23 76q16 44 65 62.5t103 18.5q119 0 174.5 -41.5t69.5 -137.5l19 -141q13 -76 22 -88q18 -21 56 -3zM259 53q63 15 58 102q-5 61 -11 98q-6 -12 -18.5 -18t-51.5 -17q-34 -10 -52.5 -37t-13.5 -64q5 -34 32.5 -53t56.5 -11zM147 628
q29 0 48 -17.5t19 -42.5t-19 -42.5t-48 -17.5q-30 0 -49 17.5t-19 42.5t19 42.5t49 17.5zM318 628q30 0 49 -17.5t19 -42.5t-19 -42.5t-49 -17.5q-29 0 -48 17.5t-19 42.5t19 42.5t48 17.5z" />
    <glyph glyph-name="aring" unicode="&#xe5;" horiz-adv-x="576" 
d="M558 52q1 -3 2.5 -6.5t2 -5l1.5 -4.5l2 -6q-33 -39 -105 -39q-46 0 -84 16.5t-48 49.5q-43 -66 -141 -66q-68 0 -116.5 24.5t-58.5 75.5q-11 59 23 103.5t118 61.5q23 5 51.5 8t43 4.5t28 7t17.5 17t1 31.5q-18 104 -77 104q-46 4 -64.5 -30.5t11.5 -58.5
q-17 -30 -45 -37.5t-48 4.5q-44 22 -23 76q16 44 65 62.5t103 18.5q119 0 174.5 -41.5t69.5 -137.5l19 -141q13 -76 22 -88q18 -21 56 -3zM259 53q63 15 58 102q-5 61 -11 98q-6 -12 -18.5 -18t-51.5 -17q-34 -10 -52.5 -37t-13.5 -64q5 -34 32.5 -53t56.5 -11zM222 493
q-32 0 -55 23.5t-23 55.5t23 55.5t55 23.5q33 0 56 -23.5t23 -55.5t-23 -55.5t-56 -23.5zM222 615q-17 0 -30 -12.5t-13 -30.5t13 -30.5t30 -12.5q18 0 31 12.5t13 30.5t-13 30.5t-31 12.5z" />
    <glyph glyph-name="ae" unicode="&#xe6;" horiz-adv-x="818" 
d="M791 157q17 -13 17 -14q-28 -65 -85.5 -108.5t-142.5 -43.5q-77 0 -137 32t-93 86q-22 -118 -162 -118q-156 0 -175 100q-11 59 23 103.5t119 61.5q23 5 51.5 8t42.5 4.5t28 7t17.5 17t0.5 31.5q-18 104 -76 104q-30 2 -50.5 -14t-20.5 -36.5t17 -38.5
q-16 -30 -44.5 -37.5t-47.5 4.5q-44 22 -24 76q17 44 65.5 62.5t102.5 18.5q132 0 187 -52q70 52 172 52q103 0 163 -53.5t56 -150.5l-309 -52q12 -62 69 -91t125 -17.5t111 58.5zM260 53q64 16 57 102q-2 27 -10 98q-7 -12 -19.5 -18.5t-50.5 -16.5q-34 -10 -53 -37
t-13 -64q4 -34 32 -53t57 -11zM558 427q-46 -4 -66.5 -55.5t-10.5 -125.5l163 28q4 76 -16.5 116.5t-69.5 36.5z" />
    <glyph glyph-name="ccedilla" unicode="&#xe7;" 
d="M263 -9q-12 0 -34 2l-7 -42q91 20 141 -10t37 -84q-22 -82 -131 -73q-34 3 -65.5 20t-41.5 30l5 14q20 -7 42 -10.5t50 4.5t35 33q4 9 2.5 19.5t-6 18.5t-24 12t-51.5 1h-19l10 70q-88 15 -143 72t-61 136q-10 117 65 188t192 71q100 0 148.5 -33.5t55.5 -83.5
q9 -71 -44 -98q-27 -15 -62.5 -3.5t-62.5 48.5q26 21 29 54.5t-19 58t-63 21.5q-40 -4 -63.5 -45.5t-20.5 -108.5q7 -160 152 -176q100 -10 165 61l17 -14q-29 -65 -86 -109t-142 -44z" />
    <glyph glyph-name="egrave" unicode="&#xe8;" 
d="M474 157q17 -13 17 -14q-28 -65 -85.5 -108.5t-142.5 -43.5q-110 0 -181.5 62t-79.5 155q-10 117 65 186t192 69q103 0 163 -53.5t56 -150.5l-309 -52q11 -62 68.5 -91t125.5 -17.5t111 58.5zM241 427q-46 -4 -66.5 -55.5t-11.5 -125.5l164 28q4 76 -16.5 116.5
t-69.5 36.5zM323 507l-10 -10q-78 29 -107 51q-19 15 -24 34.5t13 42.5q23 18 42.5 13t34.5 -24q10 -13 22.5 -39.5t20.5 -46.5z" />
    <glyph glyph-name="eacute" unicode="&#xe9;" 
d="M474 157q17 -13 17 -14q-28 -65 -85.5 -108.5t-142.5 -43.5q-110 0 -181.5 62t-79.5 155q-10 117 65 186t192 69q103 0 163 -53.5t56 -150.5l-309 -52q11 -62 68.5 -91t125.5 -17.5t111 58.5zM241 427q-46 -4 -66.5 -55.5t-11.5 -125.5l164 28q4 76 -16.5 116.5
t-69.5 36.5zM167 507q30 78 52 107q14 19 34 24t43 -13q17 -23 12.5 -42.5t-23.5 -34.5q-13 -10 -40 -22.5t-47 -20.5l-20 -8z" />
    <glyph glyph-name="ecircumflex" unicode="&#xea;" 
d="M474 157q17 -13 17 -14q-28 -65 -85.5 -108.5t-142.5 -43.5q-110 0 -181.5 62t-79.5 155q-10 117 65 186t192 69q103 0 163 -53.5t56 -150.5l-309 -52q11 -62 68.5 -91t125.5 -17.5t111 58.5zM241 427q-46 -4 -66.5 -55.5t-11.5 -125.5l164 28q4 76 -16.5 116.5
t-69.5 36.5zM282 629l103 -108l-9 -14l-131 58l-131 -58l-9 14l103 108h74z" />
    <glyph glyph-name="edieresis" unicode="&#xeb;" 
d="M474 157q17 -13 17 -14q-28 -65 -85.5 -108.5t-142.5 -43.5q-110 0 -181.5 62t-79.5 155q-10 117 65 186t192 69q103 0 163 -53.5t56 -150.5l-309 -52q11 -62 68.5 -91t125.5 -17.5t111 58.5zM241 427q-46 -4 -66.5 -55.5t-11.5 -125.5l164 28q4 76 -16.5 116.5
t-69.5 36.5zM160 628q29 0 48 -17.5t19 -42.5t-19 -42.5t-48 -17.5q-30 0 -49 17.5t-19 42.5t19 42.5t49 17.5zM331 628q30 0 49 -17.5t19 -42.5t-19 -42.5t-49 -17.5q-29 0 -48 17.5t-19 42.5t19 42.5t48 17.5z" />
    <glyph glyph-name="igrave" unicode="&#xec;" horiz-adv-x="360" 
d="M267 142q0 -28 2.5 -45.5t10 -35t25 -26t45.5 -8.5v-27h-330v27q52 0 69 29.5t17 85.5v101q0 56 -17 85.5t-69 29.5v27q50 0 114.5 20.5t105.5 57.5h27v-321zM262 507l-10 -10q-78 29 -107 51q-19 15 -24 34.5t13 42.5q23 18 42.5 13t34.5 -24q10 -13 22.5 -39.5
t20.5 -46.5z" />
    <glyph glyph-name="iacute" unicode="&#xed;" horiz-adv-x="360" 
d="M267 142q0 -28 2.5 -45.5t10 -35t25 -26t45.5 -8.5v-27h-330v27q52 0 69 29.5t17 85.5v101q0 56 -17 85.5t-69 29.5v27q50 0 114.5 20.5t105.5 57.5h27v-321zM107 507q30 78 52 107q14 19 34 24t43 -13q17 -23 12.5 -42.5t-23.5 -34.5q-13 -10 -40 -22.5t-47 -20.5
l-20 -8z" />
    <glyph glyph-name="icircumflex" unicode="&#xee;" horiz-adv-x="360" 
d="M267 142q0 -28 2.5 -45.5t10 -35t25 -26t45.5 -8.5v-27h-330v27q52 0 69 29.5t17 85.5v101q0 56 -17 85.5t-69 29.5v27q50 0 114.5 20.5t105.5 57.5h27v-321zM222 629l103 -108l-9 -14l-131 58l-131 -58l-9 14l103 108h74z" />
    <glyph glyph-name="idieresis" unicode="&#xef;" horiz-adv-x="360" 
d="M267 142q0 -28 2.5 -45.5t10 -35t25 -26t45.5 -8.5v-27h-330v27q52 0 69 29.5t17 85.5v101q0 56 -17 85.5t-69 29.5v27q50 0 114.5 20.5t105.5 57.5h27v-321zM99 628q29 0 48 -17.5t19 -42.5t-19 -42.5t-48 -17.5q-30 0 -49 17.5t-19 42.5t19 42.5t49 17.5zM270 628
q30 0 49 -17.5t19 -42.5t-19 -42.5t-49 -17.5q-29 0 -48 17.5t-19 42.5t19 42.5t48 17.5z" />
    <glyph glyph-name="eth" unicode="&#xf0;" horiz-adv-x="547" 
d="M370 612q79 -59 118 -152.5t25 -215.5q-14 -120 -83 -186.5t-180 -66.5q-115 0 -185 67.5t-74 173.5q-4 111 63.5 176t186.5 55q63 -5 94 -39q-15 88 -57 144l-126 -61l-12 35l114 54q-60 57 -162 76v28q135 0 244 -65l125 57l12 -32zM286 34q41 8 55 62.5t-2 144.5
q-15 88 -49.5 137t-74.5 44q-38 -5 -55 -65.5t-2 -149.5q15 -86 52.5 -133.5t75.5 -39.5z" />
    <glyph glyph-name="ntilde" unicode="&#xf1;" horiz-adv-x="718" 
d="M618 142q3 -25 5 -35.5t8 -29.5t14.5 -27.5t24.5 -15.5t38 -7v-27h-321v27q36 0 53.5 16.5t18.5 42t-2 56.5q-14 91 -20 128q-4 25 -6 35.5t-8 29t-14 26.5t-22.5 15t-34.5 7q-43 0 -64 -33t-21 -87v-121q0 -57 15 -86t67 -29v-27h-329v27q52 0 69 29.5t17 85.5v101
q0 56 -17 85.5t-69 29.5v27q49 0 113.5 20.5t106.5 57.5h27v-78q56 78 159 78q76 0 118 -43t55 -137zM296 558q-26 0 -51 -27l-16 12q10 22 15.5 31.5t17.5 25.5t26.5 22.5t32.5 6.5q30 -1 62 -22.5t43 -23.5q37 -7 57 27l15 -9q-26 -92 -81 -94q-28 -1 -64 25t-57 26z" />
    <glyph glyph-name="ograve" unicode="&#xf2;" horiz-adv-x="529" 
d="M260 463q113 0 186 -65.5t73 -170.5t-73 -170.5t-186 -65.5q-114 0 -187 65.5t-73 170.5t73 170.5t187 65.5zM294 30q45 8 61 66t0 148q-16 91 -50.5 139.5t-79.5 40.5t-60.5 -66t0.5 -148t50 -138.5t79 -41.5zM337 507l-10 -10q-78 29 -107 51q-19 15 -24 34.5t13 42.5
q23 18 42.5 13t34.5 -24q10 -13 22.5 -39.5t20.5 -46.5z" />
    <glyph glyph-name="oacute" unicode="&#xf3;" horiz-adv-x="529" 
d="M260 463q113 0 186 -65.5t73 -170.5t-73 -170.5t-186 -65.5q-114 0 -187 65.5t-73 170.5t73 170.5t187 65.5zM294 30q45 8 61 66t0 148q-16 91 -50.5 139.5t-79.5 40.5t-60.5 -66t0.5 -148t50 -138.5t79 -41.5zM161 507q30 78 52 107q14 19 34 24t43 -13
q17 -23 12.5 -42.5t-23.5 -34.5q-13 -10 -40 -22.5t-47 -20.5l-20 -8z" />
    <glyph glyph-name="ocircumflex" unicode="&#xf4;" horiz-adv-x="529" 
d="M260 463q113 0 186 -65.5t73 -170.5t-73 -170.5t-186 -65.5q-114 0 -187 65.5t-73 170.5t73 170.5t187 65.5zM294 30q45 8 61 66t0 148q-16 91 -50.5 139.5t-79.5 40.5t-60.5 -66t0.5 -148t50 -138.5t79 -41.5zM296 629l103 -108l-9 -14l-131 58l-131 -58l-9 14l103 108
h74z" />
    <glyph glyph-name="otilde" unicode="&#xf5;" horiz-adv-x="529" 
d="M260 463q113 0 186 -65.5t73 -170.5t-73 -170.5t-186 -65.5q-114 0 -187 65.5t-73 170.5t73 170.5t187 65.5zM294 30q45 8 61 66t0 148q-16 91 -50.5 139.5t-79.5 40.5t-60.5 -66t0.5 -148t50 -138.5t79 -41.5zM192 558q-26 0 -51 -27l-16 12q10 22 15.5 31.5t17.5 25.5
t26.5 22.5t32.5 6.5q30 -1 62 -22.5t43 -23.5q37 -7 57 27l15 -9q-26 -92 -81 -94q-28 -1 -64 25t-57 26z" />
    <glyph glyph-name="odieresis" unicode="&#xf6;" horiz-adv-x="529" 
d="M260 463q113 0 186 -65.5t73 -170.5t-73 -170.5t-186 -65.5q-114 0 -187 65.5t-73 170.5t73 170.5t187 65.5zM294 30q45 8 61 66t0 148q-16 91 -50.5 139.5t-79.5 40.5t-60.5 -66t0.5 -148t50 -138.5t79 -41.5zM174 628q29 0 48 -17.5t19 -42.5t-19 -42.5t-48 -17.5
q-30 0 -49 17.5t-19 42.5t19 42.5t49 17.5zM345 628q30 0 49 -17.5t19 -42.5t-19 -42.5t-49 -17.5q-29 0 -48 17.5t-19 42.5t19 42.5t48 17.5z" />
    <glyph glyph-name="divide" unicode="&#xf7;" horiz-adv-x="409" 
d="M20 369h369v-39h-369v39zM204 444q-45 0 -73.5 26.5t-28.5 65.5t28.5 65t73.5 26q46 0 74.5 -26t28.5 -65t-28.5 -65.5t-74.5 -26.5zM204 255q46 0 74.5 -26.5t28.5 -65.5t-28.5 -65t-74.5 -26q-45 0 -73.5 26t-28.5 65t28.5 65.5t73.5 26.5z" />
    <glyph glyph-name="oslash" unicode="&#xf8;" horiz-adv-x="529" 
d="M445 399q74 -66 74 -172q0 -105 -73 -170.5t-186 -65.5q-92 0 -157 43l-32 -34h-48l52 55q-75 65 -75 172q0 105 73 170.5t187 65.5q91 0 157 -43l32 33h47zM165 210q5 -31 10 -48l157 167q-40 107 -107 95q-45 -8 -60.5 -66t0.5 -148zM294 30q45 8 61 66t0 148
q-4 22 -11 47l-157 -167q42 -106 107 -94z" />
    <glyph glyph-name="ugrave" unicode="&#xf9;" horiz-adv-x="625" 
d="M598 75l17 -10q-35 -74 -115 -74q-106 0 -125 80q-54 -80 -158 -80q-79 0 -125.5 43.5t-47.5 133.5v75q0 27 -0.5 37.5t-4 29.5t-10.5 26.5t-22 14.5t-37 7v27q48 0 107 20.5t101 57.5h27v-279q0 -112 85 -112q81 0 81 119v52q0 27 -0.5 37.5t-4 29.5t-10.5 26.5
t-22 14.5t-37 7v27q48 0 107 20.5t102 57.5h27v-320q0 -43 4.5 -63.5t20.5 -25.5q24 -7 40 21zM370 507l-10 -10q-78 29 -107 51q-19 15 -24 34.5t13 42.5q23 18 42.5 13t34.5 -24q10 -13 22.5 -39.5t20.5 -46.5z" />
    <glyph glyph-name="uacute" unicode="&#xfa;" horiz-adv-x="625" 
d="M598 75l17 -10q-35 -74 -115 -74q-106 0 -125 80q-54 -80 -158 -80q-79 0 -125.5 43.5t-47.5 133.5v75q0 27 -0.5 37.5t-4 29.5t-10.5 26.5t-22 14.5t-37 7v27q48 0 107 20.5t101 57.5h27v-279q0 -112 85 -112q81 0 81 119v52q0 27 -0.5 37.5t-4 29.5t-10.5 26.5
t-22 14.5t-37 7v27q48 0 107 20.5t102 57.5h27v-320q0 -43 4.5 -63.5t20.5 -25.5q24 -7 40 21zM194 507q30 78 52 107q14 19 34 24t43 -13q17 -23 12.5 -42.5t-23.5 -34.5q-13 -10 -40 -22.5t-47 -20.5l-20 -8z" />
    <glyph glyph-name="ucircumflex" unicode="&#xfb;" horiz-adv-x="625" 
d="M598 75l17 -10q-35 -74 -115 -74q-106 0 -125 80q-54 -80 -158 -80q-79 0 -125.5 43.5t-47.5 133.5v75q0 27 -0.5 37.5t-4 29.5t-10.5 26.5t-22 14.5t-37 7v27q48 0 107 20.5t101 57.5h27v-279q0 -112 85 -112q81 0 81 119v52q0 27 -0.5 37.5t-4 29.5t-10.5 26.5
t-22 14.5t-37 7v27q48 0 107 20.5t102 57.5h27v-320q0 -43 4.5 -63.5t20.5 -25.5q24 -7 40 21zM329 629l103 -108l-9 -14l-131 58l-131 -58l-9 14l103 108h74z" />
    <glyph glyph-name="udieresis" unicode="&#xfc;" horiz-adv-x="625" 
d="M598 75l17 -10q-35 -74 -115 -74q-106 0 -125 80q-54 -80 -158 -80q-79 0 -125.5 43.5t-47.5 133.5v75q0 27 -0.5 37.5t-4 29.5t-10.5 26.5t-22 14.5t-37 7v27q48 0 107 20.5t101 57.5h27v-279q0 -112 85 -112q81 0 81 119v52q0 27 -0.5 37.5t-4 29.5t-10.5 26.5
t-22 14.5t-37 7v27q48 0 107 20.5t102 57.5h27v-320q0 -43 4.5 -63.5t20.5 -25.5q24 -7 40 21zM207 628q29 0 48 -17.5t19 -42.5t-19 -42.5t-48 -17.5q-30 0 -49 17.5t-19 42.5t19 42.5t49 17.5zM378 628q30 0 49 -17.5t19 -42.5t-19 -42.5t-49 -17.5q-29 0 -48 17.5
t-19 42.5t19 42.5t48 17.5z" />
    <glyph glyph-name="yacute" unicode="&#xfd;" horiz-adv-x="525" 
d="M359 453h176v-27q-35 0 -54.5 -16t-32.5 -49l-145 -361q-14 -35 -19 -48.5t-20 -47t-25 -50t-27.5 -41.5t-33 -37t-37 -21.5t-43.5 -9.5q-29 0 -53.5 13t-34.5 38q-15 40 4 74t48 48q27 -49 89 -44q70 8 115 117l-196 386q-27 49 -80 49v27h292v-27q-34 0 -42 -14t6 -51
l89 -192l77 192q13 27 7.5 41.5t-19 19t-41.5 4.5v27zM214 507q30 78 52 107q14 19 34 24t43 -13q17 -23 12.5 -42.5t-23.5 -34.5q-13 -10 -40 -22.5t-47 -20.5l-20 -8z" />
    <glyph glyph-name="thorn" unicode="&#xfe;" horiz-adv-x="623" 
d="M354 463q110 15 184.5 -56t74.5 -180q0 -110 -70.5 -181t-180.5 -55q-67 9 -115 61v-146q0 -115 102 -115v-28h-349v28q52 0 69 29.5t17 85.5v573q0 56 -17 85.5t-69 29.5v28q50 0 114.5 20.5t105.5 57.5h27v-289q45 44 107 52zM388 26q45 8 61 66t0 148
q-16 91 -50.5 139t-79.5 41q-45 -8 -60.5 -66t0.5 -148q16 -91 50 -139t79 -41z" />
    <glyph glyph-name="ydieresis" unicode="&#xff;" horiz-adv-x="525" 
d="M359 453h176v-27q-35 0 -54.5 -16t-32.5 -49l-145 -361q-14 -35 -19 -48.5t-20 -47t-25 -50t-27.5 -41.5t-33 -37t-37 -21.5t-43.5 -9.5q-29 0 -53.5 13t-34.5 38q-15 40 4 74t48 48q27 -49 89 -44q70 8 115 117l-196 386q-27 49 -80 49v27h292v-27q-34 0 -42 -14t6 -51
l89 -192l77 192q13 27 7.5 41.5t-19 19t-41.5 4.5v27zM227 628q29 0 48 -17.5t19 -42.5t-19 -42.5t-48 -17.5q-30 0 -49 17.5t-19 42.5t19 42.5t49 17.5zM398 628q30 0 49 -17.5t19 -42.5t-19 -42.5t-49 -17.5q-29 0 -48 17.5t-19 42.5t19 42.5t48 17.5z" />
    <glyph glyph-name="Amacron" unicode="&#x100;" horiz-adv-x="772" 
d="M762 0h-345v28q55 0 66 28t-14 87l-25 56h-243q-10 -25 -22 -56q-41 -115 77 -115v-28h-246v28q51 0 77.5 29t48.5 86l219 557h47l242 -557q2 -5 13.5 -29.5t14 -29.5t13.5 -21t19.5 -20.5t24 -9.5t33.5 -5v-28zM217 239h210l-111 252zM241 838h275v-40h-275v40z" />
    <glyph glyph-name="amacron" unicode="&#x101;" horiz-adv-x="576" 
d="M558 52q1 -3 2.5 -6.5t2 -5l1.5 -4.5l2 -6q-33 -39 -105 -39q-46 0 -84 16.5t-48 49.5q-43 -66 -141 -66q-68 0 -116.5 24.5t-58.5 75.5q-11 59 23 103.5t118 61.5q23 5 51.5 8t43 4.5t28 7t17.5 17t1 31.5q-18 104 -77 104q-46 4 -64.5 -30.5t11.5 -58.5
q-17 -30 -45 -37.5t-48 4.5q-44 22 -23 76q16 44 65 62.5t103 18.5q119 0 174.5 -41.5t69.5 -137.5l19 -141q13 -76 22 -88q18 -21 56 -3zM259 53q63 15 58 102q-5 61 -11 98q-6 -12 -18.5 -18t-51.5 -17q-34 -10 -52.5 -37t-13.5 -64q5 -34 32.5 -53t56.5 -11zM95 588h275
v-40h-275v40z" />
    <glyph glyph-name="Abreve" unicode="&#x102;" horiz-adv-x="772" 
d="M762 0h-345v28q55 0 66 28t-14 87l-25 56h-243q-10 -25 -22 -56q-41 -115 77 -115v-28h-246v28q51 0 77.5 29t48.5 86l219 557h47l242 -557q2 -5 13.5 -29.5t14 -29.5t13.5 -21t19.5 -20.5t24 -9.5t33.5 -5v-28zM217 239h210l-111 252zM378 750zM499 886
q0 -65 -31 -100.5t-90 -35.5t-89.5 35.5t-30.5 100.5h18q8 -29 33 -47.5t69 -18.5q84 0 103 66h18z" />
    <glyph glyph-name="abreve" unicode="&#x103;" horiz-adv-x="576" 
d="M558 52q1 -3 2.5 -6.5t2 -5l1.5 -4.5l2 -6q-33 -39 -105 -39q-46 0 -84 16.5t-48 49.5q-43 -66 -141 -66q-68 0 -116.5 24.5t-58.5 75.5q-11 59 23 103.5t118 61.5q23 5 51.5 8t43 4.5t28 7t17.5 17t1 31.5q-18 104 -77 104q-46 4 -64.5 -30.5t11.5 -58.5
q-17 -30 -45 -37.5t-48 4.5q-44 22 -23 76q16 44 65 62.5t103 18.5q119 0 174.5 -41.5t69.5 -137.5l19 -141q13 -76 22 -88q18 -21 56 -3zM259 53q63 15 58 102q-5 61 -11 98q-6 -12 -18.5 -18t-51.5 -17q-34 -10 -52.5 -37t-13.5 -64q5 -34 32.5 -53t56.5 -11zM222 500z
M343 636q0 -65 -31 -100.5t-90 -35.5t-89.5 35.5t-30.5 100.5h18q8 -29 33 -47.5t69 -18.5q84 0 103 66h18z" />
    <glyph glyph-name="Aogonek" unicode="&#x104;" horiz-adv-x="772" 
d="M628 0q-27 -15 -42 -49.5t-3 -60.5q13 -27 45.5 -27t50.5 21l11 -9q-21 -52 -61.5 -75t-76.5 -14t-51 39q-20 42 7.5 90t79.5 85h-171v28q55 0 66 28t-14 86l-25 57h-242q-11 -25 -23 -57q-41 -114 78 -114v-28h-247v28q51 0 77.5 28.5t48.5 85.5l219 558h47l242 -558
q3 -5 13.5 -29t14 -29.5t14 -21t19.5 -20t24 -9.5t33 -5v-28h-134zM217 238h210l-111 252z" />
    <glyph glyph-name="aogonek" unicode="&#x105;" horiz-adv-x="576" 
d="M556 -116l10 -9q-20 -53 -60.5 -75.5t-76.5 -13.5t-51 39q-20 40 4 84.5t72 81.5q-44 2 -79.5 18.5t-45.5 47.5q-43 -66 -141 -66q-69 0 -117 24t-58 76q-11 59 23 103.5t118 61.5q23 5 51.5 8t43 4.5t28.5 7t17.5 17t0.5 31.5q-18 104 -77 104q-46 4 -64.5 -30.5
t11.5 -58.5q-17 -29 -45 -37t-47 4q-21 10 -27.5 30t3.5 46q17 44 65.5 62.5t102.5 18.5q119 0 174.5 -41.5t69.5 -137.5l19 -141q13 -76 22 -88q19 -21 56 -3q1 -3 2.5 -6.5t2 -5l1.5 -4.5l2 -6q-22 -28 -70 -36q-23 -18 -35 -49.5t-1 -54.5q13 -27 45.5 -27t50.5 21z
M260 53q64 16 57 103q-5 61 -11 97q-6 -12 -18.5 -18t-50.5 -17q-34 -9 -53 -36t-14 -65q5 -34 33 -53t57 -11z" />
    <glyph glyph-name="Cacute" unicode="&#x106;" horiz-adv-x="667" 
d="M619 220h28l-16 -229h-21q-7 26 -35 26t-86.5 -13t-100.5 -13q-171 0 -279.5 102t-108.5 257q0 156 103.5 257.5t276.5 101.5q42 0 100.5 -13t86.5 -13t35 26h21l16 -225h-28q-42 199 -231 187q-92 -5 -144.5 -87.5t-52.5 -233.5q0 -150 56.5 -234t148.5 -88
q189 -8 231 192zM305 757q30 78 52 107q14 19 34 24t43 -13q17 -23 12.5 -42.5t-23.5 -34.5q-13 -10 -40 -22.5t-47 -20.5l-20 -8z" />
    <glyph glyph-name="cacute" unicode="&#x107;" 
d="M475 157q16 -13 16 -14q-28 -65 -85.5 -108.5t-142.5 -43.5q-110 0 -181.5 60.5t-79.5 152.5q-10 117 65 188t192 71q101 0 149 -33.5t55 -83.5q5 -31 -6 -58.5t-37 -39.5q-27 -15 -63 -3.5t-63 48.5q26 21 29.5 54.5t-18.5 58t-63 21.5q-40 -4 -64 -45.5t-21 -108.5
q8 -161 153 -176q99 -10 165 60zM167 507q30 78 52 107q14 19 34 24t43 -13q17 -23 12.5 -42.5t-23.5 -34.5q-13 -10 -40 -22.5t-47 -20.5l-20 -8z" />
    <glyph glyph-name="Ccircumflex" unicode="&#x108;" horiz-adv-x="667" 
d="M619 220h28l-16 -229h-21q-7 26 -35 26t-86.5 -13t-100.5 -13q-171 0 -279.5 102t-108.5 257q0 156 103.5 257.5t276.5 101.5q42 0 100.5 -13t86.5 -13t35 26h21l16 -225h-28q-42 199 -231 187q-92 -5 -144.5 -87.5t-52.5 -233.5q0 -150 56.5 -234t148.5 -88
q189 -8 231 192zM420 879l103 -108l-9 -14l-131 58l-131 -58l-9 14l103 108h74z" />
    <glyph glyph-name="ccircumflex" unicode="&#x109;" 
d="M475 157q16 -13 16 -14q-28 -65 -85.5 -108.5t-142.5 -43.5q-110 0 -181.5 60.5t-79.5 152.5q-10 117 65 188t192 71q101 0 149 -33.5t55 -83.5q5 -31 -6 -58.5t-37 -39.5q-27 -15 -63 -3.5t-63 48.5q26 21 29.5 54.5t-18.5 58t-63 21.5q-40 -4 -64 -45.5t-21 -108.5
q8 -161 153 -176q99 -10 165 60zM282 629l103 -108l-9 -14l-131 58l-131 -58l-9 14l103 108h74z" />
    <glyph glyph-name="Cdotaccent" unicode="&#x10a;" horiz-adv-x="667" 
d="M619 220h28l-16 -229h-21q-7 26 -35 26t-86.5 -13t-100.5 -13q-171 0 -279.5 102t-108.5 257q0 156 103.5 257.5t276.5 101.5q42 0 100.5 -13t86.5 -13t35 26h21l16 -225h-28q-42 199 -231 187q-92 -5 -144.5 -87.5t-52.5 -233.5q0 -150 56.5 -234t148.5 -88
q189 -8 231 192zM384 878q29 0 48 -17.5t19 -42.5t-19 -42.5t-48 -17.5q-30 0 -49 17.5t-19 42.5t19 42.5t49 17.5z" />
    <glyph glyph-name="cdotaccent" unicode="&#x10b;" 
d="M475 157q16 -13 16 -14q-28 -65 -85.5 -108.5t-142.5 -43.5q-110 0 -181.5 60.5t-79.5 152.5q-10 117 65 188t192 71q101 0 149 -33.5t55 -83.5q5 -31 -6 -58.5t-37 -39.5q-27 -15 -63 -3.5t-63 48.5q26 21 29.5 54.5t-18.5 58t-63 21.5q-40 -4 -64 -45.5t-21 -108.5
q8 -161 153 -176q99 -10 165 60zM246 628q29 0 48 -17.5t19 -42.5t-19 -42.5t-48 -17.5q-30 0 -49 17.5t-19 42.5t19 42.5t49 17.5z" />
    <glyph glyph-name="Ccaron" unicode="&#x10c;" horiz-adv-x="667" 
d="M619 220h28l-16 -229h-21q-7 26 -35 26t-86.5 -13t-100.5 -13q-171 0 -279.5 102t-108.5 257q0 156 103.5 257.5t276.5 101.5q42 0 100.5 -13t86.5 -13t35 26h21l16 -225h-28q-42 199 -231 187q-92 -5 -144.5 -87.5t-52.5 -233.5q0 -150 56.5 -234t148.5 -88
q189 -8 231 192zM515 879l9 -14l-104 -108h-73l-104 108l9 14l132 -58z" />
    <glyph glyph-name="ccaron" unicode="&#x10d;" 
d="M475 157q16 -13 16 -14q-28 -65 -85.5 -108.5t-142.5 -43.5q-110 0 -181.5 60.5t-79.5 152.5q-10 117 65 188t192 71q101 0 149 -33.5t55 -83.5q5 -31 -6 -58.5t-37 -39.5q-27 -15 -63 -3.5t-63 48.5q26 21 29.5 54.5t-18.5 58t-63 21.5q-40 -4 -64 -45.5t-21 -108.5
q8 -161 153 -176q99 -10 165 60zM377 629l9 -14l-104 -108h-73l-104 108l9 14l132 -58z" />
    <glyph glyph-name="Dcaron" unicode="&#x10e;" horiz-adv-x="761" 
d="M329 700q209 0 320.5 -95t111.5 -255t-111.5 -255t-320.5 -95h-309v27q94 0 94 115v415q0 115 -94 115v28h309zM325 39q259 0 259 311q0 310 -259 310h-42v-621h42zM492 879l9 -14l-104 -108h-73l-104 108l9 14l132 -58z" />
    <glyph glyph-name="dcaron" unicode="&#x10f;" horiz-adv-x="697" 
d="M593 75l17 -10q-35 -74 -115 -74q-81 0 -111 47q-54 -47 -124 -47q-114 0 -187 65.5t-73 170.5q0 109 74.5 180t185.5 56q63 -9 106 -52v68q0 56 -17 85.5t-69 29.5v28q50 0 114.5 20.5t106.5 57.5h27v-557q0 -44 4.5 -64.5t20.5 -24.5q24 -6 40 21zM295 30q45 8 60.5 66
t-0.5 148t-50.5 138.5t-79.5 41.5q-45 -8 -60.5 -66t0.5 -148t50.5 -138.5t79.5 -41.5zM667 709q35 0 57.5 -20.5t22.5 -51.5q0 -56 -33.5 -102t-82.5 -64l-12 17q38 34 47 77q-35 0 -57.5 20.5t-22.5 51.5q0 30 23 51t58 21z" />
    <glyph glyph-name="Dcroat" unicode="&#x110;" horiz-adv-x="760" 
d="M329 700q209 0 320 -95t111 -255q0 -161 -111 -255.5t-320 -94.5h-309v27q53 0 73 30.5t20 84.5v188h-93v40h93v187q0 54 -20 84.5t-73 30.5v28h309zM325 39q258 0 258 311q0 160 -65.5 235t-192.5 75h-42v-290h178v-40h-178v-291h42z" />
    <glyph glyph-name="dcroat" unicode="&#x111;" horiz-adv-x="619" 
d="M609 499h-82v-356q0 -44 4.5 -64.5t20.5 -24.5q24 -5 41 21l16 -10q-35 -74 -115 -74q-81 0 -111 47q-54 -47 -124 -47q-113 0 -186 65.5t-73 170.5q0 109 74.5 180t184.5 56q62 -8 107 -52v68q0 14 -1 20h-158v40h153q-15 55 -80 55v28q50 0 114.5 20.5t105.5 57.5h27
v-161h82v-40zM294 30q45 8 60.5 66t-0.5 148q-16 91 -50 139t-79 41q-45 -8 -61 -66t0 -148t50.5 -138.5t79.5 -41.5z" />
    <glyph glyph-name="Emacron" unicode="&#x112;" horiz-adv-x="662" 
d="M620 216h32l-16 -216h-616v27q94 0 94 115v415q0 115 -94 115v28h580l16 -216h-31q-56 176 -167 176h-135v-290h13q33 0 48.5 1t38 7t33 19t19.5 37t12 61h27v-290h-27q-3 37 -12 61t-19.5 37t-33 19t-38 7t-48.5 1h-13v-291h171q110 0 166 177zM198 838h275v-40h-275v40
z" />
    <glyph glyph-name="emacron" unicode="&#x113;" 
d="M474 157q17 -13 17 -14q-28 -65 -85.5 -108.5t-142.5 -43.5q-110 0 -181.5 62t-79.5 155q-10 117 65 186t192 69q103 0 163 -53.5t56 -150.5l-309 -52q11 -62 68.5 -91t125.5 -17.5t111 58.5zM241 427q-46 -4 -66.5 -55.5t-11.5 -125.5l164 28q4 76 -16.5 116.5
t-69.5 36.5zM108 588h275v-40h-275v40z" />
    <glyph glyph-name="Ebreve" unicode="&#x114;" horiz-adv-x="662" 
d="M620 216h32l-16 -216h-616v27q94 0 94 115v415q0 115 -94 115v28h580l16 -216h-31q-56 176 -167 176h-135v-290h13q33 0 48.5 1t38 7t33 19t19.5 37t12 61h27v-290h-27q-3 37 -12 61t-19.5 37t-33 19t-38 7t-48.5 1h-13v-291h171q110 0 166 177zM335 750zM456 886
q0 -65 -31 -100.5t-90 -35.5t-89.5 35.5t-30.5 100.5h18q8 -29 33 -47.5t69 -18.5q84 0 103 66h18z" />
    <glyph glyph-name="ebreve" unicode="&#x115;" 
d="M474 157q17 -13 17 -14q-28 -65 -85.5 -108.5t-142.5 -43.5q-110 0 -181.5 62t-79.5 155q-10 117 65 186t192 69q103 0 163 -53.5t56 -150.5l-309 -52q11 -62 68.5 -91t125.5 -17.5t111 58.5zM241 427q-46 -4 -66.5 -55.5t-11.5 -125.5l164 28q4 76 -16.5 116.5
t-69.5 36.5zM245 500zM366 636q0 -65 -31 -100.5t-90 -35.5t-89.5 35.5t-30.5 100.5h18q8 -29 33 -47.5t69 -18.5q84 0 103 66h18z" />
    <glyph glyph-name="Edotaccent" unicode="&#x116;" horiz-adv-x="662" 
d="M620 216h32l-16 -216h-616v27q94 0 94 115v415q0 115 -94 115v28h580l16 -216h-31q-56 176 -167 176h-135v-290h13q33 0 48.5 1t38 7t33 19t19.5 37t12 61h27v-290h-27q-3 37 -12 61t-19.5 37t-33 19t-38 7t-48.5 1h-13v-291h171q110 0 166 177zM336 878q29 0 48 -17.5
t19 -42.5t-19 -42.5t-48 -17.5q-30 0 -49 17.5t-19 42.5t19 42.5t49 17.5z" />
    <glyph glyph-name="edotaccent" unicode="&#x117;" 
d="M474 157q17 -13 17 -14q-28 -65 -85.5 -108.5t-142.5 -43.5q-110 0 -181.5 62t-79.5 155q-10 117 65 186t192 69q103 0 163 -53.5t56 -150.5l-309 -52q11 -62 68.5 -91t125.5 -17.5t111 58.5zM241 427q-46 -4 -66.5 -55.5t-11.5 -125.5l164 28q4 76 -16.5 116.5
t-69.5 36.5zM246 628q29 0 48 -17.5t19 -42.5t-19 -42.5t-48 -17.5q-30 0 -49 17.5t-19 42.5t19 42.5t49 17.5z" />
    <glyph glyph-name="Eogonek" unicode="&#x118;" horiz-adv-x="662" 
d="M569 0q-27 -15 -42 -49.5t-3 -60.5q13 -27 45 -27t51 21l10 -9q-21 -52 -61 -75t-76.5 -14t-50.5 39q-21 42 6.5 90t80.5 85h-509v28q53 0 73.5 30.5t20.5 83.5v415q0 115 -94 115v28h581l15 -216h-31q-56 176 -166 176h-135v-290h13q33 0 48.5 1t38 7t33 19t19.5 37
t11 61h28v-290h-28q-2 37 -11 61t-19.5 37t-33 19t-38 7t-48.5 1h-13v-291h170q112 0 166 177h32l-16 -216h-67z" />
    <glyph glyph-name="eogonek" unicode="&#x119;" 
d="M301 -6q-24 -18 -35.5 -49.5t0.5 -54.5q12 -27 44.5 -27t50.5 21l11 -9q-21 -53 -61.5 -75.5t-76.5 -13.5t-51 39q-19 40 4.5 84.5t71.5 81.5q-109 1 -179.5 63t-78.5 154q-9 117 65.5 186t192.5 69q103 0 163 -53.5t56 -149.5l-310 -53q12 -62 69.5 -91t125.5 -17
t111 59l17 -14q-26 -57 -73.5 -98.5t-116.5 -51.5zM241 427q-46 -4 -66.5 -55.5t-11.5 -124.5l164 27q3 77 -17 117.5t-69 35.5z" />
    <glyph glyph-name="Ecaron" unicode="&#x11a;" horiz-adv-x="662" 
d="M620 216h32l-16 -216h-616v27q94 0 94 115v415q0 115 -94 115v28h580l16 -216h-31q-56 176 -167 176h-135v-290h13q33 0 48.5 1t38 7t33 19t19.5 37t12 61h27v-290h-27q-3 37 -12 61t-19.5 37t-33 19t-38 7t-48.5 1h-13v-291h171q110 0 166 177zM467 879l9 -14l-104 -108
h-73l-104 108l9 14l132 -58z" />
    <glyph glyph-name="ecaron" unicode="&#x11b;" 
d="M474 157q17 -13 17 -14q-28 -65 -85.5 -108.5t-142.5 -43.5q-110 0 -181.5 62t-79.5 155q-10 117 65 186t192 69q103 0 163 -53.5t56 -150.5l-309 -52q11 -62 68.5 -91t125.5 -17.5t111 58.5zM241 427q-46 -4 -66.5 -55.5t-11.5 -125.5l164 28q4 76 -16.5 116.5
t-69.5 36.5zM377 629l9 -14l-104 -108h-73l-104 108l9 14l132 -58z" />
    <glyph glyph-name="Gcircumflex" unicode="&#x11c;" horiz-adv-x="745" 
d="M412 349h353v-27q-94 0 -94 -115v-216h-21q-7 26 -44.5 26t-107 -13t-110.5 -13q-170 0 -279 102t-109 257q0 156 103.5 257.5t276.5 101.5q43 0 101.5 -13t86.5 -13t35 26h21l15 -225h-27q-42 199 -232 187q-91 -5 -143.5 -87.5t-52.5 -233.5q0 -150 56 -234t148 -88h24
t29 6.5t31.5 18t22.5 37.5t10 62v55q0 54 -20 84.5t-73 30.5v27zM429 879l103 -108l-9 -14l-131 58l-131 -58l-9 14l103 108h74z" />
    <glyph glyph-name="gcircumflex" unicode="&#x11d;" horiz-adv-x="539" 
d="M280 39q8 0 40 1t48.5 0t46.5 -3.5t47 -10.5t35 -20.5t25.5 -34.5t5.5 -52q-3 -46 -30.5 -81.5t-69.5 -54.5t-85 -28.5t-85 -9.5q-60 0 -109 7.5t-89 32.5t-40 66q0 51 70 75q-33 15 -51 42t-12 64q12 66 99 96q-81 53 -81 149q0 83 61.5 134.5t158.5 51.5q41 0 80 -11
q9 113 93 123q41 4 66 -19.5t23 -59.5q-2 -33 -25 -51.5t-47 -17.5q-4 59 -44 59q-21 1 -31 -11t-8 -32q53 -23 83 -66t30 -100q0 -83 -61.5 -135t-158.5 -52q-58 0 -104 20q-23 -18 -21 -37q2 -34 133 -34h7zM236 420q-74 -11 -48 -156q13 -70 41 -103.5t65 -27.5
q74 12 48 157q-13 69 -41.5 102t-64.5 28zM280 -222q116 4 116 89q0 33 -43 33q-70 0 -196 10q-19 -18 -22 -47q-2 -39 35 -62.5t110 -22.5zM241 629l103 -108l-9 -14l-131 58l-131 -58l-9 14l103 108h74z" />
    <glyph glyph-name="Gbreve" unicode="&#x11e;" horiz-adv-x="745" 
d="M412 349h353v-27q-94 0 -94 -115v-216h-21q-7 26 -44.5 26t-107 -13t-110.5 -13q-170 0 -279 102t-109 257q0 156 103.5 257.5t276.5 101.5q43 0 101.5 -13t86.5 -13t35 26h21l15 -225h-27q-42 199 -232 187q-91 -5 -143.5 -87.5t-52.5 -233.5q0 -150 56 -234t148 -88h24
t29 6.5t31.5 18t22.5 37.5t10 62v55q0 54 -20 84.5t-73 30.5v27zM392 750zM513 886q0 -65 -31 -100.5t-90 -35.5t-89.5 35.5t-30.5 100.5h18q8 -29 33 -47.5t69 -18.5q84 0 103 66h18z" />
    <glyph glyph-name="gbreve" unicode="&#x11f;" horiz-adv-x="539" 
d="M280 39q8 0 40 1t48.5 0t46.5 -3.5t47 -10.5t35 -20.5t25.5 -34.5t5.5 -52q-3 -46 -30.5 -81.5t-69.5 -54.5t-85 -28.5t-85 -9.5q-60 0 -109 7.5t-89 32.5t-40 66q0 51 70 75q-33 15 -51 42t-12 64q12 66 99 96q-81 53 -81 149q0 83 61.5 134.5t158.5 51.5q41 0 80 -11
q9 113 93 123q41 4 66 -19.5t23 -59.5q-2 -33 -25 -51.5t-47 -17.5q-4 59 -44 59q-21 1 -31 -11t-8 -32q53 -23 83 -66t30 -100q0 -83 -61.5 -135t-158.5 -52q-58 0 -104 20q-23 -18 -21 -37q2 -34 133 -34h7zM236 420q-74 -11 -48 -156q13 -70 41 -103.5t65 -27.5
q74 12 48 157q-13 69 -41.5 102t-64.5 28zM280 -222q116 4 116 89q0 33 -43 33q-70 0 -196 10q-19 -18 -22 -47q-2 -39 35 -62.5t110 -22.5zM244 500zM365 636q0 -65 -31 -100.5t-90 -35.5t-89.5 35.5t-30.5 100.5h18q8 -29 33 -47.5t69 -18.5q84 0 103 66h18z" />
    <glyph glyph-name="Gdotaccent" unicode="&#x120;" horiz-adv-x="745" 
d="M412 349h353v-27q-94 0 -94 -115v-216h-21q-7 26 -44.5 26t-107 -13t-110.5 -13q-170 0 -279 102t-109 257q0 156 103.5 257.5t276.5 101.5q43 0 101.5 -13t86.5 -13t35 26h21l15 -225h-27q-42 199 -232 187q-91 -5 -143.5 -87.5t-52.5 -233.5q0 -150 56 -234t148 -88h24
t29 6.5t31.5 18t22.5 37.5t10 62v55q0 54 -20 84.5t-73 30.5v27zM393 878q29 0 48 -17.5t19 -42.5t-19 -42.5t-48 -17.5q-30 0 -49 17.5t-19 42.5t19 42.5t49 17.5z" />
    <glyph glyph-name="gdotaccent" unicode="&#x121;" horiz-adv-x="539" 
d="M280 39q8 0 40 1t48.5 0t46.5 -3.5t47 -10.5t35 -20.5t25.5 -34.5t5.5 -52q-3 -46 -30.5 -81.5t-69.5 -54.5t-85 -28.5t-85 -9.5q-60 0 -109 7.5t-89 32.5t-40 66q0 51 70 75q-33 15 -51 42t-12 64q12 66 99 96q-81 53 -81 149q0 83 61.5 134.5t158.5 51.5q41 0 80 -11
q9 113 93 123q41 4 66 -19.5t23 -59.5q-2 -33 -25 -51.5t-47 -17.5q-4 59 -44 59q-21 1 -31 -11t-8 -32q53 -23 83 -66t30 -100q0 -83 -61.5 -135t-158.5 -52q-58 0 -104 20q-23 -18 -21 -37q2 -34 133 -34h7zM236 420q-74 -11 -48 -156q13 -70 41 -103.5t65 -27.5
q74 12 48 157q-13 69 -41.5 102t-64.5 28zM280 -222q116 4 116 89q0 33 -43 33q-70 0 -196 10q-19 -18 -22 -47q-2 -39 35 -62.5t110 -22.5zM275 628q29 0 48 -17.5t19 -42.5t-19 -42.5t-48 -17.5q-30 0 -49 17.5t-19 42.5t19 42.5t49 17.5z" />
    <glyph glyph-name="Gcommaaccent" unicode="&#x122;" horiz-adv-x="745" 
d="M412 349h353v-27q-94 0 -94 -115v-216h-21q-7 26 -44.5 26t-107 -13t-110.5 -13q-170 0 -279 102t-109 257q0 156 103.5 257.5t276.5 101.5q43 0 101.5 -13t86.5 -13t35 26h21l15 -225h-27q-42 199 -232 187q-91 -5 -143.5 -87.5t-52.5 -233.5q0 -150 56 -234t148 -88h24
t29 6.5t31.5 18t22.5 37.5t10 62v55q0 54 -20 84.5t-73 30.5v27zM382 -57q35 0 57.5 -20.5t22.5 -50.5q0 -55 -33 -100.5t-83 -64.5l-12 18q38 31 47 75q-35 1 -57 21.5t-22 50.5t22.5 50.5t57.5 20.5z" />
    <glyph glyph-name="gcommaaccent" unicode="&#x123;" horiz-adv-x="539" 
d="M280 39q8 0 40 1t48.5 0t46.5 -3.5t47 -10.5t35 -20.5t25.5 -34.5t5.5 -52q-3 -46 -30.5 -81.5t-69.5 -54.5t-85 -28.5t-85 -9.5q-60 0 -109 7.5t-89 32.5t-40 66q0 51 70 75q-33 15 -51 42t-12 64q12 66 99 96q-81 53 -81 149q0 83 61.5 134.5t158.5 51.5q41 0 80 -11
q9 113 93 123q41 4 66 -19.5t23 -59.5q-2 -33 -25 -51.5t-47 -17.5q-4 59 -44 59q-21 1 -31 -11t-8 -32q53 -23 83 -66t30 -100q0 -83 -61.5 -135t-158.5 -52q-58 0 -104 20q-23 -18 -21 -37q2 -34 133 -34h7zM236 420q-74 -11 -48 -156q13 -70 41 -103.5t65 -27.5
q74 12 48 157q-13 69 -41.5 102t-64.5 28zM280 -222q116 4 116 89q0 33 -43 33q-70 0 -196 10q-19 -18 -22 -47q-2 -39 35 -62.5t110 -22.5zM266 505q-35 0 -57.5 20.5t-22.5 51.5q0 56 33.5 102t82.5 64l12 -17q-38 -34 -47 -77q35 0 57.5 -20.5t22.5 -51.5q0 -30 -23 -51
t-58 -21z" />
    <glyph glyph-name="Hcircumflex" unicode="&#x124;" horiz-adv-x="848" 
d="M828 672q-94 0 -94 -115v-415q0 -115 94 -115v-27h-357v27q94 0 94 115v188h-282v-188q0 -115 94 -115v-27h-357v27q94 0 94 115v415q0 115 -94 115v28h357v-28q-94 0 -94 -115v-187h282v187q0 115 -94 115v28h357v-28zM461 879l103 -108l-9 -14l-131 58l-131 -58l-9 14
l103 108h74z" />
    <glyph glyph-name="hcircumflex" unicode="&#x125;" horiz-adv-x="718" 
d="M618 142q3 -25 5 -35.5t8 -29.5t14.5 -27.5t24.5 -15.5t38 -7v-27h-321v27q36 0 53.5 16t18.5 41.5t-2 57.5q-14 91 -20 128q-4 24 -6 35t-8 29t-14 26t-22.5 15t-34.5 7q-43 0 -64 -33t-21 -86v-121q0 -57 15 -86t67 -29v-27h-329v27q52 0 69 29.5t17 85.5v337
q0 56 -17 85.5t-69 29.5v28q50 0 114.5 20.5t105.5 57.5h27v-315q56 78 159 78q76 0 118 -43t55 -137zM303 822l103 -108l-9 -14l-131 58l-131 -58l-9 14l103 108h74z" />
    <glyph glyph-name="Hbar" unicode="&#x126;" horiz-adv-x="848" 
d="M828 672q-94 0 -94 -115v-54h94v-40h-94v-321q0 -115 94 -115v-27h-357v27q94 0 94 115v188h-281v-188q0 -54 20 -84.5t73 -30.5v-27h-357v27q94 0 94 115v321h-94v40h94v54q0 115 -94 115v28h357v-28q-53 0 -73 -30.5t-20 -84.5v-54h281v54q0 115 -94 115v28h357v-28z
M565 370v93h-281v-93h281z" />
    <glyph glyph-name="hbar" unicode="&#x127;" horiz-adv-x="719" 
d="M619 142q3 -25 5 -35.5t8 -29.5t14.5 -27.5t24.5 -15.5t38 -7v-27h-322v27q52 0 64.5 29.5t6.5 85.5q-15 91 -20 128q-4 24 -6 35t-8 29t-14 26t-22.5 15t-34.5 7q-43 0 -64 -33t-21 -86v-121q0 -57 15 -86t67 -29v-27h-330v27q53 0 69.5 29.5t16.5 85.5v337v20h-86v40
h81q-15 55 -81 55v28q51 0 115 20.5t106 57.5h27v-161h155v-40h-155v-114q56 78 159 78q76 0 117.5 -43t54.5 -137z" />
    <glyph glyph-name="Itilde" unicode="&#x128;" horiz-adv-x="398" 
d="M378 672q-94 0 -94 -115v-415q0 -115 94 -115v-27h-358v27q53 0 73.5 30.5t20.5 84.5v415q0 54 -20.5 84.5t-73.5 30.5v28h358v-28zM131 808q-26 0 -51 -27l-16 12q10 22 15.5 31.5t17.5 25.5t26.5 22.5t32.5 6.5q30 -1 62 -22.5t43 -23.5q37 -7 57 27l15 -9
q-26 -92 -81 -94q-28 -1 -64 25t-57 26z" />
    <glyph glyph-name="itilde" unicode="&#x129;" horiz-adv-x="360" 
d="M267 142q0 -28 2.5 -45.5t10 -35t25 -26t45.5 -8.5v-27h-330v27q52 0 69 29.5t17 85.5v101q0 56 -17 85.5t-69 29.5v27q50 0 114.5 20.5t105.5 57.5h27v-321zM117 558q-26 0 -51 -27l-16 12q10 22 15.5 31.5t17.5 25.5t26.5 22.5t32.5 6.5q30 -1 62 -22.5t43 -23.5
q37 -7 57 27l15 -9q-26 -92 -81 -94q-28 -1 -64 25t-57 26z" />
    <glyph glyph-name="Imacron" unicode="&#x12a;" horiz-adv-x="398" 
d="M378 672q-94 0 -94 -115v-415q0 -115 94 -115v-27h-358v27q53 0 73.5 30.5t20.5 84.5v415q0 54 -20.5 84.5t-73.5 30.5v28h358v-28zM61 838h275v-40h-275v40z" />
    <glyph glyph-name="imacron" unicode="&#x12b;" horiz-adv-x="360" 
d="M267 142q0 -28 2.5 -45.5t10 -35t25 -26t45.5 -8.5v-27h-330v27q52 0 69 29.5t17 85.5v101q0 56 -17 85.5t-69 29.5v27q50 0 114.5 20.5t105.5 57.5h27v-321zM47 588h275v-40h-275v40z" />
    <glyph glyph-name="Ibreve" unicode="&#x12c;" horiz-adv-x="398" 
d="M378 672q-94 0 -94 -115v-415q0 -115 94 -115v-27h-358v27q53 0 73.5 30.5t20.5 84.5v415q0 54 -20.5 84.5t-73.5 30.5v28h358v-28zM198 750zM319 886q0 -65 -31 -100.5t-90 -35.5t-89.5 35.5t-30.5 100.5h18q8 -29 33 -47.5t69 -18.5q84 0 103 66h18z" />
    <glyph glyph-name="ibreve" unicode="&#x12d;" horiz-adv-x="360" 
d="M267 142q0 -28 2.5 -45.5t10 -35t25 -26t45.5 -8.5v-27h-330v27q52 0 69 29.5t17 85.5v101q0 56 -17 85.5t-69 29.5v27q50 0 114.5 20.5t105.5 57.5h27v-321zM184 500zM305 636q0 -65 -31 -100.5t-90 -35.5t-89.5 35.5t-30.5 100.5h18q8 -29 33 -47.5t69 -18.5
q84 0 103 66h18z" />
    <glyph glyph-name="Iogonek" unicode="&#x12e;" horiz-adv-x="398" 
d="M378 672q-53 0 -73.5 -30.5t-20.5 -84.5v-415q0 -54 20.5 -84t73.5 -30v-28h-142q-27 -15 -42 -49.5t-3 -60.5q13 -27 45.5 -27t50.5 21l10 -9q-20 -53 -60.5 -75.5t-76.5 -13.5t-51 39q-21 42 7 89.5t80 85.5h-176v28q53 0 73.5 30t20.5 84v415q0 54 -20.5 84.5
t-73.5 30.5v28h358v-28z" />
    <glyph glyph-name="iogonek" unicode="&#x12f;" horiz-adv-x="360" 
d="M170 511q-41 0 -70.5 27.5t-29.5 66.5q0 40 29.5 67.5t70.5 27.5t70.5 -27.5t29.5 -67.5q0 -39 -29.5 -66.5t-70.5 -27.5zM221 0q-27 -15 -41.5 -49.5t-2.5 -60.5q12 -27 44.5 -27t50.5 21l11 -9q-21 -53 -61.5 -75.5t-76.5 -13.5t-51 39q-20 42 7.5 90t80.5 85h-162v28
q52 0 69 29t17 85v101q0 56 -17 85.5t-69 29.5v27q49 0 113.5 20.5t106.5 57.5h27v-321q0 -57 15 -85.5t67 -28.5v-28h-128z" />
    <glyph glyph-name="Idotaccent" unicode="&#x130;" horiz-adv-x="398" 
d="M378 672q-94 0 -94 -115v-415q0 -115 94 -115v-27h-358v27q53 0 73.5 30.5t20.5 84.5v415q0 54 -20.5 84.5t-73.5 30.5v28h358v-28zM199 878q29 0 48 -17.5t19 -42.5t-19 -42.5t-48 -17.5q-30 0 -49 17.5t-19 42.5t19 42.5t49 17.5z" />
    <glyph glyph-name="dotlessi" unicode="&#x131;" horiz-adv-x="360" 
d="M267 142q0 -28 2.5 -45.5t10 -35t25 -26t45.5 -8.5v-27h-330v27q52 0 69 29.5t17 85.5v101q0 56 -17 85.5t-69 29.5v27q50 0 114.5 20.5t105.5 57.5h27v-321z" />
    <glyph glyph-name="IJ" unicode="&#x132;" horiz-adv-x="1033" 
d="M378 672q-94 0 -94 -115v-415q0 -115 94 -115v-27h-358v27q53 0 73.5 30.5t20.5 84.5v415q0 54 -20.5 84.5t-73.5 30.5v28h358v-28zM636 700h377v-28q-94 0 -94 -115v-364q0 -143 -74 -212t-204 -69q-58 0 -109.5 13t-94 51t-48.5 96q-6 60 32 98t91 36q47 -2 72.5 -31
t25.5 -62q-31 -3 -48.5 -24.5t-16.5 -56.5q1 -37 27 -60t63 -23q35 0 58.5 19.5t35 58.5t16 84t4.5 110v336q0 115 -113 115v28z" />
    <glyph glyph-name="ij" unicode="&#x133;" horiz-adv-x="686" 
d="M267 142q0 -28 2.5 -45.5t10 -35t25 -26t45.5 -8.5v-27h-330v27q52 0 69 29.5t17 85.5v101q0 56 -17 85.5t-69 29.5v27q50 0 114.5 20.5t105.5 57.5h27v-321zM170 510q-41 0 -70.5 28t-29.5 67t29.5 67t70.5 28t70.5 -28t29.5 -67t-29.5 -67t-70.5 -28zM597 463h27v-469
q0 -119 -40 -184t-143 -65q-59 0 -112 31t-58 89q-4 46 20.5 72.5t64.5 24.5q36 -1 55 -24.5t19 -49.5q-48 -5 -45 -57q1 -25 16.5 -37.5t39.5 -12.5q37 0 51 32.5t-2 73.5q-28 82 -28 135v221q0 56 -17 85.5t-69 29.5v27q50 0 114.5 20.5t106.5 57.5zM526 510
q-41 0 -70.5 28t-29.5 67t29.5 67t70.5 28q42 0 71 -28t29 -67t-29 -67t-71 -28z" />
    <glyph glyph-name="Jcircumflex" unicode="&#x134;" horiz-adv-x="665" 
d="M268 700h377v-28q-94 0 -94 -115v-364q0 -143 -74 -212t-204 -69q-58 0 -109.5 13t-94 51t-48.5 96q-6 60 32 98t91 36q47 -2 72.5 -31t25.5 -62q-31 -3 -48.5 -24.5t-16.5 -56.5q1 -37 27 -60t63 -23q35 0 58.5 19.5t35 58.5t16 84t4.5 110v336q0 115 -113 115v28z
M499 879l103 -108l-9 -14l-131 58l-131 -58l-9 14l103 108h74z" />
    <glyph glyph-name="jcircumflex" unicode="&#x135;" horiz-adv-x="326" 
d="M237 463h27v-469q0 -119 -40 -184t-143 -65q-59 0 -112 31t-58 89q-4 46 20.5 72.5t64.5 24.5q36 -1 55 -24.5t19 -49.5q-48 -5 -45 -57q1 -25 16.5 -37.5t39.5 -12.5q37 0 51 32.5t-2 73.5q-28 82 -28 135v221q0 56 -17 85.5t-69 29.5v27q50 0 114.5 20.5t106.5 57.5z
M155 629l103 -108l-9 -14l-131 58l-131 -58l-9 14l103 108h74z" />
    <glyph glyph-name="Kcommaaccent" unicode="&#x136;" horiz-adv-x="864" 
d="M709 132q31 -50 64 -77.5t81 -27.5v-27h-377v27q53 0 60.5 31t-19.5 69l-144 234l-91 -85v-134q0 -115 94 -115v-27h-357v27q53 0 73 30.5t20 84.5v415q0 54 -20 84.5t-73 30.5v28h357v-28q-94 0 -94 -115v-222l249 227q29 26 38.5 51.5t-5 42t-51.5 16.5v28h267v-28
q-14 0 -29 -4t-27.5 -9t-29 -15t-26 -16.5t-26 -20l-22 -18t-20.5 -18t-16 -14.5l-88 -81zM427 -57q35 0 57.5 -20.5t22.5 -50.5q0 -55 -33 -100.5t-83 -64.5l-12 18q38 31 47 75q-35 1 -57 21.5t-22 50.5t22.5 50.5t57.5 20.5z" />
    <glyph glyph-name="kcommaaccent" unicode="&#x137;" horiz-adv-x="684" 
d="M577 92q36 -65 97 -65v-27h-289v27q51 0 22 54l-78 147l-61 -55v-31q0 -56 17 -85.5t69 -29.5v-27h-334v27q53 0 69.5 29.5t16.5 85.5v337q0 56 -16.5 85.5t-69.5 29.5v28q51 0 115 20.5t106 57.5h27v-475l157 139q19 17 24.5 31.5t-4.5 22.5t-33 8v27h204v-27
q-70 0 -159 -81l-13 -12zM347 -57q35 0 57.5 -20.5t22.5 -50.5q0 -55 -33 -100.5t-83 -64.5l-12 18q38 31 47 75q-35 1 -57 21.5t-22 50.5t22.5 50.5t57.5 20.5z" />
    <glyph glyph-name="kgreenlandic" unicode="&#x138;" horiz-adv-x="684" 
d="M577 92q36 -65 97 -65v-27h-289v27q51 0 22 54l-78 147l-61 -55v-31q0 -56 17 -85.5t69 -29.5v-27h-334v27q53 0 69.5 29.5t16.5 85.5v90q0 56 -16.5 85.5t-69.5 29.5v28q51 0 115 20.5t106 57.5h27v-228l157 139q19 17 24.5 31.5t-4.5 22.5t-33 8v27h204v-27
q-70 0 -159 -81l-13 -12z" />
    <glyph glyph-name="Lacute" unicode="&#x139;" horiz-adv-x="672" 
d="M620 216h32l-16 -216h-616v27q94 0 94 115v415q0 115 -94 115v28h357v-28q-94 0 -94 -115v-518h171q112 0 166 177zM118 757q30 78 52 107q14 19 34 24t43 -13q17 -23 12.5 -42.5t-23.5 -34.5q-13 -10 -40 -22.5t-47 -20.5l-20 -8z" />
    <glyph glyph-name="lacute" unicode="&#x13a;" horiz-adv-x="364" 
d="M268 142q0 -56 16.5 -85.5t69.5 -29.5v-27h-334v27q52 0 69 29.5t17 85.5v337q0 56 -17 85.5t-69 29.5v28q50 0 114.5 20.5t106.5 57.5h27v-558zM109 720q30 78 52 107q14 19 34 24t43 -13q17 -23 12.5 -42.5t-23.5 -34.5q-13 -10 -40 -22.5t-47 -20.5l-20 -8z" />
    <glyph glyph-name="Lcommaaccent" unicode="&#x13b;" horiz-adv-x="672" 
d="M620 216h32l-16 -216h-616v27q94 0 94 115v415q0 115 -94 115v28h357v-28q-94 0 -94 -115v-518h171q112 0 166 177zM376 -57q35 0 57.5 -20.5t22.5 -50.5q0 -55 -33 -100.5t-83 -64.5l-12 18q38 31 47 75q-35 1 -57 21.5t-22 50.5t22.5 50.5t57.5 20.5z" />
    <glyph glyph-name="lcommaaccent" unicode="&#x13c;" horiz-adv-x="364" 
d="M268 142q0 -56 16.5 -85.5t69.5 -29.5v-27h-334v27q52 0 69 29.5t17 85.5v337q0 56 -17 85.5t-69 29.5v28q50 0 114.5 20.5t106.5 57.5h27v-558zM187 -57q35 0 57.5 -20.5t22.5 -50.5q0 -55 -33 -100.5t-83 -64.5l-12 18q38 31 47 75q-35 1 -57 21.5t-22 50.5t22.5 50.5
t57.5 20.5z" />
    <glyph glyph-name="Lcaron" unicode="&#x13d;" horiz-adv-x="672" 
d="M620 216h32l-16 -216h-616v27q94 0 94 115v415q0 115 -94 115v28h357v-28q-94 0 -94 -115v-518h171q112 0 166 177zM530 709q45 0 73.5 -26t28.5 -65q0 -71 -42.5 -129.5t-105.5 -81.5l-15 23q48 41 60 97q-45 0 -73.5 26.5t-28.5 64.5q0 39 29 65t74 26z" />
    <glyph glyph-name="lcaron" unicode="&#x13e;" horiz-adv-x="426" 
d="M268 142q0 -56 16.5 -85.5t69.5 -29.5v-27h-334v27q52 0 69 29.5t17 85.5v337q0 56 -17 85.5t-69 29.5v28q50 0 114.5 20.5t106.5 57.5h27v-558zM396 709q35 0 57.5 -20.5t22.5 -51.5q0 -56 -33.5 -102t-82.5 -64l-12 17q38 34 47 77q-35 0 -57.5 20.5t-22.5 51.5
q0 30 23 51t58 21z" />
    <glyph glyph-name="Ldot" unicode="&#x13f;" horiz-adv-x="672" 
d="M620 216h32l-16 -216h-616v27q94 0 94 115v415q0 115 -94 115v28h357v-28q-94 0 -94 -115v-518h171q112 0 166 177zM524 372q29 0 48 -17.5t19 -42.5t-19 -42.5t-48 -17.5q-30 0 -49 17.5t-19 42.5t19 42.5t49 17.5z" />
    <glyph glyph-name="ldot" unicode="&#x140;" horiz-adv-x="408" 
d="M268 142q0 -56 16.5 -85.5t69.5 -29.5v-27h-334v27q52 0 69 29.5t17 85.5v337q0 56 -17 85.5t-69 29.5v28q50 0 114.5 20.5t106.5 57.5h27v-558zM391 304q29 0 48 -17.5t19 -42.5t-19 -42.5t-48 -17.5q-30 0 -49 17.5t-19 42.5t19 42.5t49 17.5z" />
    <glyph glyph-name="Lslash" unicode="&#x141;" horiz-adv-x="672" 
d="M620 216h32l-16 -216h-616v27q53 0 73.5 30.5t20.5 84.5v86l-94 -56v44l94 55v286q0 54 -20.5 84.5t-73.5 30.5v28h358v-28q-53 0 -73.5 -30.5t-20.5 -84.5v-186l139 81v-43l-139 -82v-288h170q112 0 166 177z" />
    <glyph glyph-name="lslash" unicode="&#x142;" horiz-adv-x="364" 
d="M354 369l-86 -50v-177q0 -56 17 -85.5t69 -29.5v-27h-334v27q52 0 69 29.5t17 85.5v81l-86 -51v44l86 51v212q0 56 -17 85.5t-69 29.5v28q50 0 114.5 20.5t106.5 57.5h27v-338l86 51v-44z" />
    <glyph glyph-name="Nacute" unicode="&#x143;" horiz-adv-x="778" 
d="M530 700h228v-28q-56 0 -72.5 -24t-16.5 -91v-557h-61l-460 581v-439q0 -64 21.5 -89.5t78.5 -25.5v-27h-228v27q55 0 71.5 24t16.5 91v415q0 55 -18 85t-70 30v28h266l344 -428v285q0 65 -21.5 90t-78.5 25v28zM311 757q30 78 52 107q14 19 34 24t43 -13
q17 -23 12.5 -42.5t-23.5 -34.5q-13 -10 -40 -22.5t-47 -20.5l-20 -8z" />
    <glyph glyph-name="nacute" unicode="&#x144;" horiz-adv-x="718" 
d="M618 142q3 -25 5 -35.5t8 -29.5t14.5 -27.5t24.5 -15.5t38 -7v-27h-321v27q36 0 53.5 16.5t18.5 42t-2 56.5q-14 91 -20 128q-4 25 -6 35.5t-8 29t-14 26.5t-22.5 15t-34.5 7q-43 0 -64 -33t-21 -87v-121q0 -57 15 -86t67 -29v-27h-329v27q52 0 69 29.5t17 85.5v101
q0 56 -17 85.5t-69 29.5v27q49 0 113.5 20.5t106.5 57.5h27v-78q56 78 159 78q76 0 118 -43t55 -137zM266 507q30 78 52 107q14 19 34 24t43 -13q17 -23 12.5 -42.5t-23.5 -34.5q-13 -10 -40 -22.5t-47 -20.5l-20 -8z" />
    <glyph glyph-name="Ncommaaccent" unicode="&#x145;" horiz-adv-x="778" 
d="M530 700h228v-28q-56 0 -72.5 -24t-16.5 -91v-557h-61l-460 581v-439q0 -64 21.5 -89.5t78.5 -25.5v-27h-228v27q55 0 71.5 24t16.5 91v415q0 55 -18 85t-70 30v28h266l344 -428v285q0 65 -21.5 90t-78.5 25v28zM389 -57q35 0 57.5 -20.5t22.5 -50.5q0 -55 -33 -100.5
t-83 -64.5l-12 18q38 31 47 75q-35 1 -57 21.5t-22 50.5t22.5 50.5t57.5 20.5z" />
    <glyph glyph-name="ncommaaccent" unicode="&#x146;" horiz-adv-x="718" 
d="M618 142q3 -25 5 -35.5t8 -29.5t14.5 -27.5t24.5 -15.5t38 -7v-27h-321v27q36 0 53.5 16.5t18.5 42t-2 56.5q-14 91 -20 128q-4 25 -6 35.5t-8 29t-14 26.5t-22.5 15t-34.5 7q-43 0 -64 -33t-21 -87v-121q0 -57 15 -86t67 -29v-27h-329v27q52 0 69 29.5t17 85.5v101
q0 56 -17 85.5t-69 29.5v27q49 0 113.5 20.5t106.5 57.5h27v-78q56 78 159 78q76 0 118 -43t55 -137zM364 -57q35 0 57.5 -20.5t22.5 -50.5q0 -55 -33 -100.5t-83 -64.5l-12 18q38 31 47 75q-35 1 -57 21.5t-22 50.5t22.5 50.5t57.5 20.5z" />
    <glyph glyph-name="Ncaron" unicode="&#x147;" horiz-adv-x="778" 
d="M530 700h228v-28q-56 0 -72.5 -24t-16.5 -91v-557h-61l-460 581v-439q0 -64 21.5 -89.5t78.5 -25.5v-27h-228v27q55 0 71.5 24t16.5 91v415q0 55 -18 85t-70 30v28h266l344 -428v285q0 65 -21.5 90t-78.5 25v28zM530 879l9 -14l-104 -108h-73l-104 108l9 14l132 -58z" />
    <glyph glyph-name="ncaron" unicode="&#x148;" horiz-adv-x="718" 
d="M618 142q3 -25 5 -35.5t8 -29.5t14.5 -27.5t24.5 -15.5t38 -7v-27h-321v27q36 0 53.5 16.5t18.5 42t-2 56.5q-14 91 -20 128q-4 25 -6 35.5t-8 29t-14 26.5t-22.5 15t-34.5 7q-43 0 -64 -33t-21 -87v-121q0 -57 15 -86t67 -29v-27h-329v27q52 0 69 29.5t17 85.5v101
q0 56 -17 85.5t-69 29.5v27q49 0 113.5 20.5t106.5 57.5h27v-78q56 78 159 78q76 0 118 -43t55 -137zM495 629l9 -14l-104 -108h-73l-104 108l9 14l132 -58z" />
    <glyph glyph-name="napostrophe" unicode="&#x149;" horiz-adv-x="839" 
d="M739 142q3 -25 5 -35.5t8 -29.5t14.5 -27.5t24.5 -15.5t38 -7v-27h-321v27q36 0 53.5 16.5t18.5 42t-2 56.5q-14 91 -20 128q-4 25 -6 35.5t-8 29t-14 26.5t-22.5 15t-34.5 7q-43 0 -64 -33t-21 -87v-121q0 -57 15 -86t67 -29v-27h-329v27q52 0 69 29.5t17 85.5v101
q0 56 -17 85.5t-69 29.5v27q49 0 113.5 20.5t106.5 57.5h27v-78q56 78 159 78q76 0 118 -43t55 -137zM41 463q35 0 57.5 -20.5t22.5 -51.5q0 -56 -33.5 -102t-82.5 -64l-12 17q38 34 47 77q-35 0 -57.5 20.5t-22.5 51.5q0 30 23 51t58 21z" />
    <glyph glyph-name="Eng" unicode="&#x14a;" horiz-adv-x="778" 
d="M530 700h228v-28q-56 0 -72.5 -24t-16.5 -91v-557q0 -122 -35.5 -186.5t-121.5 -68.5q-71 -4 -136.5 32t-70.5 105q-4 49 26 79.5t73 28.5q39 -2 59 -25.5t20 -50.5q-51 -9 -52 -65q-1 -31 20 -52.5t56 -22.5q123 -3 123 226h-22l-460 581v-439q0 -64 21.5 -89.5
t78.5 -25.5v-27h-228v27q55 0 71.5 24t16.5 91v415q0 55 -18 85t-70 30v28h266l344 -428v285q0 65 -21.5 90t-78.5 25v28z" />
    <glyph glyph-name="eng" unicode="&#x14b;" horiz-adv-x="660" 
d="M624 88q11 -86 -1 -153.5t-42.5 -108t-71.5 -61t-90 -20.5q-72 0 -129.5 34.5t-62.5 102.5q-4 49 26 79.5t73 28.5q39 -2 59 -25.5t20 -50.5q-51 -9 -52 -65q-1 -32 16 -53t49 -22q51 -1 60 76t-12 212q-23 171 -28 208q-4 23 -6 35t-8 29.5t-14 26t-22.5 15t-34.5 6.5
q-43 0 -64 -33t-21 -86v-121q0 -57 15 -86t67 -29v-27h-330v27q52 0 69 29.5t17 85.5v101q0 56 -17 85.5t-69 29.5v27q50 0 114.5 20.5t106.5 57.5h27v-78q56 78 158 78q76 0 118 -43t55 -137z" />
    <glyph glyph-name="Omacron" unicode="&#x14c;" horiz-adv-x="737" 
d="M369 709q161 0 264.5 -102.5t103.5 -256.5q0 -155 -103.5 -257t-264.5 -102t-265 102t-104 257q0 154 104 256.5t265 102.5zM369 28q85 0 136.5 88t51.5 234t-51.5 233.5t-136.5 87.5q-86 0 -137.5 -88t-51.5 -233q0 -146 51.5 -234t137.5 -88zM231 838h275v-40h-275v40z
" />
    <glyph glyph-name="omacron" unicode="&#x14d;" horiz-adv-x="529" 
d="M260 463q113 0 186 -65.5t73 -170.5t-73 -170.5t-186 -65.5q-114 0 -187 65.5t-73 170.5t73 170.5t187 65.5zM294 30q45 8 61 66t0 148q-16 91 -50.5 139.5t-79.5 40.5t-60.5 -66t0.5 -148t50 -138.5t79 -41.5zM122 588h275v-40h-275v40z" />
    <glyph glyph-name="Obreve" unicode="&#x14e;" horiz-adv-x="737" 
d="M369 709q161 0 264.5 -102.5t103.5 -256.5q0 -155 -103.5 -257t-264.5 -102t-265 102t-104 257q0 154 104 256.5t265 102.5zM369 28q85 0 136.5 88t51.5 234t-51.5 233.5t-136.5 87.5q-86 0 -137.5 -88t-51.5 -233q0 -146 51.5 -234t137.5 -88zM368 750zM489 886
q0 -65 -31 -100.5t-90 -35.5t-89.5 35.5t-30.5 100.5h18q8 -29 33 -47.5t69 -18.5q84 0 103 66h18z" />
    <glyph glyph-name="obreve" unicode="&#x14f;" horiz-adv-x="529" 
d="M260 463q113 0 186 -65.5t73 -170.5t-73 -170.5t-186 -65.5q-114 0 -187 65.5t-73 170.5t73 170.5t187 65.5zM294 30q45 8 61 66t0 148q-16 91 -50.5 139.5t-79.5 40.5t-60.5 -66t0.5 -148t50 -138.5t79 -41.5zM259 500zM380 636q0 -65 -31 -100.5t-90 -35.5t-89.5 35.5
t-30.5 100.5h18q8 -29 33 -47.5t69 -18.5q84 0 103 66h18z" />
    <glyph glyph-name="Ohungarumlaut" unicode="&#x150;" horiz-adv-x="737" 
d="M369 709q161 0 264.5 -102.5t103.5 -256.5q0 -155 -103.5 -257t-264.5 -102t-265 102t-104 257q0 154 104 256.5t265 102.5zM369 28q85 0 136.5 88t51.5 234t-51.5 233.5t-136.5 87.5q-86 0 -137.5 -88t-51.5 -233q0 -146 51.5 -234t137.5 -88zM301 864q14 19 34 24
t42 -13q18 -23 13.5 -42.5t-23.5 -34.5q-13 -10 -40 -22.5t-47 -20.5l-20 -8l-11 10q29 78 52 107zM520 875q18 -23 13 -42.5t-24 -34.5q-13 -10 -39.5 -22.5t-47.5 -20.5l-20 -8l-10 10q29 78 51 107q15 19 34.5 24t42.5 -13z" />
    <glyph glyph-name="ohungarumlaut" unicode="&#x151;" horiz-adv-x="529" 
d="M260 463q113 0 186 -65.5t73 -170.5t-73 -170.5t-186 -65.5q-114 0 -187 65.5t-73 170.5t73 170.5t187 65.5zM294 30q45 8 61 66t0 148q-16 91 -50.5 139.5t-79.5 40.5t-60.5 -66t0.5 -148t50 -138.5t79 -41.5zM182 614q14 19 34 24t42 -13q18 -23 13.5 -42.5
t-23.5 -34.5q-13 -10 -40 -22.5t-47 -20.5l-20 -8l-11 10q29 78 52 107zM401 625q18 -23 13 -42.5t-24 -34.5q-13 -10 -39.5 -22.5t-46.5 -20.5l-21 -8l-10 10q29 78 51 107q15 19 34.5 24t42.5 -13z" />
    <glyph glyph-name="OE" unicode="&#x152;" horiz-adv-x="992" 
d="M950 216h32l-16 -216h-535q-209 0 -320 95t-111 255t111.5 255t319.5 95h500l15 -216h-31q-56 176 -166 176h-135v-290h13q33 0 48.5 1t38 7t32.5 19t19 37t12 61h28v-125v-40v-125h-28q-3 37 -12 61t-19 37t-32.5 19t-38 7t-48.5 1h-13v-291h170q112 0 166 177zM444 39
v621h-9q-258 0 -258 -310q0 -311 258 -311h9z" />
    <glyph glyph-name="oe" unicode="&#x153;" horiz-adv-x="863" 
d="M836 157q1 -1 3 -2.5t5.5 -4t5.5 -4.5l2 -3q-28 -65 -85.5 -108.5t-142.5 -43.5q-109 0 -182 62q-73 -62 -183 -62q-113 0 -186 65.5t-73 170.5t73 170.5t186 65.5q107 0 180 -60q72 60 182 60q103 0 162.5 -53.5t55.5 -150.5l-309 -52q12 -62 69 -91t125 -17.5t112 58.5
zM294 30q45 8 60.5 66t-0.5 148t-50.5 138.5t-79.5 41.5q-45 -8 -60.5 -66t0.5 -148t50.5 -138.5t79.5 -41.5zM603 427q-46 -4 -66.5 -55.5t-11.5 -125.5l164 28q3 76 -17 116.5t-69 36.5z" />
    <glyph glyph-name="Racute" unicode="&#x154;" horiz-adv-x="799" 
d="M638 142q23 -37 39 -57.5t46 -39t66 -18.5v-27h-194q-76 0 -108 62q-11 21 -61 117.5t-58 112.5q-19 -1 -62 -1h-22v-149q0 -54 20.5 -84.5t73.5 -30.5v-27h-358v27q53 0 73.5 30.5t20.5 84.5v415q0 54 -20.5 84.5t-73.5 30.5v28h286q349 0 349 -205q0 -123 -127 -172z
M302 330q172 0 172 165t-172 165h-18v-330h18zM296 757q30 78 52 107q14 19 34 24t43 -13q17 -23 12.5 -42.5t-23.5 -34.5q-13 -10 -40 -22.5t-47 -20.5l-20 -8z" />
    <glyph glyph-name="racute" unicode="&#x155;" horiz-adv-x="528" 
d="M422 463q52 -9 73.5 -49.5t4.5 -85.5q-16 -40 -52.5 -53t-65.5 -2q21 74 -29 91q-34 10 -58 -6t-27 -50v-166q0 -57 15 -86t67 -29v-27h-330v27q53 0 69.5 29.5t16.5 85.5v101q0 56 -16.5 85.5t-69.5 29.5v27q50 0 114.5 20.5t106.5 57.5h27v-90q56 106 154 90zM186 507
q30 78 52 107q14 19 34 24t43 -13q17 -23 12.5 -42.5t-23.5 -34.5q-13 -10 -40 -22.5t-47 -20.5l-20 -8z" />
    <glyph glyph-name="Rcommaaccent" unicode="&#x156;" horiz-adv-x="799" 
d="M638 142q23 -37 39 -57.5t46 -39t66 -18.5v-27h-194q-76 0 -108 62q-11 21 -61 117.5t-58 112.5q-19 -1 -62 -1h-22v-149q0 -54 20.5 -84.5t73.5 -30.5v-27h-358v27q53 0 73.5 30.5t20.5 84.5v415q0 54 -20.5 84.5t-73.5 30.5v28h286q349 0 349 -205q0 -123 -127 -172z
M302 330q172 0 172 165t-172 165h-18v-330h18zM404 -57q35 0 57.5 -20.5t22.5 -50.5q0 -55 -33 -100.5t-83 -64.5l-12 18q38 31 47 75q-35 1 -57 21.5t-22 50.5t22.5 50.5t57.5 20.5z" />
    <glyph glyph-name="rcommaaccent" unicode="&#x157;" horiz-adv-x="528" 
d="M422 463q52 -9 73.5 -49.5t4.5 -85.5q-16 -40 -52.5 -53t-65.5 -2q21 74 -29 91q-34 10 -58 -6t-27 -50v-166q0 -57 15 -86t67 -29v-27h-330v27q53 0 69.5 29.5t16.5 85.5v101q0 56 -16.5 85.5t-69.5 29.5v27q50 0 114.5 20.5t106.5 57.5h27v-90q56 106 154 90zM184 -57
q35 0 57.5 -20.5t22.5 -50.5q0 -55 -33 -100.5t-83 -64.5l-12 18q38 31 47 75q-35 1 -57 21.5t-22 50.5t22.5 50.5t57.5 20.5z" />
    <glyph glyph-name="Rcaron" unicode="&#x158;" horiz-adv-x="799" 
d="M638 142q23 -37 39 -57.5t46 -39t66 -18.5v-27h-194q-76 0 -108 62q-11 21 -61 117.5t-58 112.5q-19 -1 -62 -1h-22v-149q0 -54 20.5 -84.5t73.5 -30.5v-27h-358v27q53 0 73.5 30.5t20.5 84.5v415q0 54 -20.5 84.5t-73.5 30.5v28h286q349 0 349 -205q0 -123 -127 -172z
M302 330q172 0 172 165t-172 165h-18v-330h18zM456 879l9 -14l-104 -108h-73l-104 108l9 14l132 -58z" />
    <glyph glyph-name="rcaron" unicode="&#x159;" horiz-adv-x="528" 
d="M422 463q52 -9 73.5 -49.5t4.5 -85.5q-16 -40 -52.5 -53t-65.5 -2q21 74 -29 91q-34 10 -58 -6t-27 -50v-166q0 -57 15 -86t67 -29v-27h-330v27q53 0 69.5 29.5t16.5 85.5v101q0 56 -16.5 85.5t-69.5 29.5v27q50 0 114.5 20.5t106.5 57.5h27v-90q56 106 154 90zM395 629
l9 -14l-104 -108h-73l-104 108l9 14l132 -58z" />
    <glyph glyph-name="Sacute" unicode="&#x15a;" horiz-adv-x="582" 
d="M392 417q92 -50 122 -74q82 -68 65 -170q-10 -64 -59.5 -107.5t-114 -60.5t-132.5 -13q-101 6 -178 47.5t-91 108.5q-13 64 23 105t93 36q47 -5 76.5 -35.5t29.5 -62.5q-37 3 -61.5 -19.5t-15.5 -68.5q13 -68 128 -75q65 -4 106.5 23t49.5 69q5 29 -0.5 51t-33.5 44
t-44.5 31.5t-69.5 36.5q-10 5 -15 8q-102 54 -136 80q-87 68 -82 162q3 56 30 94t68.5 55t82.5 23t84 3q29 -2 57 -8.5t43 -11t28.5 -6t20.5 4.5t11 23h20l16 -225h-31q-21 93 -58 136.5t-107 50.5q-49 5 -86.5 -18t-39.5 -66q-1 -23 10.5 -44t37 -39.5t47 -31t57 -30.5
t49.5 -26zM213 757q30 78 52 107q14 19 34 24t43 -13q17 -23 12.5 -42.5t-23.5 -34.5q-13 -10 -40 -22.5t-47 -20.5l-20 -8z" />
    <glyph glyph-name="sacute" unicode="&#x15b;" horiz-adv-x="487" 
d="M319 296q8 -5 22 -12t23 -12t23 -13t23 -14t21 -16t18 -18.5t14.5 -21t9.5 -24t3.5 -27t-3.5 -31.5q-14 -67 -86.5 -94t-162.5 -22q-72 3 -136 30t-75 73t17.5 80.5t74.5 27.5q36 -5 54 -28t19 -56q-22 2 -34.5 -12.5t-8.5 -36.5q8 -36 92 -42q41 -2 69.5 11.5t31.5 37.5
q2 17 -2.5 30t-17.5 23.5t-27 19t-39 20.5q-15 7 -22 11q-36 19 -54 29.5t-45.5 33t-38.5 50t-7 61.5q6 46 38 73t72.5 34t88.5 2q17 -2 33 -6.5t24 -8t15 -4.5t10.5 3.5t6.5 15.5h17l10 -155h-24q-13 61 -33 87.5t-59 30.5q-58 8 -63 -35q-1 -6 0 -12t4 -11.5t6 -10
t10.5 -10t12.5 -9t15.5 -9.5l17.5 -10t20.5 -11t21.5 -12zM170 507q30 78 52 107q14 19 34 24t43 -13q17 -23 12.5 -42.5t-23.5 -34.5q-13 -10 -40 -22.5t-47 -20.5l-20 -8z" />
    <glyph glyph-name="Scircumflex" unicode="&#x15c;" horiz-adv-x="582" 
d="M392 417q92 -50 122 -74q82 -68 65 -170q-10 -64 -59.5 -107.5t-114 -60.5t-132.5 -13q-101 6 -178 47.5t-91 108.5q-13 64 23 105t93 36q47 -5 76.5 -35.5t29.5 -62.5q-37 3 -61.5 -19.5t-15.5 -68.5q13 -68 128 -75q65 -4 106.5 23t49.5 69q5 29 -0.5 51t-33.5 44
t-44.5 31.5t-69.5 36.5q-10 5 -15 8q-102 54 -136 80q-87 68 -82 162q3 56 30 94t68.5 55t82.5 23t84 3q29 -2 57 -8.5t43 -11t28.5 -6t20.5 4.5t11 23h20l16 -225h-31q-21 93 -58 136.5t-107 50.5q-49 5 -86.5 -18t-39.5 -66q-1 -23 10.5 -44t37 -39.5t47 -31t57 -30.5
t49.5 -26zM328 879l103 -108l-9 -14l-131 58l-131 -58l-9 14l103 108h74z" />
    <glyph glyph-name="scircumflex" unicode="&#x15d;" horiz-adv-x="487" 
d="M319 296q8 -5 22 -12t23 -12t23 -13t23 -14t21 -16t18 -18.5t14.5 -21t9.5 -24t3.5 -27t-3.5 -31.5q-14 -67 -86.5 -94t-162.5 -22q-72 3 -136 30t-75 73t17.5 80.5t74.5 27.5q36 -5 54 -28t19 -56q-22 2 -34.5 -12.5t-8.5 -36.5q8 -36 92 -42q41 -2 69.5 11.5t31.5 37.5
q2 17 -2.5 30t-17.5 23.5t-27 19t-39 20.5q-15 7 -22 11q-36 19 -54 29.5t-45.5 33t-38.5 50t-7 61.5q6 46 38 73t72.5 34t88.5 2q17 -2 33 -6.5t24 -8t15 -4.5t10.5 3.5t6.5 15.5h17l10 -155h-24q-13 61 -33 87.5t-59 30.5q-58 8 -63 -35q-1 -6 0 -12t4 -11.5t6 -10
t10.5 -10t12.5 -9t15.5 -9.5l17.5 -10t20.5 -11t21.5 -12zM285 629l103 -108l-9 -14l-131 58l-131 -58l-9 14l103 108h74z" />
    <glyph glyph-name="Scedilla" unicode="&#x15e;" horiz-adv-x="582" 
d="M392 417q92 -50 122 -74q82 -68 65 -170q-10 -60 -55 -102.5t-104 -61.5t-124 -18l-7 -40q92 20 141.5 -10t35.5 -84q-20 -82 -130 -73q-34 3 -65.5 20t-41.5 30l5 14q20 -7 42 -10.5t50 4.5t35 33q4 9 2.5 19.5t-6 18.5t-24 12t-51.5 1h-19l10 66q-102 6 -178.5 47.5
t-90.5 108.5q-13 64 23 105t93 36q47 -5 76.5 -35.5t29.5 -62.5q-37 3 -61.5 -19.5t-15.5 -68.5q13 -68 128 -75q65 -4 106.5 23t48.5 69q10 55 -24 87t-123 77q-10 4 -15 7q-102 54 -136 80q-87 68 -82 162q3 56 30 94.5t68.5 55.5t82.5 23t84 3q29 -2 57 -8.5t43 -11.5
t28.5 -6.5t20 4.5t10.5 23h21l16 -225h-32q-20 93 -57.5 136.5t-106.5 50.5q-49 5 -86.5 -18t-39.5 -66q-1 -23 10.5 -43.5t37.5 -39.5t47 -31.5t56.5 -30.5t49.5 -26z" />
    <glyph glyph-name="scedilla" unicode="&#x15f;" horiz-adv-x="487" 
d="M320 296q8 -5 21.5 -12t23 -12t23.5 -13t22.5 -14t20.5 -16t18 -18.5t14 -21t9.5 -24t4 -27t-3.5 -31.5q-9 -45 -48.5 -73t-87 -36.5t-102.5 -6.5l-7 -40q92 20 142 -10t36 -84q-22 -82 -131 -73q-34 3 -65.5 20t-41.5 30l5 14q14 -5 30 -7.5t37.5 -3.5t37.5 8.5t22 29.5
q4 9 2.5 19.5t-6 18.5t-24 12t-51.5 1h-19l10 67q-69 7 -128.5 33t-70.5 68q-11 46 17.5 80.5t74.5 27.5q71 -10 73 -83q-22 1 -34.5 -13.5t-7.5 -36.5q8 -36 91 -42q41 -2 69.5 11.5t31.5 37.5q4 32 -15.5 50t-72.5 44q-13 7 -20 10q-36 19 -54 29.5t-45.5 33t-38.5 50.5
t-7 62t23.5 58.5t47.5 35t61.5 15t66.5 -0.5q17 -2 33 -6.5t24 -8t15 -4.5t10.5 3.5t6.5 15.5h17l11 -155h-25q-13 62 -33 88t-59 30q-57 8 -63 -35q-1 -6 0 -12t4 -11.5t6.5 -10t10.5 -10t12.5 -9t16 -9.5l17.5 -10t20 -11t22 -12z" />
    <glyph glyph-name="Scaron" unicode="&#x160;" horiz-adv-x="582" 
d="M392 417q92 -50 122 -74q82 -68 65 -170q-10 -64 -59.5 -107.5t-114 -60.5t-132.5 -13q-101 6 -178 47.5t-91 108.5q-13 64 23 105t93 36q47 -5 76.5 -35.5t29.5 -62.5q-37 3 -61.5 -19.5t-15.5 -68.5q13 -68 128 -75q65 -4 106.5 23t49.5 69q5 29 -0.5 51t-33.5 44
t-44.5 31.5t-69.5 36.5q-10 5 -15 8q-102 54 -136 80q-87 68 -82 162q3 56 30 94t68.5 55t82.5 23t84 3q29 -2 57 -8.5t43 -11t28.5 -6t20.5 4.5t11 23h20l16 -225h-31q-21 93 -58 136.5t-107 50.5q-49 5 -86.5 -18t-39.5 -66q-1 -23 10.5 -44t37 -39.5t47 -31t57 -30.5
t49.5 -26zM422 879l9 -14l-104 -108h-73l-104 108l9 14l132 -58z" />
    <glyph glyph-name="scaron" unicode="&#x161;" horiz-adv-x="487" 
d="M319 296q8 -5 22 -12t23 -12t23 -13t23 -14t21 -16t18 -18.5t14.5 -21t9.5 -24t3.5 -27t-3.5 -31.5q-14 -67 -86.5 -94t-162.5 -22q-72 3 -136 30t-75 73t17.5 80.5t74.5 27.5q36 -5 54 -28t19 -56q-22 2 -34.5 -12.5t-8.5 -36.5q8 -36 92 -42q41 -2 69.5 11.5t31.5 37.5
q2 17 -2.5 30t-17.5 23.5t-27 19t-39 20.5q-15 7 -22 11q-36 19 -54 29.5t-45.5 33t-38.5 50t-7 61.5q6 46 38 73t72.5 34t88.5 2q17 -2 33 -6.5t24 -8t15 -4.5t10.5 3.5t6.5 15.5h17l10 -155h-24q-13 61 -33 87.5t-59 30.5q-58 8 -63 -35q-1 -6 0 -12t4 -11.5t6 -10
t10.5 -10t12.5 -9t15.5 -9.5l17.5 -10t20.5 -11t21.5 -12zM380 629l9 -14l-104 -108h-73l-104 108l9 14l132 -58z" />
    <glyph glyph-name="Tcommaaccent" unicode="&#x162;" horiz-adv-x="710" 
d="M674 700l16 -216h-32q-56 176 -166 176h-52v-518q0 -54 20 -84.5t73 -30.5v-27h-357v27q94 0 94 115v518h-52q-111 0 -166 -176h-32l16 216h638zM355 -57q35 0 57.5 -20.5t22.5 -50.5q0 -55 -33 -100.5t-83 -64.5l-12 18q38 31 47 75q-35 1 -57 21.5t-22 50.5t22.5 50.5
t57.5 20.5z" />
    <glyph glyph-name="tcommaaccent" unicode="&#x163;" horiz-adv-x="372" 
d="M343 111l19 -10q-46 -110 -139 -110q-63 0 -104 41.5t-41 118.5v263h-78v39q78 4 136 47.5t73 121.5h31v-169h106v-39h-106v-271q0 -33 10.5 -47t30.5 -18q39 -6 62 33zM171 -57q35 0 57.5 -20.5t22.5 -50.5q0 -55 -33 -100.5t-83 -64.5l-12 18q38 31 47 75
q-35 1 -57 21.5t-22 50.5t22.5 50.5t57.5 20.5z" />
    <glyph glyph-name="Tcaron" unicode="&#x164;" horiz-adv-x="710" 
d="M674 700l16 -216h-32q-56 176 -166 176h-52v-518q0 -54 20 -84.5t73 -30.5v-27h-357v27q94 0 94 115v518h-52q-111 0 -166 -176h-32l16 216h638zM486 879l9 -14l-104 -108h-73l-104 108l9 14l132 -58z" />
    <glyph glyph-name="tcaron" unicode="&#x165;" horiz-adv-x="427" 
d="M343 111l19 -10q-46 -110 -139 -110q-63 0 -104 41.5t-41 118.5v263h-78v39q78 4 136 47.5t73 121.5h31v-169h106v-39h-106v-271q0 -33 10.5 -47t30.5 -18q39 -6 62 33zM377 709q35 0 57.5 -20.5t22.5 -51.5q0 -56 -33.5 -102t-82.5 -64l-12 17q38 34 47 77
q-35 0 -57.5 20.5t-22.5 51.5q0 30 23 51t58 21z" />
    <glyph glyph-name="Tbar" unicode="&#x166;" horiz-adv-x="710" 
d="M674 700l16 -216h-32q-55 176 -166 176h-52v-290h136v-40h-136v-188q0 -115 94 -115v-27h-358v27q53 0 73.5 30.5t20.5 84.5v188h-136v40h136v290h-52q-111 0 -166 -176h-32l16 216h638z" />
    <glyph glyph-name="tbar" unicode="&#x167;" horiz-adv-x="371" 
d="M343 111l18 -10q-44 -110 -138 -110q-64 0 -104.5 41.5t-40.5 118.5v112h-78v39h78v112h-78v39q79 5 136.5 48.5t71.5 120.5h31v-169h107v-39h-107v-112h84v-39h-84v-120q0 -57 42 -65q38 -7 62 33z" />
    <glyph glyph-name="Utilde" unicode="&#x168;" horiz-adv-x="792" 
d="M555 700h217v-28q-56 0 -72.5 -24t-16.5 -91v-255q0 -66 -13 -120t-41.5 -98t-79.5 -68.5t-122 -24.5q-140 0 -227 81.5t-87 227.5v257q0 54 -20 84.5t-73 30.5v28h357v-28q-94 0 -94 -115v-257q0 -121 45 -186.5t136 -65.5q82 0 131 61t49 195v253q0 67 -16.5 91
t-72.5 24v28zM378 808q-26 0 -51 -27l-16 12q10 22 15.5 31.5t17.5 25.5t26.5 22.5t32.5 6.5q30 -1 62 -22.5t43 -23.5q37 -7 57 27l15 -9q-26 -92 -81 -94q-28 -1 -64 25t-57 26z" />
    <glyph glyph-name="utilde" unicode="&#x169;" horiz-adv-x="625" 
d="M598 75l17 -10q-35 -74 -115 -74q-106 0 -125 80q-54 -80 -158 -80q-79 0 -125.5 43.5t-47.5 133.5v75q0 27 -0.5 37.5t-4 29.5t-10.5 26.5t-22 14.5t-37 7v27q48 0 107 20.5t101 57.5h27v-279q0 -112 85 -112q81 0 81 119v52q0 27 -0.5 37.5t-4 29.5t-10.5 26.5
t-22 14.5t-37 7v27q48 0 107 20.5t102 57.5h27v-320q0 -43 4.5 -63.5t20.5 -25.5q24 -7 40 21zM225 558q-26 0 -51 -27l-16 12q10 22 15.5 31.5t17.5 25.5t26.5 22.5t32.5 6.5q30 -1 62 -22.5t43 -23.5q37 -7 57 27l15 -9q-26 -92 -81 -94q-28 -1 -64 25t-57 26z" />
    <glyph glyph-name="Umacron" unicode="&#x16a;" horiz-adv-x="792" 
d="M555 700h217v-28q-56 0 -72.5 -24t-16.5 -91v-255q0 -66 -13 -120t-41.5 -98t-79.5 -68.5t-122 -24.5q-140 0 -227 81.5t-87 227.5v257q0 54 -20 84.5t-73 30.5v28h357v-28q-94 0 -94 -115v-257q0 -121 45 -186.5t136 -65.5q82 0 131 61t49 195v253q0 67 -16.5 91
t-72.5 24v28zM308 838h275v-40h-275v40z" />
    <glyph glyph-name="umacron" unicode="&#x16b;" horiz-adv-x="625" 
d="M598 75l17 -10q-35 -74 -115 -74q-106 0 -125 80q-54 -80 -158 -80q-79 0 -125.5 43.5t-47.5 133.5v75q0 27 -0.5 37.5t-4 29.5t-10.5 26.5t-22 14.5t-37 7v27q48 0 107 20.5t101 57.5h27v-279q0 -112 85 -112q81 0 81 119v52q0 27 -0.5 37.5t-4 29.5t-10.5 26.5
t-22 14.5t-37 7v27q48 0 107 20.5t102 57.5h27v-320q0 -43 4.5 -63.5t20.5 -25.5q24 -7 40 21zM155 588h275v-40h-275v40z" />
    <glyph glyph-name="Ubreve" unicode="&#x16c;" horiz-adv-x="792" 
d="M555 700h217v-28q-56 0 -72.5 -24t-16.5 -91v-255q0 -66 -13 -120t-41.5 -98t-79.5 -68.5t-122 -24.5q-140 0 -227 81.5t-87 227.5v257q0 54 -20 84.5t-73 30.5v28h357v-28q-94 0 -94 -115v-257q0 -121 45 -186.5t136 -65.5q82 0 131 61t49 195v253q0 67 -16.5 91
t-72.5 24v28zM435 750zM556 886q0 -65 -31 -100.5t-90 -35.5t-89.5 35.5t-30.5 100.5h18q8 -29 33 -47.5t69 -18.5q84 0 103 66h18z" />
    <glyph glyph-name="ubreve" unicode="&#x16d;" horiz-adv-x="625" 
d="M598 75l17 -10q-35 -74 -115 -74q-106 0 -125 80q-54 -80 -158 -80q-79 0 -125.5 43.5t-47.5 133.5v75q0 27 -0.5 37.5t-4 29.5t-10.5 26.5t-22 14.5t-37 7v27q48 0 107 20.5t101 57.5h27v-279q0 -112 85 -112q81 0 81 119v52q0 27 -0.5 37.5t-4 29.5t-10.5 26.5
t-22 14.5t-37 7v27q48 0 107 20.5t102 57.5h27v-320q0 -43 4.5 -63.5t20.5 -25.5q24 -7 40 21zM292 500zM413 636q0 -65 -31 -100.5t-90 -35.5t-89.5 35.5t-30.5 100.5h18q8 -29 33 -47.5t69 -18.5q84 0 103 66h18z" />
    <glyph glyph-name="Uring" unicode="&#x16e;" horiz-adv-x="792" 
d="M555 700h217v-28q-56 0 -72.5 -24t-16.5 -91v-255q0 -66 -13 -120t-41.5 -98t-79.5 -68.5t-122 -24.5q-140 0 -227 81.5t-87 227.5v257q0 54 -20 84.5t-73 30.5v28h357v-28q-94 0 -94 -115v-257q0 -121 45 -186.5t136 -65.5q82 0 131 61t49 195v253q0 67 -16.5 91
t-72.5 24v28zM445 743q-32 0 -55 23.5t-23 55.5t23 55.5t55 23.5q33 0 56 -23.5t23 -55.5t-23 -55.5t-56 -23.5zM445 865q-17 0 -30 -12.5t-13 -30.5t13 -30.5t30 -12.5q18 0 31 12.5t13 30.5t-13 30.5t-31 12.5z" />
    <glyph glyph-name="uring" unicode="&#x16f;" horiz-adv-x="625" 
d="M598 75l17 -10q-35 -74 -115 -74q-106 0 -125 80q-54 -80 -158 -80q-79 0 -125.5 43.5t-47.5 133.5v75q0 27 -0.5 37.5t-4 29.5t-10.5 26.5t-22 14.5t-37 7v27q48 0 107 20.5t101 57.5h27v-279q0 -112 85 -112q81 0 81 119v52q0 27 -0.5 37.5t-4 29.5t-10.5 26.5
t-22 14.5t-37 7v27q48 0 107 20.5t102 57.5h27v-320q0 -43 4.5 -63.5t20.5 -25.5q24 -7 40 21zM292 493q-32 0 -55 23.5t-23 55.5t23 55.5t55 23.5q33 0 56 -23.5t23 -55.5t-23 -55.5t-56 -23.5zM292 615q-17 0 -30 -12.5t-13 -30.5t13 -30.5t30 -12.5q18 0 31 12.5t13 30.5
t-13 30.5t-31 12.5z" />
    <glyph glyph-name="Uhungarumlaut" unicode="&#x170;" horiz-adv-x="792" 
d="M555 700h217v-28q-56 0 -72.5 -24t-16.5 -91v-255q0 -66 -13 -120t-41.5 -98t-79.5 -68.5t-122 -24.5q-140 0 -227 81.5t-87 227.5v257q0 54 -20 84.5t-73 30.5v28h357v-28q-94 0 -94 -115v-257q0 -121 45 -186.5t136 -65.5q82 0 131 61t49 195v253q0 67 -16.5 91
t-72.5 24v28zM398 864q14 19 34 24t42 -13q18 -23 13.5 -42.5t-23.5 -34.5q-13 -10 -40 -22.5t-47 -20.5l-20 -8l-11 10q29 78 52 107zM617 875q18 -23 13 -42.5t-24 -34.5q-13 -10 -39.5 -22.5t-46.5 -20.5l-21 -8l-10 10q29 78 51 107q15 19 34.5 24t42.5 -13z" />
    <glyph glyph-name="uhungarumlaut" unicode="&#x171;" horiz-adv-x="625" 
d="M598 75l17 -10q-35 -74 -115 -74q-106 0 -125 80q-54 -80 -158 -80q-79 0 -125.5 43.5t-47.5 133.5v75q0 27 -0.5 37.5t-4 29.5t-10.5 26.5t-22 14.5t-37 7v27q48 0 107 20.5t101 57.5h27v-279q0 -112 85 -112q81 0 81 119v52q0 27 -0.5 37.5t-4 29.5t-10.5 26.5
t-22 14.5t-37 7v27q48 0 107 20.5t102 57.5h27v-320q0 -43 4.5 -63.5t20.5 -25.5q24 -7 40 21zM235 614q14 19 34 24t42 -13q18 -23 13.5 -42.5t-23.5 -34.5q-13 -10 -40 -22.5t-47 -20.5l-20 -8l-11 10q29 78 52 107zM454 625q18 -23 13 -42.5t-24 -34.5
q-13 -10 -39.5 -22.5t-47.5 -20.5l-20 -8l-10 10q29 78 51 107q15 19 34.5 24t42.5 -13z" />
    <glyph glyph-name="Uogonek" unicode="&#x172;" horiz-adv-x="792" 
d="M556 700h216v-28q-55 0 -72 -24t-17 -91v-255q0 -262 -185 -303q-26 -16 -40 -50t-2 -59q13 -27 45.5 -27t50.5 21l10 -9q-20 -53 -60.5 -75.5t-76.5 -13.5t-51 39q-20 40 4 85t72 82q-7 -1 -23 -1q-140 0 -226.5 81.5t-86.5 227.5v257q0 115 -94 115v28h357v-28
q-94 0 -94 -115v-257q0 -121 45 -186.5t136 -65.5q82 0 131 61t49 195v253q0 67 -16.5 91t-71.5 24v28z" />
    <glyph glyph-name="uogonek" unicode="&#x173;" horiz-adv-x="626" 
d="M605 -116l11 -9q-21 -53 -61.5 -75.5t-76.5 -13.5t-51 39q-19 40 4.5 84.5t71.5 81.5h-3q-105 0 -124 80q-55 -80 -159 -80q-79 0 -125.5 43.5t-47.5 133.5v75q0 27 -0.5 37.5t-4 29.5t-10.5 26.5t-22 14.5t-37 7v27q48 0 107 20.5t102 57.5h27v-279q0 -112 85 -112
q81 0 81 119v52q0 27 -0.5 37.5t-4 29.5t-10.5 26.5t-22 14.5t-37 7v27q48 0 107 20.5t101 57.5h27v-320q0 -42 4.5 -63t20.5 -26q25 -6 41 21l17 -10q-24 -49 -62 -64q-27 -15 -42 -50t-3 -61q13 -27 45.5 -27t50.5 21z" />
    <glyph glyph-name="Wcircumflex" unicode="&#x174;" horiz-adv-x="1140" 
d="M883 700h247v-28q-27 0 -47 -8.5t-34.5 -27.5t-22.5 -34.5t-19 -44.5l-206 -557h-48l-183 446l-160 -446h-48l-235 557q-33 70 -51 88q-25 27 -66 27v28h346v-28q-56 0 -68 -28t13 -87l144 -338l102 283l-23 55q-3 6 -10.5 23t-10.5 22.5t-10 18.5t-11.5 18t-13 13
t-16.5 11.5t-19 6t-24 2.5v28h345v-28q-56 0 -68.5 -28t11.5 -87l141 -340l125 340q18 62 -2 88.5t-78 26.5v28zM627 879l103 -108l-9 -14l-131 58l-131 -58l-9 14l103 108h74z" />
    <glyph glyph-name="wcircumflex" unicode="&#x175;" horiz-adv-x="821" 
d="M655 453h176v-27q-35 0 -54 -15t-33 -50l-148 -361h-68l-112 287l-117 -287h-68l-160 361q-16 36 -31.5 50.5t-49.5 14.5v27h292v-27q-35 0 -45 -14t4 -51l85 -205l73 176l-12 29q-9 20 -13 28.5t-13 19t-21 14t-30 3.5v27h293v-27q-36 0 -48 -14.5t0 -50.5l69 -203
l84 203q14 41 2 53t-55 12v27zM487 629l103 -108l-9 -14l-131 58l-131 -58l-9 14l103 108h74z" />
    <glyph glyph-name="Ycircumflex" unicode="&#x176;" horiz-adv-x="750" 
d="M513 700h227v-28q-37 0 -64.5 -29.5t-59.5 -85.5l-141 -258v-157q0 -115 94 -115v-27h-354v27q53 0 73.5 30.5t20.5 84.5v123l-177 292q-37 57 -64.5 86t-57.5 29v28h345v-28q-53 0 -66.5 -28t18.5 -87l135 -235l130 235q29 53 14 84t-73 31v28zM452 879l103 -108l-9 -14
l-131 58l-131 -58l-9 14l103 108h74z" />
    <glyph glyph-name="ycircumflex" unicode="&#x177;" horiz-adv-x="525" 
d="M359 453h176v-27q-35 0 -54.5 -16t-32.5 -49l-145 -361q-14 -35 -19 -48.5t-20 -47t-25 -50t-27.5 -41.5t-33 -37t-37 -21.5t-43.5 -9.5q-29 0 -53.5 13t-34.5 38q-15 40 4 74t48 48q27 -49 89 -44q70 8 115 117l-196 386q-27 49 -80 49v27h292v-27q-34 0 -42 -14t6 -51
l89 -192l77 192q13 27 7.5 41.5t-19 19t-41.5 4.5v27zM339 629l103 -108l-9 -14l-131 58l-131 -58l-9 14l103 108h74z" />
    <glyph glyph-name="Ydieresis" unicode="&#x178;" horiz-adv-x="750" 
d="M513 700h227v-28q-37 0 -64.5 -29.5t-59.5 -85.5l-141 -258v-157q0 -115 94 -115v-27h-354v27q53 0 73.5 30.5t20.5 84.5v123l-177 292q-37 57 -64.5 86t-57.5 29v28h345v-28q-53 0 -66.5 -28t18.5 -87l135 -235l130 235q29 53 14 84t-73 31v28zM329 878q29 0 48 -17.5
t19 -42.5t-19 -42.5t-48 -17.5q-30 0 -49 17.5t-19 42.5t19 42.5t49 17.5zM500 878q30 0 49 -17.5t19 -42.5t-19 -42.5t-49 -17.5q-29 0 -48 17.5t-19 42.5t19 42.5t48 17.5z" />
    <glyph glyph-name="Zacute" unicode="&#x179;" horiz-adv-x="627" 
d="M607 700v-28l-389 -633h188q110 0 166 177h31l-16 -216h-567v27l390 633h-169q-111 0 -166 -176h-32l16 216h548zM265 757q30 78 52 107q14 19 34 24t43 -13q17 -23 12.5 -42.5t-23.5 -34.5q-13 -10 -40 -22.5t-47 -20.5l-20 -8z" />
    <glyph glyph-name="zacute" unicode="&#x17a;" horiz-adv-x="464" 
d="M420 152h24l-10 -152h-414v27l237 387h-93q-39 0 -63 -29t-41 -83h-25l11 151h391v-27l-237 -387h116q39 0 62.5 29t41.5 84zM204 507q30 78 52 107q14 19 34 24t43 -13q17 -23 12.5 -42.5t-23.5 -34.5q-13 -10 -40 -22.5t-47 -20.5l-20 -8z" />
    <glyph glyph-name="Zdotaccent" unicode="&#x17b;" horiz-adv-x="627" 
d="M607 700v-28l-389 -633h188q110 0 166 177h31l-16 -216h-567v27l390 633h-169q-111 0 -166 -176h-32l16 216h548zM364 878q29 0 48 -17.5t19 -42.5t-19 -42.5t-48 -17.5q-30 0 -49 17.5t-19 42.5t19 42.5t49 17.5z" />
    <glyph glyph-name="zdotaccent" unicode="&#x17c;" horiz-adv-x="464" 
d="M420 152h24l-10 -152h-414v27l237 387h-93q-39 0 -63 -29t-41 -83h-25l11 151h391v-27l-237 -387h116q39 0 62.5 29t41.5 84zM262 628q29 0 48 -17.5t19 -42.5t-19 -42.5t-48 -17.5q-30 0 -49 17.5t-19 42.5t19 42.5t49 17.5z" />
    <glyph glyph-name="Zcaron" unicode="&#x17d;" horiz-adv-x="627" 
d="M607 700v-28l-389 -633h188q110 0 166 177h31l-16 -216h-567v27l390 633h-169q-111 0 -166 -176h-32l16 216h548zM475 879l9 -14l-104 -108h-73l-104 108l9 14l132 -58z" />
    <glyph glyph-name="zcaron" unicode="&#x17e;" horiz-adv-x="464" 
d="M420 152h24l-10 -152h-414v27l237 387h-93q-39 0 -63 -29t-41 -83h-25l11 151h391v-27l-237 -387h116q39 0 62.5 29t41.5 84zM383 629l9 -14l-104 -108h-73l-104 108l9 14l132 -58z" />
    <glyph glyph-name="longs" unicode="&#x17f;" horiz-adv-x="389" 
d="M328 558q6 12 8.5 30t1 38t-15 33.5t-37.5 13.5q-37 0 -49.5 -32.5t3.5 -73.5q28 -82 28 -156v-268q0 -115 102 -115v-28h-350v28q52 0 69 29.5t17 85.5v271h-83v40h83v5q0 119 41.5 184.5t144.5 65.5q71 0 118 -27.5t41 -77.5q-4 -29 -27 -42.5t-48 -12.5t-47 9z" />
    <glyph glyph-name="AEacute" unicode="&#x1fc;" horiz-adv-x="1056" 
d="M1014 216h32l-16 -216h-616v27q94 0 94 115v57h-259l-36 -57q-72 -115 44 -115v-27h-247v27q52 0 89 30.5t70 84.5l267 426q16 26 23.5 43t8.5 32t-12.5 22t-41.5 7v28h581l15 -216h-31q-56 176 -166 176h-136v-290h14q33 0 48.5 1t38 7t32.5 19t19 37t12 61h27v-290h-27
q-3 37 -12 61t-19 37t-32.5 19t-38 7t-48.5 1h-14v-291h171q112 0 166 177zM274 238h234v371zM570 757q30 78 52 107q14 19 34 24t43 -13q17 -23 12.5 -42.5t-23.5 -34.5q-13 -10 -40 -22.5t-47 -20.5l-20 -8z" />
    <glyph glyph-name="aeacute" unicode="&#x1fd;" horiz-adv-x="818" 
d="M791 157q17 -13 17 -14q-28 -65 -85.5 -108.5t-142.5 -43.5q-77 0 -137 32t-93 86q-22 -118 -162 -118q-156 0 -175 100q-11 59 23 103.5t119 61.5q23 5 51.5 8t42.5 4.5t28 7t17.5 17t0.5 31.5q-18 104 -76 104q-30 2 -50.5 -14t-20.5 -36.5t17 -38.5
q-16 -30 -44.5 -37.5t-47.5 4.5q-44 22 -24 76q17 44 65.5 62.5t102.5 18.5q132 0 187 -52q70 52 172 52q103 0 163 -53.5t56 -150.5l-309 -52q12 -62 69 -91t125 -17.5t111 58.5zM260 53q64 16 57 102q-2 27 -10 98q-7 -12 -19.5 -18.5t-50.5 -16.5q-34 -10 -53 -37
t-13 -64q4 -34 32 -53t57 -11zM558 427q-46 -4 -66.5 -55.5t-10.5 -125.5l163 28q4 76 -16.5 116.5t-69.5 36.5zM345 507q30 78 52 107q14 19 34 24t43 -13q17 -23 12.5 -42.5t-23.5 -34.5q-13 -10 -40 -22.5t-47 -20.5l-20 -8z" />
    <glyph glyph-name="Oslashacute" unicode="&#x1fe;" horiz-adv-x="737" 
d="M609 628q61 -49 94.5 -121t33.5 -157q0 -155 -103.5 -257t-264.5 -102q-119 0 -210 58l-38 -49h-48l56 71q-129 104 -129 279q0 154 104 256.5t265 102.5q118 0 210 -59l38 49h47zM180 350q0 -100 27 -178l307 395q-52 104 -145 104q-86 0 -137.5 -88t-51.5 -233zM369 28
q85 0 136.5 88t51.5 234q0 103 -26 178l-308 -396q52 -104 146 -104zM280 757q30 78 52 107q14 19 34 24t43 -13q17 -23 12.5 -42.5t-23.5 -34.5q-13 -10 -40 -22.5t-47 -20.5l-20 -8z" />
    <glyph glyph-name="oslashacute" unicode="&#x1ff;" horiz-adv-x="529" 
d="M445 399q74 -66 74 -172q0 -105 -73 -170.5t-186 -65.5q-92 0 -157 43l-32 -34h-48l52 55q-75 65 -75 172q0 105 73 170.5t187 65.5q91 0 157 -43l32 33h47zM165 210q5 -31 10 -48l157 167q-40 107 -107 95q-45 -8 -60.5 -66t0.5 -148zM294 30q45 8 61 66t0 148
q-4 22 -11 47l-157 -167q42 -106 107 -94zM161 507q30 78 52 107q14 19 34 24t43 -13q17 -23 12.5 -42.5t-23.5 -34.5q-13 -10 -40 -22.5t-47 -20.5l-20 -8z" />
    <glyph glyph-name="Scommaaccent" unicode="&#x218;" horiz-adv-x="582" 
d="M392 417q92 -50 122 -74q82 -68 65 -170q-10 -64 -59.5 -107.5t-114 -60.5t-132.5 -13q-101 6 -178 47.5t-91 108.5q-13 64 23 105t93 36q47 -5 76.5 -35.5t29.5 -62.5q-37 3 -61.5 -19.5t-15.5 -68.5q13 -68 128 -75q65 -4 106.5 23t49.5 69q5 29 -0.5 51t-33.5 44
t-44.5 31.5t-69.5 36.5q-10 5 -15 8q-102 54 -136 80q-87 68 -82 162q3 56 30 94t68.5 55t82.5 23t84 3q29 -2 57 -8.5t43 -11t28.5 -6t20.5 4.5t11 23h20l16 -225h-31q-21 93 -58 136.5t-107 50.5q-49 5 -86.5 -18t-39.5 -66q-1 -23 10.5 -44t37 -39.5t47 -31t57 -30.5
t49.5 -26zM304 -57q35 0 57.5 -20.5t22.5 -50.5q0 -55 -33 -100.5t-83 -64.5l-12 18q38 31 47 75q-35 1 -57 21.5t-22 50.5t22.5 50.5t57.5 20.5z" />
    <glyph glyph-name="scommaaccent" unicode="&#x219;" horiz-adv-x="487" 
d="M319 296q8 -5 22 -12t23 -12t23 -13t23 -14t21 -16t18 -18.5t14.5 -21t9.5 -24t3.5 -27t-3.5 -31.5q-14 -67 -86.5 -94t-162.5 -22q-72 3 -136 30t-75 73t17.5 80.5t74.5 27.5q36 -5 54 -28t19 -56q-22 2 -34.5 -12.5t-8.5 -36.5q8 -36 92 -42q41 -2 69.5 11.5t31.5 37.5
q2 17 -2.5 30t-17.5 23.5t-27 19t-39 20.5q-15 7 -22 11q-36 19 -54 29.5t-45.5 33t-38.5 50t-7 61.5q6 46 38 73t72.5 34t88.5 2q17 -2 33 -6.5t24 -8t15 -4.5t10.5 3.5t6.5 15.5h17l10 -155h-24q-13 61 -33 87.5t-59 30.5q-58 8 -63 -35q-1 -6 0 -12t4 -11.5t6 -10
t10.5 -10t12.5 -9t15.5 -9.5l17.5 -10t20.5 -11t21.5 -12zM248 -57q35 0 57.5 -20.5t22.5 -50.5q0 -55 -33 -100.5t-83 -64.5l-12 18q38 31 47 75q-35 1 -57 21.5t-22 50.5t22.5 50.5t57.5 20.5z" />
    <glyph glyph-name="circumflex" unicode="&#x2c6;" horiz-adv-x="320" 
d="M197 679l103 -108l-9 -14l-131 58l-131 -58l-9 14l103 108h74z" />
    <glyph glyph-name="caron" unicode="&#x2c7;" horiz-adv-x="321" 
d="M292 679l9 -14l-104 -108h-73l-104 108l9 14l132 -58z" />
    <glyph glyph-name="breve" unicode="&#x2d8;" horiz-adv-x="281" 
d="M140 550zM261 686q0 -65 -31 -100.5t-90 -35.5t-89.5 35.5t-30.5 100.5h18q8 -29 33 -47.5t69 -18.5q84 0 103 66h18z" />
    <glyph glyph-name="dotaccent" unicode="&#x2d9;" horiz-adv-x="175" 
d="M88 678q29 0 48 -17.5t19 -42.5t-19 -42.5t-48 -17.5q-30 0 -49 17.5t-19 42.5t19 42.5t49 17.5z" />
    <glyph glyph-name="ring" unicode="&#x2da;" horiz-adv-x="197" 
d="M98 543q-32 0 -55 23.5t-23 55.5t23 55.5t55 23.5q33 0 56 -23.5t23 -55.5t-23 -55.5t-56 -23.5zM98 665q-17 0 -30 -12.5t-13 -30.5t13 -30.5t30 -12.5q18 0 31 12.5t13 30.5t-13 30.5t-31 12.5z" />
    <glyph glyph-name="ogonek" unicode="&#x2db;" horiz-adv-x="237" 
d="M207 -116l10 -9q-20 -52 -60.5 -75t-76.5 -14t-51 39q-24 49 16 105t103 90l8 -20q-27 -15 -42 -49.5t-3 -60.5q13 -26 46.5 -26.5t49.5 20.5z" />
    <glyph glyph-name="tilde" unicode="&#x2dc;" horiz-adv-x="309" 
d="M87 608q-26 0 -51 -27l-16 12q10 22 15.5 31.5t17.5 25.5t26.5 22.5t32.5 6.5q30 -1 62 -22.5t43 -23.5q37 -7 57 27l15 -9q-26 -92 -81 -94q-28 -1 -64 25t-57 26z" />
    <glyph glyph-name="hungarumlaut" unicode="&#x2dd;" horiz-adv-x="326" 
d="M72 664q14 19 34 24t42 -13q18 -23 13.5 -42.5t-23.5 -34.5q-13 -10 -40 -22.5t-47 -20.5l-20 -8l-11 10q29 78 52 107zM291 675q18 -23 13 -42.5t-24 -34.5q-13 -10 -39.5 -22.5t-46.5 -20.5l-21 -8l-10 10q29 78 51 107q15 19 34.5 24t42.5 -13z" />
    <glyph glyph-name="Wgrave" unicode="&#x1e80;" horiz-adv-x="1140" 
d="M883 700h247v-28q-27 0 -47 -8.5t-34.5 -27.5t-22.5 -34.5t-19 -44.5l-206 -557h-48l-183 446l-160 -446h-48l-235 557q-33 70 -51 88q-25 27 -66 27v28h346v-28q-56 0 -68 -28t13 -87l144 -338l102 283l-23 55q-3 6 -10.5 23t-10.5 22.5t-10 18.5t-11.5 18t-13 13
t-16.5 11.5t-19 6t-24 2.5v28h345v-28q-56 0 -68.5 -28t11.5 -87l141 -340l125 340q18 62 -2 88.5t-78 26.5v28zM667 757l-10 -10q-78 29 -107 51q-19 15 -24 34.5t13 42.5q23 18 42.5 13t34.5 -24q10 -13 22.5 -39.5t20.5 -46.5z" />
    <glyph glyph-name="wgrave" unicode="&#x1e81;" horiz-adv-x="821" 
d="M655 453h176v-27q-35 0 -54 -15t-33 -50l-148 -361h-68l-112 287l-117 -287h-68l-160 361q-16 36 -31.5 50.5t-49.5 14.5v27h292v-27q-35 0 -45 -14t4 -51l85 -205l73 176l-12 29q-9 20 -13 28.5t-13 19t-21 14t-30 3.5v27h293v-27q-36 0 -48 -14.5t0 -50.5l69 -203
l84 203q14 41 2 53t-55 12v27zM508 507l-10 -10q-78 29 -107 51q-19 15 -24 34.5t13 42.5q23 18 42.5 13t34.5 -24q10 -13 22.5 -39.5t20.5 -46.5z" />
    <glyph glyph-name="Wacute" unicode="&#x1e82;" horiz-adv-x="1140" 
d="M883 700h247v-28q-27 0 -47 -8.5t-34.5 -27.5t-22.5 -34.5t-19 -44.5l-206 -557h-48l-183 446l-160 -446h-48l-235 557q-33 70 -51 88q-25 27 -66 27v28h346v-28q-56 0 -68 -28t13 -87l144 -338l102 283l-23 55q-3 6 -10.5 23t-10.5 22.5t-10 18.5t-11.5 18t-13 13
t-16.5 11.5t-19 6t-24 2.5v28h345v-28q-56 0 -68.5 -28t11.5 -87l141 -340l125 340q18 62 -2 88.5t-78 26.5v28zM512 757q30 78 52 107q14 19 34 24t43 -13q17 -23 12.5 -42.5t-23.5 -34.5q-13 -10 -40 -22.5t-47 -20.5l-20 -8z" />
    <glyph glyph-name="wacute" unicode="&#x1e83;" horiz-adv-x="821" 
d="M655 453h176v-27q-35 0 -54 -15t-33 -50l-148 -361h-68l-112 287l-117 -287h-68l-160 361q-16 36 -31.5 50.5t-49.5 14.5v27h292v-27q-35 0 -45 -14t4 -51l85 -205l73 176l-12 29q-9 20 -13 28.5t-13 19t-21 14t-30 3.5v27h293v-27q-36 0 -48 -14.5t0 -50.5l69 -203
l84 203q14 41 2 53t-55 12v27zM372 507q30 78 52 107q14 19 34 24t43 -13q17 -23 12.5 -42.5t-23.5 -34.5q-13 -10 -40 -22.5t-47 -20.5l-20 -8z" />
    <glyph glyph-name="Wdieresis" unicode="&#x1e84;" horiz-adv-x="1140" 
d="M883 700h247v-28q-27 0 -47 -8.5t-34.5 -27.5t-22.5 -34.5t-19 -44.5l-206 -557h-48l-183 446l-160 -446h-48l-235 557q-33 70 -51 88q-25 27 -66 27v28h346v-28q-56 0 -68 -28t13 -87l144 -338l102 283l-23 55q-3 6 -10.5 23t-10.5 22.5t-10 18.5t-11.5 18t-13 13
t-16.5 11.5t-19 6t-24 2.5v28h345v-28q-56 0 -68.5 -28t11.5 -87l141 -340l125 340q18 62 -2 88.5t-78 26.5v28zM504 878q29 0 48 -17.5t19 -42.5t-19 -42.5t-48 -17.5q-30 0 -49 17.5t-19 42.5t19 42.5t49 17.5zM675 878q30 0 49 -17.5t19 -42.5t-19 -42.5t-49 -17.5
q-29 0 -48 17.5t-19 42.5t19 42.5t48 17.5z" />
    <glyph glyph-name="wdieresis" unicode="&#x1e85;" horiz-adv-x="821" 
d="M655 453h176v-27q-35 0 -54 -15t-33 -50l-148 -361h-68l-112 287l-117 -287h-68l-160 361q-16 36 -31.5 50.5t-49.5 14.5v27h292v-27q-35 0 -45 -14t4 -51l85 -205l73 176l-12 29q-9 20 -13 28.5t-13 19t-21 14t-30 3.5v27h293v-27q-36 0 -48 -14.5t0 -50.5l69 -203
l84 203q14 41 2 53t-55 12v27zM365 628q29 0 48 -17.5t19 -42.5t-19 -42.5t-48 -17.5q-30 0 -49 17.5t-19 42.5t19 42.5t49 17.5zM536 628q30 0 49 -17.5t19 -42.5t-19 -42.5t-49 -17.5q-29 0 -48 17.5t-19 42.5t19 42.5t48 17.5z" />
    <glyph glyph-name="Ygrave" unicode="&#x1ef2;" horiz-adv-x="750" 
d="M513 700h227v-28q-37 0 -64.5 -29.5t-59.5 -85.5l-141 -258v-157q0 -115 94 -115v-27h-354v27q53 0 73.5 30.5t20.5 84.5v123l-177 292q-37 57 -64.5 86t-57.5 29v28h345v-28q-53 0 -66.5 -28t18.5 -87l135 -235l130 235q29 53 14 84t-73 31v28zM482 757l-10 -10
q-78 29 -107 51q-19 15 -24 34.5t13 42.5q23 18 42.5 13t34.5 -24q10 -13 22.5 -39.5t20.5 -46.5z" />
    <glyph glyph-name="ygrave" unicode="&#x1ef3;" horiz-adv-x="525" 
d="M359 453h176v-27q-35 0 -54.5 -16t-32.5 -49l-145 -361q-14 -35 -19 -48.5t-20 -47t-25 -50t-27.5 -41.5t-33 -37t-37 -21.5t-43.5 -9.5q-29 0 -53.5 13t-34.5 38q-15 40 4 74t48 48q27 -49 89 -44q70 8 115 117l-196 386q-27 49 -80 49v27h292v-27q-34 0 -42 -14t6 -51
l89 -192l77 192q13 27 7.5 41.5t-19 19t-41.5 4.5v27zM370 507l-10 -10q-78 29 -107 51q-19 15 -24 34.5t13 42.5q23 18 42.5 13t34.5 -24q10 -13 22.5 -39.5t20.5 -46.5z" />
    <glyph glyph-name="endash" unicode="&#x2013;" horiz-adv-x="488" 
d="M20 370h448v-40h-448v40z" />
    <glyph glyph-name="emdash" unicode="&#x2014;" horiz-adv-x="528" 
d="M20 370h488v-40h-488v40z" />
    <glyph glyph-name="quoteleft" unicode="&#x2018;" horiz-adv-x="245" 
d="M122 541q-45 0 -73.5 26t-28.5 65q0 72 42.5 130t105.5 81l15 -22q-48 -43 -60 -98q45 0 73.5 -26t28.5 -65t-29 -65t-74 -26z" />
    <glyph glyph-name="quoteright" unicode="&#x2019;" horiz-adv-x="245" 
d="M123 843q45 0 73.5 -26t28.5 -65q0 -71 -42.5 -129.5t-105.5 -81.5l-15 23q48 41 60 97q-45 0 -73.5 26.5t-28.5 64.5q0 39 29 65t74 26z" />
    <glyph glyph-name="quotesinglbase" unicode="&#x201a;" horiz-adv-x="246" 
d="M123 174q45 0 74 -26.5t29 -64.5q0 -71 -42.5 -129.5t-105.5 -82.5l-16 23q48 41 60 97q-45 1 -73.5 27t-28.5 65q0 38 29 64.5t74 26.5z" />
    <glyph glyph-name="quotedblleft" unicode="&#x201c;" horiz-adv-x="475" 
d="M352 541q-45 0 -73.5 26t-28.5 65q0 72 42.5 130t105.5 81l15 -22q-48 -43 -60 -98q45 0 73.5 -26t28.5 -65t-29 -65t-74 -26zM123 541q-45 0 -74 26t-29 65q0 71 42.5 129.5t105.5 81.5l15 -22q-47 -42 -59 -98q44 0 72.5 -26t28.5 -65t-28.5 -65t-73.5 -26z" />
    <glyph glyph-name="quotedblright" unicode="&#x201d;" horiz-adv-x="475" 
d="M123 843q45 0 73.5 -26t28.5 -65q0 -71 -42.5 -129.5t-105.5 -81.5l-15 23q48 41 60 97q-45 0 -73.5 26.5t-28.5 64.5q0 39 29 65t74 26zM352 843q45 0 74 -26t29 -65q0 -71 -42.5 -129.5t-105.5 -81.5l-15 23q47 40 59 97q-44 0 -72.5 26.5t-28.5 64.5q0 39 28.5 65
t73.5 26z" />
    <glyph glyph-name="quotedblbase" unicode="&#x201e;" horiz-adv-x="475" 
d="M123 174q45 0 74 -26.5t29 -64.5q0 -71 -42.5 -129.5t-105.5 -82.5l-16 23q48 41 60 97q-45 1 -73.5 27t-28.5 65q0 38 29 64.5t74 26.5zM353 174q45 0 73.5 -26.5t28.5 -64.5q0 -72 -42.5 -130t-105.5 -82l-15 23q49 42 59 97q-44 1 -72.5 27t-28.5 65q0 38 28.5 64.5
t74.5 26.5z" />
    <glyph glyph-name="dagger" unicode="&#x2020;" horiz-adv-x="393" 
d="M328 527q23 3 34 -8t11 -27t-11 -26.5t-34 -7.5q-62 9 -120 21q20 -249 23 -273q3 -23 -7.5 -34.5t-26.5 -11.5t-27 11.5t-8 34.5q11 79 23 273q-48 -10 -119 -21q-23 -3 -34.5 7.5t-11.5 26.5t11.5 27t34.5 8q27 -3 118 -21q-18 104 -26 157q-3 23 9.5 34.5t29.5 11.5
q16 0 28.5 -11.5t9.5 -34.5q-3 -17 -12.5 -77t-12.5 -80q83 17 118 21z" />
    <glyph glyph-name="daggerdbl" unicode="&#x2021;" horiz-adv-x="354" 
d="M288 379q23 3 34.5 -7.5t11.5 -26.5t-11.5 -27t-34.5 -8q-28 4 -96 20q19 -83 23 -116q3 -23 -9.5 -34.5t-28.5 -11.5q-17 0 -29.5 11.5t-9.5 34.5q5 34 24 116q-73 -17 -97 -20q-23 -3 -34 8t-11 27t11 26.5t34 7.5q37 -5 92 -18l-12 60l12 55q-55 -13 -92 -18
q-23 -3 -34 7.5t-11 26.5t11 27t34 8q35 -5 97 -19q-18 76 -24 116q-3 23 9.5 34t29.5 11q16 0 28.5 -11.5t9.5 -33.5q-5 -38 -23 -116q58 14 96 19q23 3 34.5 -8t11.5 -27t-11.5 -26.5t-34.5 -7.5q-40 6 -91 18l11 -55l-11 -60q51 12 91 18z" />
    <glyph glyph-name="bullet" unicode="&#x2022;" horiz-adv-x="245" 
d="M122 519q46 0 74.5 -26t28.5 -65t-28.5 -65t-74.5 -26q-45 0 -73.5 26t-28.5 65t28.5 65t73.5 26z" />
    <glyph glyph-name="ellipsis" unicode="&#x2026;" horiz-adv-x="747" 
d="M123 174q45 0 74 -26.5t29 -64.5q0 -39 -29 -65.5t-74 -26.5t-74 26.5t-29 65.5q0 38 29 64.5t74 26.5zM373 174q46 0 74.5 -26.5t28.5 -64.5q0 -39 -28.5 -65.5t-74.5 -26.5q-45 0 -73.5 26.5t-28.5 65.5q0 38 28.5 64.5t73.5 26.5zM624 174q45 0 74 -26.5t29 -64.5
q0 -39 -29 -65.5t-74 -26.5t-74 26.5t-29 65.5q0 38 29 64.5t74 26.5z" />
    <glyph glyph-name="perthousand" unicode="&#x2030;" horiz-adv-x="1011" 
d="M521 700h40l-433 -700h-40zM328 542q0 -73 -46 -120t-108 -47t-108 47t-46 120t46 120t108 47t108 -47t46 -120zM118 530q9 -62 28.5 -94t44.5 -29q25 4 34 43.5t1 103.5q-8 63 -28 96.5t-44 27.5q-24 -5 -34 -45t-2 -103zM477 325q62 0 108 -47t46 -120
q0 -72 -46.5 -119.5t-107.5 -47.5q-62 0 -108 47.5t-46 119.5q0 73 46 120t108 47zM493 24q25 3 34.5 42.5t1.5 103.5q-8 63 -28 96.5t-44 28.5q-25 -6 -34.5 -45.5t-1.5 -103.5q8 -62 27.5 -94t44.5 -28zM837 325q62 0 108 -47t46 -120q0 -72 -46.5 -119.5t-107.5 -47.5
q-62 0 -108 47.5t-46 119.5q0 73 46 120t108 47zM853 24q25 3 34.5 42.5t1.5 103.5q-8 63 -28 96.5t-44 28.5q-25 -6 -34.5 -45.5t-1.5 -103.5q8 -62 27.5 -94t44.5 -28z" />
    <glyph glyph-name="guilsinglleft" unicode="&#x2039;" horiz-adv-x="252" 
d="M232 499v-20l-136 -131l136 -132v-20l-212 146v11z" />
    <glyph glyph-name="guilsinglright" unicode="&#x203a;" horiz-adv-x="252" 
d="M20 499l212 -146v-11l-212 -146v20l136 132l-136 131v20z" />
    <glyph glyph-name="fraction" unicode="&#x2044;" horiz-adv-x="316" 
d="M257 700h39l-236 -700h-40z" />
    <glyph glyph-name="Euro" unicode="&#x20ac;" horiz-adv-x="727" 
d="M680 220h27l-15 -229h-21q-7 26 -35 26t-86.5 -13t-101.5 -13q-147 0 -249.5 78t-129.5 203h-99l8 39h84q-2 26 -2 39t2 39h-92l8 39h90q25 127 123.5 204t249.5 77q42 0 100.5 -13t86.5 -13t35 26h21l16 -225h-28q-20 97 -75.5 145t-155.5 42q-79 -5 -129 -67t-63 -176
h300l-8 -39h-296q0 -7 -0.5 -20t-0.5 -19t0.5 -19t0.5 -20h284l-8 -39h-272q14 -114 67 -177t132 -67q101 -4 156.5 45.5t75.5 146.5z" />
    <glyph glyph-name="ruble" unicode="&#x20bd;" horiz-adv-x="638" 
d="M301 267h-18v-65h185v-40h-185v-20q0 -115 113 -115v-27h-376v27q53 0 73 30.5t20 84.5v20h-93v40h93v65h-93v40h93v250q0 54 -20 84.5t-73 30.5v28h281q168 0 252.5 -55t84.5 -161t-84.5 -161.5t-252.5 -55.5zM283 660v-353h15q163 0 163 177q0 176 -163 176h-15z" />
    <glyph glyph-name="bitcoin" unicode="&#x20bf;" horiz-adv-x="698" 
d="M698 197q0 -89 -75.5 -138t-213.5 -57v-119h-40v117h-19h-67v-117h-39v117h-224v27q53 0 73.5 30.5t20.5 84.5v415q0 54 -20.5 84.5t-73.5 30.5v28h224v119h39v-119h31q10 0 28.5 -0.5t26.5 -0.5v120h40v-123q234 -21 234 -169q0 -108 -132 -150q187 -41 187 -180z
M284 660v-267h42q147 0 147 134q0 59 -31.5 96t-104.5 37h-53zM346 40q85 0 128 42.5t43 114.5q0 71 -43 114t-128 43h-62v-314h62z" />
    <glyph glyph-name="afii61352" unicode="&#x2116;" horiz-adv-x="1135" 
d="M529 672v28h228v-28q-55 0 -71.5 -24t-16.5 -91v-557h-61l-461 581v-439q0 -64 22 -89.5t79 -25.5v-27h-228v27q55 0 71.5 24t16.5 91v415q0 55 -18 85t-70 30v28h265l344 -428v285q0 65 -21.5 90t-78.5 25zM757 314h378v-39h-378v39zM946 375q-70 0 -122 47t-52 120
t52 120t122 47t122 -47t52 -120t-52 -120t-122 -47zM924 682q-28 -5 -39 -46.5t-2 -105.5q10 -63 32 -96.5t50 -30.5q28 4 38.5 45.5t1.5 105.5q-10 63 -32 98.5t-49 29.5z" />
    <glyph glyph-name="minus" unicode="&#x2212;" horiz-adv-x="410" 
d="M20 369h370v-39h-370v39z" />
    <glyph glyph-name="approxequal" unicode="&#x2248;" horiz-adv-x="407" 
d="M118 435q-43 5 -82 -30l-16 16q19 23 33 36.5t40 23.5t56 6q38 -5 77 -31.5t72 -30.5q47 -5 72 28l17 -10q-27 -77 -100 -74q-39 2 -88.5 32.5t-80.5 33.5zM298 307q47 -6 72 28l17 -10q-27 -78 -100 -75q-39 2 -88.5 33t-80.5 34q-44 4 -82 -30l-16 15q19 24 33.5 37.5
t40 23.5t55.5 6q37 -6 76.5 -32.5t72.5 -29.5z" />
    <glyph glyph-name="notequal" unicode="&#x2260;" horiz-adv-x="410" 
d="M390 388h-129l-62 -77h191v-40h-222l-80 -99l-30 25l59 74h-97v40h129l62 77h-191v40h222l79 99l31 -25l-59 -74h97v-40z" />
    <glyph glyph-name="lessequal" unicode="&#x2264;" horiz-adv-x="409" 
d="M389 558v-40l-324 -131l324 -131v-40l-369 150v42zM20 153v40h369v-40h-369z" />
    <glyph glyph-name="greaterequal" unicode="&#x2265;" horiz-adv-x="410" 
d="M20 558l370 -150v-42l-370 -150v40l324 131l-324 131v40zM20 153v40h370v-40h-370z" />
    <glyph glyph-name="commaaccent" unicode="&#xf6c3;" horiz-adv-x="200" 
d="M100 -57q35 0 57.5 -20.5t22.5 -50.5q0 -55 -33 -100.5t-83 -64.5l-12 18q38 31 47 75q-35 1 -57 21.5t-22 50.5t22.5 50.5t57.5 20.5z" />
    </font>
</defs>
</svg>
